<?xml version="1.0" encoding="UTF-8"?>
<svg version="1.1" xmlns="http://www.w3.org/2000/svg" width="512" height="512">
<path d="M0 0 C7.05127793 5.29454133 13.36087874 10.9613297 19.52124023 17.25366211 C20.99589284 18.75976873 22.48121895 20.25466803 23.96875 21.74804688 C29.23905859 27.06072859 34.34133062 32.47288601 39.17382812 38.1875 C39.677771 38.77394287 40.18171387 39.36038574 40.70092773 39.96459961 C67.52843482 71.37845079 87.56683013 105.87456189 85.17382812 148.1875 C82.32140023 173.4748708 62.88910911 195.98819856 43.80664062 211.40234375 C27.62124345 224.03736678 9.55366791 233.9446029 -9.05664062 242.49609375 C-9.6833667 242.78790527 -10.31009277 243.0797168 -10.95581055 243.38037109 C-12.82617188 244.1875 -12.82617188 244.1875 -14.76879883 244.81103516 C-16.92423197 245.47690798 -16.92423197 245.47690798 -19.82617188 247.1875 C-21.1236449 249.82559242 -21.89843468 251.90096586 -22.63867188 254.6875 C-28.71913752 274.29048009 -39.81618204 290.3687841 -53.82617188 305.1875 C-54.59574219 306.02152344 -55.3653125 306.85554688 -56.15820312 307.71484375 C-62.76612061 314.64301572 -62.76612061 314.64301572 -67.1302948 316.8846283 C-73.7028173 320.24872396 -73.7028173 320.24872396 -77.56772232 326.27553177 C-78.76303757 332.66670595 -78.46439378 339.15838827 -78.31445312 345.62890625 C-78.31264236 347.72354908 -78.31656953 349.81820403 -78.32597351 351.91282654 C-78.3353121 357.40345275 -78.26712322 362.89043757 -78.18237305 368.38031006 C-78.10960783 373.99105699 -78.1107133 379.6017462 -78.10546875 385.21289062 C-78.08437319 396.20561438 -77.98131434 407.1959076 -77.82617188 418.1875 C-77.01649114 418.18473462 -76.2068104 418.18196924 -75.37259388 418.17912006 C-55.67618785 418.11288261 -35.97980101 418.06323031 -16.28330708 418.03206348 C-6.75824803 418.01659104 2.7667367 417.9954943 12.29174805 417.96118164 C20.59322544 417.93129085 28.89464902 417.91192774 37.19617873 417.90523452 C41.59226094 417.90132171 45.98818915 417.89211825 50.38422203 417.87030983 C54.52182594 417.84994974 58.6592124 417.84366522 62.79686165 417.84817696 C64.315415 417.84735154 65.83397562 417.84138295 67.35248566 417.82988358 C69.42667883 417.81494641 71.50005219 417.81855016 73.57426453 417.82673645 C75.31507058 417.82258838 75.31507058 417.82258838 77.09104443 417.81835651 C80.55940528 418.23367038 82.45702526 419.0035088 85.17382812 421.1875 C85.61132812 424.75 85.61132812 424.75 85.17382812 428.1875 C82.61342496 430.74790316 80.94239578 430.42949963 77.45176077 430.45337117 C76.64257901 430.44868883 75.83339725 430.4440065 74.99969482 430.43918228 C74.1402925 430.44208916 73.28089017 430.44499604 72.39544535 430.44799101 C69.48393857 430.45535377 66.57263843 430.44831865 63.66113281 430.44146729 C61.5654324 430.44376924 59.46973279 430.44694397 57.37403488 430.45092177 C51.59039359 430.45931487 45.80681781 430.45512414 40.02317619 430.44894934 C33.79543475 430.4444442 27.56770498 430.45139892 21.33996582 430.45690918 C9.83665718 430.46530962 -1.66662207 430.4645519 -13.16993058 430.45908624 C-23.7954589 430.45406222 -34.42097952 430.45273841 -45.04650879 430.45513153 C-45.75034522 430.4552843 -46.45418166 430.45543707 -47.17934647 430.45559447 C-50.0361906 430.45621711 -52.89303472 430.45685391 -55.74987884 430.457514 C-82.56887371 430.46363693 -109.38785517 430.45807727 -136.20684797 430.4473202 C-160.05261937 430.43782845 -183.89836941 430.43867768 -207.74414062 430.44824219 C-234.51296186 430.45894314 -261.28177125 430.46320276 -288.05059433 430.45701766 C-290.9023412 430.45637619 -293.75408808 430.45575051 -296.60583496 430.45513153 C-297.30804756 430.45497338 -298.01026016 430.45481522 -298.73375192 430.45465227 C-309.35460902 430.45237389 -319.97545757 430.45504427 -330.59631348 430.46009064 C-342.66836938 430.4657978 -354.74039452 430.46421041 -366.81244946 430.45352915 C-372.97763693 430.44825493 -379.14278094 430.4462453 -385.30796814 430.45282745 C-390.9431781 430.45875301 -396.57830398 430.45556842 -402.21350622 430.44487235 C-404.26057396 430.44262381 -406.3076487 430.44380677 -408.35471201 430.44862393 C-411.12059095 430.45463722 -413.88617547 430.44853766 -416.65203857 430.43918228 C-417.46122034 430.44386461 -418.2704021 430.44854695 -419.10410452 430.45337117 C-424.59787114 430.41580074 -424.59787114 430.41580074 -426.82617188 428.1875 C-427.26367188 424.75 -427.26367188 424.75 -426.82617188 421.1875 C-423.03346227 418.13860583 -420.00221425 417.81535693 -415.22660828 417.82673645 C-414.57713488 417.82417318 -413.92766148 417.8216099 -413.25850707 417.81896895 C-411.09029539 417.81404206 -408.9227858 417.83050488 -406.75463867 417.84692383 C-405.19727088 417.84777034 -403.63990189 417.84729448 -402.08253479 417.84559631 C-397.85971996 417.84473588 -393.63716098 417.86236939 -389.41440558 417.88331819 C-384.99949425 417.90207696 -380.584577 417.9038348 -376.16963196 417.90739441 C-367.81157365 417.91671722 -359.45363311 417.94133421 -351.09562665 417.97144288 C-339.79986554 418.01125081 -328.5040722 418.02743985 -317.20825863 418.04494953 C-299.4141415 418.07315513 -281.6202729 418.13292307 -263.82617188 418.1875 C-263.82617188 387.4975 -263.82617188 356.8075 -263.82617188 325.1875 C-265.47617187 324.5275 -267.12617188 323.8675 -268.82617188 323.1875 C-270.64394943 321.85337626 -272.41283627 320.45110056 -274.13867188 319 C-275.57919922 317.78957031 -275.57919922 317.78957031 -277.04882812 316.5546875 C-277.96535156 315.77351563 -278.881875 314.99234375 -279.82617188 314.1875 C-280.56738281 313.57132812 -281.30859375 312.95515625 -282.07226562 312.3203125 C-300.05260008 297.10887945 -318.32426755 271.01990443 -321.82617188 247.1875 C-322.35082031 247.06375 -322.87546875 246.94 -323.41601562 246.8125 C-358.58609235 237.44941801 -396.98028492 209.70609696 -415.85742188 178.58984375 C-418.57642262 173.89093572 -420.93218715 169.27758394 -422.82617188 164.1875 C-423.21804688 163.15238281 -423.60992187 162.11726562 -424.01367188 161.05078125 C-431.92839646 136.50963869 -425.8215982 111.58708315 -414.82617188 89.1875 C-414.5287207 88.56955566 -414.23126953 87.95161133 -413.92480469 87.31494141 C-408.66418396 76.49512417 -402.01017672 66.81318786 -394.82617188 57.1875 C-394.35775879 56.55924316 -393.8893457 55.93098633 -393.40673828 55.28369141 C-387.53304382 47.47228331 -381.2310156 40.18385867 -374.52929688 33.07421875 C-372.39862034 30.79882863 -370.34326812 28.49949436 -368.32617188 26.125 C-356.09994537 12.05890446 -341.77508736 -3.54983008 -322.09960938 -5.015625 C-306.57738297 -5.26665831 -295.53165619 0.18802415 -284.33398438 10.71875 C-274.22268306 20.67255441 -262.77478334 32.87808022 -261.52539062 47.7734375 C-261.49468766 57.70073052 -262.01923615 65.13369581 -269.04882812 72.64453125 C-275.18038988 77.96753541 -281.81412241 78.86262776 -289.75585938 78.55859375 C-298.70377665 77.47710248 -304.67132343 71.39954964 -310.82617188 65.1875 C-311.48617187 64.1975 -312.14617187 63.2075 -312.82617188 62.1875 C-317.54820749 71.44395868 -321.99218619 80.79000583 -326.25289917 90.26638794 C-327.87376534 93.87060215 -329.50393749 97.4705971 -331.13476562 101.0703125 C-331.45290726 101.77275589 -331.77104889 102.47519928 -332.09883118 103.19892883 C-335.90113032 111.57914316 -339.83667819 119.89497519 -343.82617188 128.1875 C-342.59382813 128.15269531 -341.36148438 128.11789063 -340.09179688 128.08203125 C-321.0054731 127.69551194 -304.76877281 131.76957736 -290.63476562 145.2890625 C-288.21644578 147.82751487 -285.97410602 150.41597206 -283.82617188 153.1875 C-283.13652344 152.99414062 -282.446875 152.80078125 -281.73632812 152.6015625 C-280.79660156 152.34117187 -279.856875 152.08078125 -278.88867188 151.8125 C-277.97214844 151.55726563 -277.055625 151.30203125 -276.11132812 151.0390625 C-275.02722656 150.75804687 -273.943125 150.47703125 -272.82617188 150.1875 C-272.15078369 150.01105957 -271.47539551 149.83461914 -270.77954102 149.65283203 C-255.07861028 145.82098554 -237.98584525 147.00401966 -224.01367188 155.4375 C-218.00366826 159.56270958 -211.8989938 164.07826712 -207.82617188 170.1875 C-204.72435876 170.68417151 -204.72435876 170.68417151 -201.0090332 170.6550293 C-200.30797455 170.66831772 -199.60691589 170.68160614 -198.88461304 170.69529724 C-196.55902904 170.73409269 -194.23407055 170.74960444 -191.90820312 170.76171875 C-190.29115149 170.77643646 -188.67410133 170.79131601 -187.05705261 170.80635071 C-183.66161098 170.83337712 -180.26638889 170.84689762 -176.87084961 170.85327148 C-172.53006522 170.86411635 -168.19161979 170.9257252 -163.85152149 170.9999876 C-160.50817654 171.04849584 -157.16538875 171.06080292 -153.82172203 171.06333351 C-152.22251673 171.07054611 -150.62331241 171.09095129 -149.02445412 171.12503624 C-140.26443204 171.55898679 -140.26443204 171.55898679 -132.37948608 168.45864868 C-130.63505281 166.4542196 -129.27177656 164.40976623 -127.82617188 162.1875 C-115.06424462 150.63779538 -99.70913172 147.41148502 -82.97070312 147.8125 C-77.20309125 148.10855405 -71.75144514 149.27760583 -66.20629883 150.85180664 C-61.44619568 152.33607691 -61.44619568 152.33607691 -56.82617188 151.1875 C-54.86946875 149.18234489 -54.86946875 149.18234489 -52.95117188 146.6875 C-42.3410546 134.50680615 -28.30316533 128.7495483 -12.57617188 126.38671875 C-7.5940859 126.12204543 -2.77552073 126.630922 2.17382812 127.1875 C1.83351563 126.46199951 1.49320312 125.73649902 1.14257812 124.98901367 C-0.51537625 121.45180549 -2.17134223 117.9136708 -3.82617188 114.375 C-4.1321933 113.72077057 -4.43821472 113.06654114 -4.75350952 112.39248657 C-8.63412586 104.09109623 -12.48215197 95.7756458 -16.28320312 87.4375 C-16.64815887 86.63709793 -17.01311462 85.83669586 -17.38912964 85.01203918 C-19.18236256 81.07698493 -20.972002 77.14033227 -22.7578125 73.2019043 C-23.4120709 71.76349161 -24.06636589 70.32509557 -24.72070312 68.88671875 C-25.02112015 68.22144165 -25.32153717 67.55616455 -25.63105774 66.87072754 C-26.89268832 63.81288382 -26.89268832 63.81288382 -28.82617188 61.1875 C-29.22707031 61.69539063 -29.62796875 62.20328125 -30.04101562 62.7265625 C-36.17880138 70.15871124 -43.4232074 76.32969618 -53.28710938 77.47265625 C-60.48099875 77.86559979 -65.9664869 76.44629031 -71.82617188 72.1875 C-77.91123447 66.05204351 -80.11041596 59.61273674 -80.20117188 51 C-79.92631197 34.47606943 -70.7399513 23.72702732 -59.82617188 12.1875 C-59.09269531 11.38957031 -58.35921875 10.59164062 -57.60351562 9.76953125 C-42.73081857 -5.890081 -19.36333115 -12.41822481 0 0 Z " fill="#FEE6D6" transform="translate(426.826171875,43.8125)"/>
<path d="M0 0 C7.05127793 5.29454133 13.36087874 10.9613297 19.52124023 17.25366211 C20.99589284 18.75976873 22.48121895 20.25466803 23.96875 21.74804688 C29.23905859 27.06072859 34.34133062 32.47288601 39.17382812 38.1875 C39.677771 38.77394287 40.18171387 39.36038574 40.70092773 39.96459961 C67.52843482 71.37845079 87.56683013 105.87456189 85.17382812 148.1875 C82.32140023 173.4748708 62.88910911 195.98819856 43.80664062 211.40234375 C27.62124345 224.03736678 9.55366791 233.9446029 -9.05664062 242.49609375 C-9.6833667 242.78790527 -10.31009277 243.0797168 -10.95581055 243.38037109 C-12.82617188 244.1875 -12.82617188 244.1875 -14.76879883 244.81103516 C-16.92423197 245.47690798 -16.92423197 245.47690798 -19.82617188 247.1875 C-21.1236449 249.82559242 -21.89843468 251.90096586 -22.63867188 254.6875 C-28.71913752 274.29048009 -39.81618204 290.3687841 -53.82617188 305.1875 C-54.59574219 306.02152344 -55.3653125 306.85554688 -56.15820312 307.71484375 C-62.76612061 314.64301572 -62.76612061 314.64301572 -67.1302948 316.8846283 C-73.7028173 320.24872396 -73.7028173 320.24872396 -77.56772232 326.27553177 C-78.76303757 332.66670595 -78.46439378 339.15838827 -78.31445312 345.62890625 C-78.31264236 347.72354908 -78.31656953 349.81820403 -78.32597351 351.91282654 C-78.3353121 357.40345275 -78.26712322 362.89043757 -78.18237305 368.38031006 C-78.10960783 373.99105699 -78.1107133 379.6017462 -78.10546875 385.21289062 C-78.08437319 396.20561438 -77.98131434 407.1959076 -77.82617188 418.1875 C-77.01649114 418.18473462 -76.2068104 418.18196924 -75.37259388 418.17912006 C-55.67618785 418.11288261 -35.97980101 418.06323031 -16.28330708 418.03206348 C-6.75824803 418.01659104 2.7667367 417.9954943 12.29174805 417.96118164 C20.59322544 417.93129085 28.89464902 417.91192774 37.19617873 417.90523452 C41.59226094 417.90132171 45.98818915 417.89211825 50.38422203 417.87030983 C54.52182594 417.84994974 58.6592124 417.84366522 62.79686165 417.84817696 C64.315415 417.84735154 65.83397562 417.84138295 67.35248566 417.82988358 C69.42667883 417.81494641 71.50005219 417.81855016 73.57426453 417.82673645 C75.31507058 417.82258838 75.31507058 417.82258838 77.09104443 417.81835651 C80.55940528 418.23367038 82.45702526 419.0035088 85.17382812 421.1875 C85.61132812 424.75 85.61132812 424.75 85.17382812 428.1875 C82.61342496 430.74790316 80.94239578 430.42949963 77.45176077 430.45337117 C76.64257901 430.44868883 75.83339725 430.4440065 74.99969482 430.43918228 C74.1402925 430.44208916 73.28089017 430.44499604 72.39544535 430.44799101 C69.48393857 430.45535377 66.57263843 430.44831865 63.66113281 430.44146729 C61.5654324 430.44376924 59.46973279 430.44694397 57.37403488 430.45092177 C51.59039359 430.45931487 45.80681781 430.45512414 40.02317619 430.44894934 C33.79543475 430.4444442 27.56770498 430.45139892 21.33996582 430.45690918 C9.83665718 430.46530962 -1.66662207 430.4645519 -13.16993058 430.45908624 C-23.7954589 430.45406222 -34.42097952 430.45273841 -45.04650879 430.45513153 C-45.75034522 430.4552843 -46.45418166 430.45543707 -47.17934647 430.45559447 C-50.0361906 430.45621711 -52.89303472 430.45685391 -55.74987884 430.457514 C-82.56887371 430.46363693 -109.38785517 430.45807727 -136.20684797 430.4473202 C-160.05261937 430.43782845 -183.89836941 430.43867768 -207.74414062 430.44824219 C-234.51296186 430.45894314 -261.28177125 430.46320276 -288.05059433 430.45701766 C-290.9023412 430.45637619 -293.75408808 430.45575051 -296.60583496 430.45513153 C-297.30804756 430.45497338 -298.01026016 430.45481522 -298.73375192 430.45465227 C-309.35460902 430.45237389 -319.97545757 430.45504427 -330.59631348 430.46009064 C-342.66836938 430.4657978 -354.74039452 430.46421041 -366.81244946 430.45352915 C-372.97763693 430.44825493 -379.14278094 430.4462453 -385.30796814 430.45282745 C-390.9431781 430.45875301 -396.57830398 430.45556842 -402.21350622 430.44487235 C-404.26057396 430.44262381 -406.3076487 430.44380677 -408.35471201 430.44862393 C-411.12059095 430.45463722 -413.88617547 430.44853766 -416.65203857 430.43918228 C-417.46122034 430.44386461 -418.2704021 430.44854695 -419.10410452 430.45337117 C-424.59787114 430.41580074 -424.59787114 430.41580074 -426.82617188 428.1875 C-427.26367188 424.75 -427.26367188 424.75 -426.82617188 421.1875 C-423.03346227 418.13860583 -420.00221425 417.81535693 -415.22660828 417.82673645 C-414.57713488 417.82417318 -413.92766148 417.8216099 -413.25850707 417.81896895 C-411.09029539 417.81404206 -408.9227858 417.83050488 -406.75463867 417.84692383 C-405.19727088 417.84777034 -403.63990189 417.84729448 -402.08253479 417.84559631 C-397.85971996 417.84473588 -393.63716098 417.86236939 -389.41440558 417.88331819 C-384.99949425 417.90207696 -380.584577 417.9038348 -376.16963196 417.90739441 C-367.81157365 417.91671722 -359.45363311 417.94133421 -351.09562665 417.97144288 C-339.79986554 418.01125081 -328.5040722 418.02743985 -317.20825863 418.04494953 C-299.4141415 418.07315513 -281.6202729 418.13292307 -263.82617188 418.1875 C-263.82617188 387.4975 -263.82617188 356.8075 -263.82617188 325.1875 C-265.47617187 324.5275 -267.12617188 323.8675 -268.82617188 323.1875 C-270.64394943 321.85337626 -272.41283627 320.45110056 -274.13867188 319 C-275.57919922 317.78957031 -275.57919922 317.78957031 -277.04882812 316.5546875 C-277.96535156 315.77351563 -278.881875 314.99234375 -279.82617188 314.1875 C-280.56738281 313.57132812 -281.30859375 312.95515625 -282.07226562 312.3203125 C-300.05260008 297.10887945 -318.32426755 271.01990443 -321.82617188 247.1875 C-322.35082031 247.06375 -322.87546875 246.94 -323.41601562 246.8125 C-358.58609235 237.44941801 -396.98028492 209.70609696 -415.85742188 178.58984375 C-418.57642262 173.89093572 -420.93218715 169.27758394 -422.82617188 164.1875 C-423.21804688 163.15238281 -423.60992187 162.11726562 -424.01367188 161.05078125 C-431.92839646 136.50963869 -425.8215982 111.58708315 -414.82617188 89.1875 C-414.5287207 88.56955566 -414.23126953 87.95161133 -413.92480469 87.31494141 C-408.66418396 76.49512417 -402.01017672 66.81318786 -394.82617188 57.1875 C-394.35775879 56.55924316 -393.8893457 55.93098633 -393.40673828 55.28369141 C-387.53304382 47.47228331 -381.2310156 40.18385867 -374.52929688 33.07421875 C-372.39862034 30.79882863 -370.34326812 28.49949436 -368.32617188 26.125 C-356.09994537 12.05890446 -341.77508736 -3.54983008 -322.09960938 -5.015625 C-306.57738297 -5.26665831 -295.53165619 0.18802415 -284.33398438 10.71875 C-274.22268306 20.67255441 -262.77478334 32.87808022 -261.52539062 47.7734375 C-261.49468766 57.70073052 -262.01923615 65.13369581 -269.04882812 72.64453125 C-275.18038988 77.96753541 -281.81412241 78.86262776 -289.75585938 78.55859375 C-298.70377665 77.47710248 -304.67132343 71.39954964 -310.82617188 65.1875 C-311.48617187 64.1975 -312.14617187 63.2075 -312.82617188 62.1875 C-317.54820749 71.44395868 -321.99218619 80.79000583 -326.25289917 90.26638794 C-327.87376534 93.87060215 -329.50393749 97.4705971 -331.13476562 101.0703125 C-331.45290726 101.77275589 -331.77104889 102.47519928 -332.09883118 103.19892883 C-335.90113032 111.57914316 -339.83667819 119.89497519 -343.82617188 128.1875 C-342.59382813 128.15269531 -341.36148438 128.11789063 -340.09179688 128.08203125 C-321.0054731 127.69551194 -304.76877281 131.76957736 -290.63476562 145.2890625 C-288.21644578 147.82751487 -285.97410602 150.41597206 -283.82617188 153.1875 C-283.13652344 152.99414062 -282.446875 152.80078125 -281.73632812 152.6015625 C-280.79660156 152.34117187 -279.856875 152.08078125 -278.88867188 151.8125 C-277.97214844 151.55726563 -277.055625 151.30203125 -276.11132812 151.0390625 C-275.02722656 150.75804687 -273.943125 150.47703125 -272.82617188 150.1875 C-272.15078369 150.01105957 -271.47539551 149.83461914 -270.77954102 149.65283203 C-255.07861028 145.82098554 -237.98584525 147.00401966 -224.01367188 155.4375 C-218.00366826 159.56270958 -211.8989938 164.07826712 -207.82617188 170.1875 C-204.72435876 170.68417151 -204.72435876 170.68417151 -201.0090332 170.6550293 C-200.30797455 170.66831772 -199.60691589 170.68160614 -198.88461304 170.69529724 C-196.55902904 170.73409269 -194.23407055 170.74960444 -191.90820312 170.76171875 C-190.29115149 170.77643646 -188.67410133 170.79131601 -187.05705261 170.80635071 C-183.66161098 170.83337712 -180.26638889 170.84689762 -176.87084961 170.85327148 C-172.53006522 170.86411635 -168.19161979 170.9257252 -163.85152149 170.9999876 C-160.50817654 171.04849584 -157.16538875 171.06080292 -153.82172203 171.06333351 C-152.22251673 171.07054611 -150.62331241 171.09095129 -149.02445412 171.12503624 C-140.26443204 171.55898679 -140.26443204 171.55898679 -132.37948608 168.45864868 C-130.63505281 166.4542196 -129.27177656 164.40976623 -127.82617188 162.1875 C-115.06424462 150.63779538 -99.70913172 147.41148502 -82.97070312 147.8125 C-77.20309125 148.10855405 -71.75144514 149.27760583 -66.20629883 150.85180664 C-61.44619568 152.33607691 -61.44619568 152.33607691 -56.82617188 151.1875 C-54.86946875 149.18234489 -54.86946875 149.18234489 -52.95117188 146.6875 C-42.3410546 134.50680615 -28.30316533 128.7495483 -12.57617188 126.38671875 C-7.5940859 126.12204543 -2.77552073 126.630922 2.17382812 127.1875 C1.83351563 126.46199951 1.49320312 125.73649902 1.14257812 124.98901367 C-0.51537625 121.45180549 -2.17134223 117.9136708 -3.82617188 114.375 C-4.1321933 113.72077057 -4.43821472 113.06654114 -4.75350952 112.39248657 C-8.63412586 104.09109623 -12.48215197 95.7756458 -16.28320312 87.4375 C-16.64815887 86.63709793 -17.01311462 85.83669586 -17.38912964 85.01203918 C-19.18236256 81.07698493 -20.972002 77.14033227 -22.7578125 73.2019043 C-23.4120709 71.76349161 -24.06636589 70.32509557 -24.72070312 68.88671875 C-25.02112015 68.22144165 -25.32153717 67.55616455 -25.63105774 66.87072754 C-26.89268832 63.81288382 -26.89268832 63.81288382 -28.82617188 61.1875 C-29.22707031 61.69539063 -29.62796875 62.20328125 -30.04101562 62.7265625 C-36.17880138 70.15871124 -43.4232074 76.32969618 -53.28710938 77.47265625 C-60.48099875 77.86559979 -65.9664869 76.44629031 -71.82617188 72.1875 C-77.91123447 66.05204351 -80.11041596 59.61273674 -80.20117188 51 C-79.92631197 34.47606943 -70.7399513 23.72702732 -59.82617188 12.1875 C-59.09269531 11.38957031 -58.35921875 10.59164062 -57.60351562 9.76953125 C-42.73081857 -5.890081 -19.36333115 -12.41822481 0 0 Z M-57.82617188 26.1875 C-60.38945364 29.39869616 -62.66848191 32.69298038 -64.82617188 36.1875 C-65.25929688 36.85265625 -65.69242187 37.5178125 -66.13867188 38.203125 C-69.33281396 43.65978439 -69.7201591 48.9747403 -68.82617188 55.1875 C-67.52988501 59.40216532 -65.85326161 62.29920618 -62.51367188 65.1875 C-58.24836574 66.77459066 -54.93624426 66.99561283 -50.62304688 65.34375 C-40.61015207 60.30324513 -35.71876859 51.93685023 -30.82617188 42.1875 C-28.63867188 41.6875 -28.63867188 41.6875 -25.82617188 42.1875 C-21.83116378 47.06720144 -19.26514484 53.17798662 -16.67382812 58.8828125 C-16.29686798 59.70077301 -15.91990784 60.51873352 -15.53152466 61.36148071 C-14.31232949 64.00959449 -13.10052554 66.6610197 -11.88867188 69.3125 C-11.04267172 71.15294434 -10.19606772 72.99311123 -9.34887695 74.83300781 C-7.6464561 78.53074305 -5.9461358 82.22943291 -4.24707031 85.92871094 C-0.86723387 93.2795962 2.55706257 100.60957834 5.98632812 107.9375 C7.55135045 111.28385799 9.11615282 114.63014359 10.66845703 117.98242188 C11.72901616 120.24045306 12.81729966 122.48556525 13.92529297 124.72070312 C14.48555176 125.86990234 15.04581055 127.01910156 15.62304688 128.203125 C16.13569092 129.23211914 16.64833496 130.26111328 17.17651367 131.32128906 C18.27967641 134.49170045 18.21398744 136.03430821 17.17382812 139.1875 C16.17382812 140.1875 16.17382812 140.1875 13.54882812 140.375 C10.17382812 140.1875 10.17382812 140.1875 7.09570312 139.203125 C-3.78129442 135.99565815 -17.76949864 136.88002824 -27.97070312 141.578125 C-37.7487353 147.08913629 -45.68267977 153.90948166 -51.88867188 163.3125 C-52.52804687 163.93125 -53.16742188 164.55 -53.82617188 165.1875 C-58.41378869 164.85857653 -62.53456346 163.71960287 -66.87670898 162.32006836 C-80.60513037 157.98164948 -95.63759827 156.347397 -108.82617188 163.1875 C-110.09654297 163.80625 -110.09654297 163.80625 -111.39257812 164.4375 C-118.14559823 168.06660394 -123.2542214 173.0473926 -127.82617188 179.1875 C-127.82617188 179.8475 -127.82617188 180.5075 -127.82617188 181.1875 C-138.73553116 181.44307204 -149.64417153 181.63816962 -160.55592155 181.75743389 C-165.62364771 181.81469541 -170.68931704 181.89227084 -175.75585938 182.01733398 C-180.65141922 182.13741164 -185.54500944 182.20273765 -190.44192886 182.23114967 C-192.30400722 182.25137832 -194.1659851 182.29088494 -196.02721786 182.35053062 C-211.39716325 182.82320955 -211.39716325 182.82320955 -216.10211182 178.7862854 C-218.58607689 176.0366585 -220.67041925 173.19406832 -222.82617188 170.1875 C-233.73581538 161.02398767 -245.9344928 158.58143363 -259.82617188 159.1875 C-267.22467455 159.8921193 -273.31509484 162.14254262 -280.07617188 165.14453125 C-283.60663237 166.48349851 -286.10996121 166.60979667 -289.82617188 166.1875 C-290.22642578 165.31351562 -290.22642578 165.31351562 -290.63476562 164.421875 C-296.94292355 152.59149359 -308.66405911 144.79523892 -320.92773438 140.44140625 C-326.02371542 139.01492507 -331.19477558 138.98989495 -336.45117188 138.9375 C-337.16805176 138.92807373 -337.88493164 138.91864746 -338.62353516 138.90893555 C-343.3462038 138.93780538 -347.28573133 139.76861233 -351.82617188 141.1875 C-355.20117188 141.375 -355.20117188 141.375 -357.82617188 141.1875 C-358.82617188 140.1875 -358.82617188 140.1875 -359.10839844 137.13012695 C-358.77100914 132.41689181 -357.39415523 129.28009036 -355.31054688 125.10546875 C-354.94351151 124.342379 -354.57647614 123.57928925 -354.19831848 122.79307556 C-353.00307025 120.31429951 -351.78957302 117.84493273 -350.57617188 115.375 C-349.74380538 113.65488617 -348.91300564 111.93401335 -348.08374023 110.21240234 C-346.43125586 106.78279321 -344.77374386 103.35569166 -343.11279297 99.93017578 C-340.12841809 93.75911904 -337.24558345 87.54359803 -334.38867188 81.3125 C-333.92251465 80.30018311 -333.45635742 79.28786621 -332.97607422 78.24487305 C-330.54063559 72.94952873 -328.12541043 67.64530371 -325.72070312 62.3359375 C-324.96067993 60.66313721 -324.96067993 60.66313721 -324.18530273 58.95654297 C-323.21977908 56.8298179 -322.25814148 54.70132284 -321.30102539 52.57080078 C-320.87362061 51.62962402 -320.44621582 50.68844727 -320.00585938 49.71875 C-319.63187012 48.88923828 -319.25788086 48.05972656 -318.87255859 47.20507812 C-317.82617188 45.1875 -317.82617188 45.1875 -315.82617188 43.1875 C-313.01367188 42.9375 -313.01367188 42.9375 -309.82617188 44.1875 C-308.39358037 46.51260059 -307.34662288 48.92139488 -306.23242188 51.4140625 C-302.68120406 58.41785319 -297.07448479 64.15638732 -289.82617188 67.1875 C-284.62695116 67.82600079 -281.15464184 67.16933486 -276.82617188 64.1875 C-272.76158386 59.1602464 -272.07450863 54.7184867 -272.32226562 48.30078125 C-274.49292424 34.88981293 -287.6318367 21.53522443 -298.04492188 13.46875 C-306.00544014 7.90729204 -313.02096977 5.11784159 -322.82617188 6.1875 C-333.62761928 8.15139953 -340.63725023 14.76236439 -348.38867188 22.125 C-349.31969727 22.99801758 -349.31969727 22.99801758 -350.26953125 23.88867188 C-357.14742088 30.36493291 -363.68733185 37.00553677 -369.82617188 44.1875 C-370.65117187 45.13496094 -371.47617187 46.08242187 -372.32617188 47.05859375 C-389.48192983 66.88061661 -407.10627518 90.41947509 -413.82617188 116.1875 C-414.02855469 116.86554688 -414.2309375 117.54359375 -414.43945312 118.2421875 C-419.19124628 136.9261089 -415.5432672 156.96800075 -405.93017578 173.43164062 C-386.47874529 204.36810416 -350.12336491 226.10935049 -316.42382812 238.0390625 C-313.82617188 239.1875 -313.82617188 239.1875 -311.82617188 242.1875 C-311.38940313 243.57107067 -310.99909136 244.96960592 -310.63867188 246.375 C-305.12964278 265.23177619 -295.09403093 281.84095321 -281.82617188 296.1875 C-281.11654297 296.96287109 -281.11654297 296.96287109 -280.39257812 297.75390625 C-273.04404153 305.69988484 -265.02831406 312.4583426 -255.82617188 318.1875 C-255.16617188 318.1875 -254.50617188 318.1875 -253.82617188 318.1875 C-253.49617187 351.5175 -253.16617188 384.8475 -252.82617188 419.1875 C-198.70617187 419.1875 -144.58617187 419.1875 -88.82617188 419.1875 C-89.05115889 386.39783831 -89.05115889 386.39783831 -89.42919922 353.60986328 C-89.42895508 347.24389648 -89.42895508 347.24389648 -89.41104126 344.25631714 C-89.41177883 342.18575446 -89.43995221 340.11508397 -89.49038696 338.0451355 C-89.87569207 321.01811339 -89.87569207 321.01811339 -86.47782135 316.32527924 C-83.24455627 313.20867905 -79.61997677 311.17614613 -75.62250137 309.1961937 C-53.71793071 296.89611047 -37.8821852 268.02101684 -30.99121094 244.68212891 C-30.03569947 241.65441517 -29.26375425 239.55652498 -26.80664062 237.484375 C-23.30475191 235.96061739 -19.80214549 234.44340935 -16.27514648 232.97851562 C18.29767248 218.5757981 54.34055033 196.26966546 69.74023438 160.5546875 C77.22846509 141.48209987 75.33907381 122.11694119 67.98632812 103.25 C53.87945093 71.44461737 23.30094338 24.73200247 -8.82617188 8.1875 C-9.44105469 7.85492188 -10.0559375 7.52234375 -10.68945312 7.1796875 C-29.92662248 -1.66224127 -45.74120859 12.9301149 -57.82617188 26.1875 Z " fill="#343433" transform="translate(426.826171875,43.8125)"/>
<path d="M0 0 C7.01539464 7.66019194 12.53350585 16.57398329 16.125 26.3203125 C16.44339844 27.17109375 16.76179687 28.021875 17.08984375 28.8984375 C22.39898408 46.02469664 20.07445927 65.49942104 12.01855469 81.2409668 C2.66478179 98.55411647 -11.97733686 109.39836908 -30.359375 115.33984375 C-47.9923791 120.25749267 -67.11984549 117.67729735 -83.13671875 109.0078125 C-99.58389335 98.87203585 -110.84323072 83.95950086 -115.875 65.3203125 C-119.83835977 47.61560321 -116.86738814 28.98300048 -107.84375 13.3828125 C-97.67499483 -2.4352511 -82.87019806 -13.73278896 -64.43359375 -18.15234375 C-63.58925781 -18.32636719 -62.74492187 -18.50039063 -61.875 -18.6796875 C-61.18535156 -18.82277344 -60.49570313 -18.96585938 -59.78515625 -19.11328125 C-37.86019976 -22.52195971 -16.04530556 -15.04247396 0 0 Z " fill="#FEE6D6" transform="translate(304.875,67.6796875)"/>
<path d="M0 0 C0 0.33 0 0.66 0 1 C-1.01964844 1.21140625 -2.03929688 1.4228125 -3.08984375 1.640625 C-7.606326 2.94883184 -10.27376066 5.49326673 -13.5625 8.75 C-14.18527832 9.34981689 -14.80805664 9.94963379 -15.44970703 10.56762695 C-17.6477648 12.69724315 -19.82378138 14.84807657 -22 17 C-22.88896973 17.86995605 -23.77793945 18.73991211 -24.69384766 19.63623047 C-27.11234363 22.00429805 -29.52498267 24.37782554 -31.93087769 26.75866699 C-33.33433958 28.14727006 -34.74049484 29.53314928 -36.14672852 30.91894531 C-42.20114732 36.96731794 -47.67096164 43.30969689 -53 50 C-54.28960701 51.54338999 -55.58096766 53.08531847 -56.875 54.625 C-69.33417867 70.37201748 -81.84927384 89.87206004 -85 110 C-85.26296875 111.60294922 -85.26296875 111.60294922 -85.53125 113.23828125 C-87.96360726 132.75794823 -84.76809845 150.83577282 -73 167 C-69.52415137 171.21914549 -65.86438132 175.13561868 -62 179 C-61.20722656 179.79277344 -60.41445313 180.58554688 -59.59765625 181.40234375 C-42.76276261 197.34087034 -21.14477778 207.04117171 0.25 215.1875 C0.92587158 215.45159668 1.60174316 215.71569336 2.2980957 215.98779297 C6.11103044 217.44002783 9.60010772 218.22422578 13.625 218.75 C15.9765625 219.421875 15.9765625 219.421875 18 221 C19.55340375 224.44350586 20.65427437 227.78775039 21.6875 231.41064453 C26.53769085 248.38298135 36.66554167 265.01358144 49.359375 277.32421875 C52 280 52 280 52 282 C52.56460938 282.24363281 53.12921875 282.48726563 53.7109375 282.73828125 C57.30642872 284.72009637 60.01221012 287.60626575 62.9765625 290.41796875 C65.78092845 292.97599297 65.78092845 292.97599297 68.4428463 294.3940134 C75.44248383 298.51534977 75.44248383 298.51534977 76.91060257 302.42490959 C77.23079227 305.35195872 77.23865607 308.1329635 77.13525391 311.07592773 C77.13645926 312.18693627 77.1376646 313.29794481 77.13890648 314.44262028 C77.13146504 318.02501086 77.05545819 321.60213982 76.9765625 325.18359375 C76.96185173 327.40040584 76.95165481 329.61725264 76.94604492 331.83410645 C76.89370683 340.03576882 76.7540927 348.23668663 76.625 356.4375 C76.41875 374.773125 76.2125 393.10875 76 412 C124.51 412 173.02 412 223 412 C223 379.66 223 347.32 223 314 C223.33 314 223.66 314 224 314 C224 346.67 224 379.34 224 413 C169.88 413 115.76 413 60 413 C59.67 379.67 59.34 346.34 59 312 C57.35 311.34 55.7 310.68 54 310 C29.51924853 293.70194812 10.98257493 268.98571123 2 241 C1.835 239.700625 1.67 238.40125 1.5 237.0625 C-0.96830264 232.02304877 -5.72895492 230.99744541 -10.75048828 228.94433594 C-43.51431812 215.19021245 -81.0716511 193.4779038 -97 160 C-105.65968713 138.33136584 -104.94495548 117.31337951 -95.8125 96 C-86.8005193 76.02612057 -74.44323126 58.40124507 -60 42 C-59.38769531 41.2884375 -58.77539062 40.576875 -58.14453125 39.84375 C-23.03803689 -0.84976366 -23.03803689 -0.84976366 0 0 Z " fill="#FCD1B5" transform="translate(114,50)"/>
<path d="M0 0 C7.01539464 7.66019194 12.53350585 16.57398329 16.125 26.3203125 C16.44339844 27.17109375 16.76179687 28.021875 17.08984375 28.8984375 C22.39898408 46.02469664 20.07445927 65.49942104 12.01855469 81.2409668 C2.66478179 98.55411647 -11.97733686 109.39836908 -30.359375 115.33984375 C-47.9923791 120.25749267 -67.11984549 117.67729735 -83.13671875 109.0078125 C-99.58389335 98.87203585 -110.84323072 83.95950086 -115.875 65.3203125 C-119.83835977 47.61560321 -116.86738814 28.98300048 -107.84375 13.3828125 C-97.67499483 -2.4352511 -82.87019806 -13.73278896 -64.43359375 -18.15234375 C-63.58925781 -18.32636719 -62.74492187 -18.50039063 -61.875 -18.6796875 C-61.18535156 -18.82277344 -60.49570313 -18.96585938 -59.78515625 -19.11328125 C-37.86019976 -22.52195971 -16.04530556 -15.04247396 0 0 Z M-89.875 8.3203125 C-102.40635022 22.70968829 -106.82504835 36.48105594 -105.875 55.3203125 C-104.34756498 70.55163637 -96.37878799 84.25990008 -84.87890625 94.14453125 C-70.38463861 104.64297998 -55.31773792 108.05971188 -37.5625 105.8203125 C-22.736434 102.70359206 -9.39176306 93.43412476 -1 80.9453125 C7.56282834 66.41320479 10.68698159 50.6209178 7 34.0078125 C2.69542723 19.21209493 -6.83156028 7.32100162 -19.875 -0.6796875 C-42.28234447 -12.97869082 -71.42807272 -9.91973335 -89.875 8.3203125 Z " fill="#353434" transform="translate(304.875,67.6796875)"/>
<path d="M0 0 C-2.51424201 2.0249841 -5.0365018 4.02755368 -7.61328125 5.97265625 C-20.13737629 15.66931449 -29.2628423 29.15264097 -32 45 C-32.28524909 48.2765932 -32.33385327 51.52472501 -32.3125 54.8125 C-32.30831055 55.69470215 -32.30412109 56.5769043 -32.29980469 57.48583984 C-32.18597309 64.06021998 -31.35283707 69.82762224 -29 76 C-28.73316406 76.82242188 -28.46632812 77.64484375 -28.19140625 78.4921875 C-23.3698087 92.24981251 -13.39817433 102.27108244 -1.16015625 109.6171875 C-0.44730469 110.07351562 0.26554687 110.52984375 1 111 C1 111.33 1 111.66 1 112 C-11.92892992 112 -23.703921 105.21088024 -32.96411133 96.49731445 C-44.20516317 85.06510816 -48.88174007 70.45708645 -49.25 54.75 C-49.09911072 39.54036036 -43.57341654 26.04509311 -33 15 C-23.53372182 6.72717809 -12.85472469 -0.24254198 0 0 Z " fill="#FCD1B4" transform="translate(248,61)"/>
</svg>
