<?xml version="1.0" encoding="UTF-8"?>
<svg version="1.1" xmlns="http://www.w3.org/2000/svg" width="512" height="512">
<path d="M0 0 C4.9698507 3.72017838 8.25572179 7.98608897 10 14 C10.39620046 17.80622599 10.35012797 21.57907074 10.29296875 25.40234375 C10.28872391 26.48004532 10.28447906 27.55774689 10.28010559 28.66810608 C10.26338719 32.09149746 10.22574683 35.5142882 10.1875 38.9375 C10.17244436 41.26626751 10.1587575 43.59504429 10.14648438 45.92382812 C10.11350593 51.6161149 10.06177019 57.3079558 10 63 C13.63 63 17.26 63 21 63 C20.9175 61.845 20.835 60.69 20.75 59.5 C20.76962201 53.95678126 22.66073148 49.53153716 26.42578125 45.45703125 C31.09082212 41.34649136 35.32083996 39.85234616 41.4375 39.6875 C47.04398458 39.28112394 49.04156982 37.86418184 53 34 C58.72039437 31.12007732 64.74244401 31.442396 71 32 C73.15625 32.78125 73.15625 32.78125 74.875 33.6875 C75.90625 34.120625 76.9375 34.55375 78 35 C79.66357521 34.31499844 81.32587248 33.61550891 82.921875 32.78515625 C88.71154239 30.59770673 95.73821084 31.18232336 101.3125 33.6875 C104.94545904 35.44016857 104.94545904 35.44016857 108.25 33.6875 C108.81332031 33.38972656 109.37664062 33.09195313 109.95703125 32.78515625 C115.73768461 30.56352848 122.79691385 31.21429865 128.375 33.6875 C129.57125 34.120625 130.7675 34.55375 132 35 C134.00334629 34.00672076 136.00293108 33.00584081 138 32 C144.37317779 31.11278267 150.9539988 30.80835079 156.625 34.1875 C161.65502402 38.01375759 164.33921748 41.89376082 166 48 C166.13474123 50.66787642 166.19197861 53.21646441 166.125 55.875 C166.11146484 56.90753906 166.11146484 56.90753906 166.09765625 57.9609375 C166.07432513 59.64077838 166.03846326 61.32043746 166 63 C169.3 63 172.6 63 176 63 C175.98428955 61.58783203 175.9685791 60.17566406 175.95239258 58.72070312 C175.8978983 53.45774081 175.86357894 48.19480323 175.83520508 42.93164062 C175.82016284 40.65816039 175.79972397 38.38470896 175.77368164 36.11132812 C175.73709779 32.83456289 175.72022752 29.55818294 175.70703125 26.28125 C175.68380547 24.76827332 175.68380547 24.76827332 175.66011047 23.22473145 C175.65843587 16.12707224 176.36129121 10.22167933 181.015625 4.5390625 C187.30348528 -0.84739124 192.35162585 -3.50250119 200.88671875 -3.25390625 C206.93834666 -2.52681602 212.81869352 -0.52974869 217 4 C222 12.42105263 222 12.42105263 222 17 C222.56460937 16.68675781 223.12921875 16.37351562 223.7109375 16.05078125 C230.29745788 13.02727616 237.0735013 13.73225124 243.75 16.05859375 C250.4472465 18.86074029 255.70465493 23.55545543 259.04296875 30.01953125 C260.70529383 34.1012027 261.3340661 37.5457854 261 42 C261.804375 42.04125 262.60875 42.0825 263.4375 42.125 C270.37194992 43.82819823 275.4644129 47.58961323 279.375 53.5625 C286.05661358 65.92348511 286.43304564 79.54821273 283.0390625 92.91796875 C280.17409463 101.41593737 274.28860001 108.3557 266.25 112.375 C264 113 264 113 261 113 C260.98582031 113.6290625 260.97164063 114.258125 260.95703125 114.90625 C260.48822295 123.31945846 257.82512048 128.62905622 251.625 134.3125 C243.84134767 140.40333242 236.76110415 140.88842201 227 140 C224.0703125 138.98046875 224.0703125 138.98046875 222 138 C221.9071875 139.2375 221.9071875 139.2375 221.8125 140.5 C220.45747731 146.33702084 217.73949031 150.56302974 213.125 154.375 C205.99238695 158.08395879 199.33115197 159.09619917 191.5625 156.9375 C186.51749743 155.09197769 182.32080806 152.24492433 179 148 C176.35743626 142.06590009 175.58058609 137.35688596 175.70703125 130.90625 C175.71127609 130.07411987 175.71552094 129.24198975 175.71989441 128.38464355 C175.73653693 125.75608407 175.77416024 123.12832333 175.8125 120.5 C175.82756556 118.70574033 175.84125067 116.9114685 175.85351562 115.1171875 C175.88639286 110.74448917 175.93807278 106.37237947 176 102 C172.7 102 169.4 102 166 102 C166.0515625 103.00546875 166.103125 104.0109375 166.15625 105.046875 C165.99170989 109.20973983 165.03799344 112.44464539 163.5 116.25 C163.23807861 116.92820801 162.97615723 117.60641602 162.70629883 118.30517578 C161.17746349 122.21470836 159.54421531 126.07112514 157.85546875 129.9140625 C157.49582031 130.7400293 157.13617188 131.56599609 156.765625 132.41699219 C156.06705837 134.00964817 155.35557373 135.59672528 154.62890625 137.17675781 C149.83331691 148.06595527 150.92081935 156.02529076 155 167 C155.29346313 167.79595581 155.58692627 168.59191162 155.88928223 169.4119873 C158.03140903 175.19640287 160.22351552 180.96122906 162.42419434 186.72357178 C173.07558511 214.67738187 183.28230753 242.54586833 189 272 C189.14405273 272.73605469 189.28810547 273.47210938 189.43652344 274.23046875 C196.25047006 311.02939536 187.95004379 348.4275062 167.23876953 379.26660156 C165.47816392 381.73020027 163.4993952 383.97845481 161.5 386.25 C157.76648726 390.69288016 157.04970944 394.43246551 156.40234375 400.11328125 C155.3048747 407.98735533 151.09345366 414.95466147 145 420 C139.25901841 423.40636125 133.33603819 426.22623296 126.9921875 428.328125 C122.50130919 429.98567227 119.51133375 432.69369854 116.0625 435.9375 C99.61850681 450.71981071 81.85856622 462.45488948 60 467 C59.278125 467.15082031 58.55625 467.30164063 57.8125 467.45703125 C55.86099325 467.77246876 53.97574647 467.91456231 52 468 C50.47826172 468.07734375 50.47826172 468.07734375 48.92578125 468.15625 C25.59476943 468.76159517 2.34068017 462.7528191 -19.41870117 454.7409668 C-23.08982905 453.42857662 -25.30255501 452.74356471 -29 454 C-30.83517054 454.97944495 -32.66828569 455.96340353 -34.48095703 456.98388672 C-62.09790481 472.48736572 -97.11428356 478.02290889 -128 470 C-146.09971516 464.69744475 -162.23101024 454.99181693 -171.58984375 438.13671875 C-178.98876973 423.32077651 -179.46717499 408.60780749 -179.43359375 392.41015625 C-179.43816916 390.45210085 -179.4434787 388.49404704 -179.44947815 386.53599548 C-179.45835231 382.45565213 -179.45605132 378.3755051 -179.44604492 374.29516602 C-179.43455743 369.1100365 -179.45479306 363.92558831 -179.48396206 358.74054813 C-179.50245505 354.70376911 -179.50200581 350.6671495 -179.49632454 346.63033867 C-179.49617295 344.7204944 -179.50208018 342.81063817 -179.51461601 340.90083504 C-179.6410805 318.4851645 -175.20751697 299.5743066 -159 283 C-146.40232615 271.78100454 -129.76531643 263.94453634 -112.5390625 264.71875 C-88.67284711 267.36239232 -65.83886818 275.86271134 -47.34765625 291.48046875 C-45.18510919 293.17640196 -45.18510919 293.17640196 -42.9921875 293.0234375 C-40.19983225 291.58893343 -38.29764429 289.6390331 -36.0625 287.4375 C-22.59369171 274.67854362 -6.47557538 267.55118696 12.08203125 267.86328125 C16.09174824 268.05115286 20.02143618 268.46952482 24 269 C23.84144531 268.35417969 23.68289062 267.70835937 23.51953125 267.04296875 C17.97713255 234.58034781 35.81110648 203.57038294 49.26757812 175.34082031 C55.23972279 163.54123832 55.23972279 163.54123832 54.2578125 150.859375 C52.25275805 146.38528655 49.49423152 143.38126792 46 140 C44.65428026 138.65822263 43.31071697 137.31428067 41.96875 135.96875 C41.24042969 135.24042969 40.51210937 134.51210937 39.76171875 133.76171875 C33.03125 127.03125 33.03125 127.03125 30.91870117 124.91308594 C29.75982361 123.75759993 28.59501488 122.6079619 27.41918945 121.46972656 C23.54722909 117.71158501 21.22578997 114.0776155 20.8203125 108.55078125 C20.81345409 106.36637695 20.89928805 104.18209218 21 102 C17.37 102 13.74 102 10 102 C10.02094727 103.13953125 10.04189453 104.2790625 10.06347656 105.453125 C10.13626614 109.70966869 10.18194042 113.96615814 10.21972656 118.22314453 C10.23975373 120.06015293 10.26698382 121.89709829 10.30175781 123.73388672 C10.35067065 126.38525002 10.37305763 129.03576541 10.390625 131.6875 C10.41127014 132.49928711 10.43191528 133.31107422 10.45318604 134.14746094 C10.45575295 140.77626898 8.59399477 145.85632539 4.359375 150.98828125 C-1.44170581 155.76150065 -7.20799662 158.63440665 -14.921875 158.28515625 C-23.47035034 157.11215118 -28.02052828 153.88986586 -33.25 147.0625 C-35.04412432 143.92278243 -35.65966603 141.57350669 -36 138 C-37.03060547 138.48146484 -37.03060547 138.48146484 -38.08203125 138.97265625 C-45.17983597 141.47161561 -53.59707732 141.11595941 -60.4375 138 C-67.69055799 133.75314368 -72.28322829 128.14279908 -74.578125 120.0546875 C-75.0705391 117.65644844 -75.23609554 115.43965393 -75 113 C-75.86625 112.9175 -76.7325 112.835 -77.625 112.75 C-84.8656036 111.14097698 -89.90548032 105.96289274 -94 100 C-99.76585487 87.91254521 -100.48094984 74.85413249 -97 62 C-94.22052625 54.56273625 -90.12404584 47.95212517 -83.1015625 43.90625 C-80.28264395 42.62167952 -78.11077435 42 -75 42 C-74.99742187 41.38253906 -74.99484375 40.76507813 -74.9921875 40.12890625 C-74.63022493 32.20192599 -71.93819772 27.15583497 -66.515625 21.43359375 C-61.0732594 16.5325387 -54.31271621 13.95967252 -47 14 C-43.17668698 14.55756648 -39.46964822 15.26517589 -36 17 C-35.938125 16.175 -35.87625 15.35 -35.8125 14.5 C-34.45747731 8.66297916 -31.73949031 4.43697026 -27.125 0.625 C-18.2301114 -4.00034207 -8.98272265 -4.56393269 0 0 Z " fill="#F1BA7F" transform="translate(209,21)"/>
<path d="M0 0 C4.9698507 3.72017838 8.25572179 7.98608897 10 14 C10.39620046 17.80622599 10.35012797 21.57907074 10.29296875 25.40234375 C10.28872391 26.48004532 10.28447906 27.55774689 10.28010559 28.66810608 C10.26338719 32.09149746 10.22574683 35.5142882 10.1875 38.9375 C10.17244436 41.26626751 10.1587575 43.59504429 10.14648438 45.92382812 C10.11350593 51.6161149 10.06177019 57.3079558 10 63 C13.63 63 17.26 63 21 63 C20.9175 61.845 20.835 60.69 20.75 59.5 C20.76962201 53.95678126 22.66073148 49.53153716 26.42578125 45.45703125 C31.09082212 41.34649136 35.32083996 39.85234616 41.4375 39.6875 C47.04398458 39.28112394 49.04156982 37.86418184 53 34 C58.72039437 31.12007732 64.74244401 31.442396 71 32 C73.15625 32.78125 73.15625 32.78125 74.875 33.6875 C75.90625 34.120625 76.9375 34.55375 78 35 C79.66357521 34.31499844 81.32587248 33.61550891 82.921875 32.78515625 C88.71154239 30.59770673 95.73821084 31.18232336 101.3125 33.6875 C104.94545904 35.44016857 104.94545904 35.44016857 108.25 33.6875 C108.81332031 33.38972656 109.37664062 33.09195313 109.95703125 32.78515625 C115.73768461 30.56352848 122.79691385 31.21429865 128.375 33.6875 C129.57125 34.120625 130.7675 34.55375 132 35 C134.00334629 34.00672076 136.00293108 33.00584081 138 32 C144.37317779 31.11278267 150.9539988 30.80835079 156.625 34.1875 C161.65502402 38.01375759 164.33921748 41.89376082 166 48 C166.13474123 50.66787642 166.19197861 53.21646441 166.125 55.875 C166.11146484 56.90753906 166.11146484 56.90753906 166.09765625 57.9609375 C166.07432513 59.64077838 166.03846326 61.32043746 166 63 C169.3 63 172.6 63 176 63 C175.98428955 61.58783203 175.9685791 60.17566406 175.95239258 58.72070312 C175.8978983 53.45774081 175.86357894 48.19480323 175.83520508 42.93164062 C175.82016284 40.65816039 175.79972397 38.38470896 175.77368164 36.11132812 C175.73709779 32.83456289 175.72022752 29.55818294 175.70703125 26.28125 C175.68380547 24.76827332 175.68380547 24.76827332 175.66011047 23.22473145 C175.65843587 16.12707224 176.36129121 10.22167933 181.015625 4.5390625 C187.30348528 -0.84739124 192.35162585 -3.50250119 200.88671875 -3.25390625 C206.93834666 -2.52681602 212.81869352 -0.52974869 217 4 C222 12.42105263 222 12.42105263 222 17 C222.56460937 16.68675781 223.12921875 16.37351562 223.7109375 16.05078125 C230.29745788 13.02727616 237.0735013 13.73225124 243.75 16.05859375 C250.4472465 18.86074029 255.70465493 23.55545543 259.04296875 30.01953125 C260.70529383 34.1012027 261.3340661 37.5457854 261 42 C261.804375 42.04125 262.60875 42.0825 263.4375 42.125 C270.37194992 43.82819823 275.4644129 47.58961323 279.375 53.5625 C286.05661358 65.92348511 286.43304564 79.54821273 283.0390625 92.91796875 C280.17409463 101.41593737 274.28860001 108.3557 266.25 112.375 C264 113 264 113 261 113 C260.98582031 113.6290625 260.97164063 114.258125 260.95703125 114.90625 C260.48822295 123.31945846 257.82512048 128.62905622 251.625 134.3125 C243.84134767 140.40333242 236.76110415 140.88842201 227 140 C224.0703125 138.98046875 224.0703125 138.98046875 222 138 C221.9071875 139.2375 221.9071875 139.2375 221.8125 140.5 C220.45747731 146.33702084 217.73949031 150.56302974 213.125 154.375 C205.99238695 158.08395879 199.33115197 159.09619917 191.5625 156.9375 C186.51749743 155.09197769 182.32080806 152.24492433 179 148 C176.35743626 142.06590009 175.58058609 137.35688596 175.70703125 130.90625 C175.71127609 130.07411987 175.71552094 129.24198975 175.71989441 128.38464355 C175.73653693 125.75608407 175.77416024 123.12832333 175.8125 120.5 C175.82756556 118.70574033 175.84125067 116.9114685 175.85351562 115.1171875 C175.88639286 110.74448917 175.93807278 106.37237947 176 102 C172.7 102 169.4 102 166 102 C166.0515625 103.00546875 166.103125 104.0109375 166.15625 105.046875 C165.99170989 109.20973983 165.03799344 112.44464539 163.5 116.25 C163.23807861 116.92820801 162.97615723 117.60641602 162.70629883 118.30517578 C161.17746349 122.21470836 159.54421531 126.07112514 157.85546875 129.9140625 C157.49582031 130.7400293 157.13617188 131.56599609 156.765625 132.41699219 C156.06705837 134.00964817 155.35557373 135.59672528 154.62890625 137.17675781 C149.83331691 148.06595527 150.92081935 156.02529076 155 167 C155.29346313 167.79595581 155.58692627 168.59191162 155.88928223 169.4119873 C158.03140903 175.19640287 160.22351552 180.96122906 162.42419434 186.72357178 C173.07558511 214.67738187 183.28230753 242.54586833 189 272 C189.14405273 272.73605469 189.28810547 273.47210938 189.43652344 274.23046875 C196.25047006 311.02939536 187.95004379 348.4275062 167.23876953 379.26660156 C165.47816392 381.73020027 163.4993952 383.97845481 161.5 386.25 C157.76648726 390.69288016 157.04970944 394.43246551 156.40234375 400.11328125 C155.3048747 407.98735533 151.09345366 414.95466147 145 420 C139.25901841 423.40636125 133.33603819 426.22623296 126.9921875 428.328125 C122.50130919 429.98567227 119.51133375 432.69369854 116.0625 435.9375 C99.61850681 450.71981071 81.85856622 462.45488948 60 467 C59.278125 467.15082031 58.55625 467.30164063 57.8125 467.45703125 C55.86099325 467.77246876 53.97574647 467.91456231 52 468 C50.47826172 468.07734375 50.47826172 468.07734375 48.92578125 468.15625 C25.59476943 468.76159517 2.34068017 462.7528191 -19.41870117 454.7409668 C-23.08982905 453.42857662 -25.30255501 452.74356471 -29 454 C-30.83517054 454.97944495 -32.66828569 455.96340353 -34.48095703 456.98388672 C-62.09790481 472.48736572 -97.11428356 478.02290889 -128 470 C-146.09971516 464.69744475 -162.23101024 454.99181693 -171.58984375 438.13671875 C-178.98876973 423.32077651 -179.46717499 408.60780749 -179.43359375 392.41015625 C-179.43816916 390.45210085 -179.4434787 388.49404704 -179.44947815 386.53599548 C-179.45835231 382.45565213 -179.45605132 378.3755051 -179.44604492 374.29516602 C-179.43455743 369.1100365 -179.45479306 363.92558831 -179.48396206 358.74054813 C-179.50245505 354.70376911 -179.50200581 350.6671495 -179.49632454 346.63033867 C-179.49617295 344.7204944 -179.50208018 342.81063817 -179.51461601 340.90083504 C-179.6410805 318.4851645 -175.20751697 299.5743066 -159 283 C-146.40232615 271.78100454 -129.76531643 263.94453634 -112.5390625 264.71875 C-88.67284711 267.36239232 -65.83886818 275.86271134 -47.34765625 291.48046875 C-45.18510919 293.17640196 -45.18510919 293.17640196 -42.9921875 293.0234375 C-40.19983225 291.58893343 -38.29764429 289.6390331 -36.0625 287.4375 C-22.59369171 274.67854362 -6.47557538 267.55118696 12.08203125 267.86328125 C16.09174824 268.05115286 20.02143618 268.46952482 24 269 C23.84144531 268.35417969 23.68289062 267.70835937 23.51953125 267.04296875 C17.97713255 234.58034781 35.81110648 203.57038294 49.26757812 175.34082031 C55.23972279 163.54123832 55.23972279 163.54123832 54.2578125 150.859375 C52.25275805 146.38528655 49.49423152 143.38126792 46 140 C44.65428026 138.65822263 43.31071697 137.31428067 41.96875 135.96875 C41.24042969 135.24042969 40.51210937 134.51210937 39.76171875 133.76171875 C33.03125 127.03125 33.03125 127.03125 30.91870117 124.91308594 C29.75982361 123.75759993 28.59501488 122.6079619 27.41918945 121.46972656 C23.54722909 117.71158501 21.22578997 114.0776155 20.8203125 108.55078125 C20.81345409 106.36637695 20.89928805 104.18209218 21 102 C17.37 102 13.74 102 10 102 C10.02094727 103.13953125 10.04189453 104.2790625 10.06347656 105.453125 C10.13626614 109.70966869 10.18194042 113.96615814 10.21972656 118.22314453 C10.23975373 120.06015293 10.26698382 121.89709829 10.30175781 123.73388672 C10.35067065 126.38525002 10.37305763 129.03576541 10.390625 131.6875 C10.41127014 132.49928711 10.43191528 133.31107422 10.45318604 134.14746094 C10.45575295 140.77626898 8.59399477 145.85632539 4.359375 150.98828125 C-1.44170581 155.76150065 -7.20799662 158.63440665 -14.921875 158.28515625 C-23.47035034 157.11215118 -28.02052828 153.88986586 -33.25 147.0625 C-35.04412432 143.92278243 -35.65966603 141.57350669 -36 138 C-37.03060547 138.48146484 -37.03060547 138.48146484 -38.08203125 138.97265625 C-45.17983597 141.47161561 -53.59707732 141.11595941 -60.4375 138 C-67.69055799 133.75314368 -72.28322829 128.14279908 -74.578125 120.0546875 C-75.0705391 117.65644844 -75.23609554 115.43965393 -75 113 C-75.86625 112.9175 -76.7325 112.835 -77.625 112.75 C-84.8656036 111.14097698 -89.90548032 105.96289274 -94 100 C-99.76585487 87.91254521 -100.48094984 74.85413249 -97 62 C-94.22052625 54.56273625 -90.12404584 47.95212517 -83.1015625 43.90625 C-80.28264395 42.62167952 -78.11077435 42 -75 42 C-74.99742187 41.38253906 -74.99484375 40.76507813 -74.9921875 40.12890625 C-74.63022493 32.20192599 -71.93819772 27.15583497 -66.515625 21.43359375 C-61.0732594 16.5325387 -54.31271621 13.95967252 -47 14 C-43.17668698 14.55756648 -39.46964822 15.26517589 -36 17 C-35.938125 16.175 -35.87625 15.35 -35.8125 14.5 C-34.45747731 8.66297916 -31.73949031 4.43697026 -27.125 0.625 C-18.2301114 -4.00034207 -8.98272265 -4.56393269 0 0 Z M58 49 C57.54507273 51.11311639 57.54507273 51.11311639 57.61523438 53.58569336 C57.60512329 54.53685532 57.59501221 55.48801727 57.58459473 56.46800232 C57.58761597 57.49820999 57.59063721 58.52841766 57.59375 59.58984375 C57.57749573 61.17304161 57.57749573 61.17304161 57.56091309 62.78822327 C57.52653509 66.17137764 57.51103382 69.55419359 57.5 72.9375 C57.48547473 77.38444253 57.45186195 81.83062366 57.40625 86.27734375 C57.40927124 87.30552719 57.41229248 88.33371063 57.41540527 89.39305115 C57.40529419 90.34736526 57.39518311 91.30167938 57.38476562 92.28491211 C57.38271118 93.12493271 57.38065674 93.96495331 57.37854004 94.83042908 C56.91450518 97.49000648 56.11469022 98.37177059 54 100 C52.00708008 100.43237305 52.00708008 100.43237305 49.76953125 100.51171875 C48.96708984 100.54716797 48.16464844 100.58261719 47.33789062 100.61914062 C46.50451172 100.64169922 45.67113281 100.66425781 44.8125 100.6875 C43.96751953 100.72166016 43.12253906 100.75582031 42.25195312 100.79101562 C40.16843351 100.87341471 38.08423784 100.93838645 36 101 C35.44808844 106.74317179 35.44808844 106.74317179 37.90625 111.72265625 C38.7621875 112.49480469 39.618125 113.26695312 40.5 114.0625 C41.41652344 114.90941406 42.33304688 115.75632812 43.27734375 116.62890625 C45.53296043 118.59326683 47.79313896 120.55155871 50.0625 122.5 C59.09136987 130.28602949 68.58132092 140.45119851 70.40625 152.734375 C70.88934347 168.27388164 63.50017369 181.30255255 56.61206055 194.76708984 C51.43632234 204.94183765 46.98746041 215.30654716 43 226 C42.71479492 226.74797852 42.42958984 227.49595703 42.13574219 228.26660156 C37.17860017 241.57643708 34.84674696 257.32813754 40.1875 270.875 C41.8062518 274.14033313 43.65650169 276.99157363 45.875 279.875 C48 283 48 283 48 286.3125 C47 289 47 289 44 291 C39.08478326 291.53620546 36.0373432 290.34506649 31.6875 288.125 C20.50549239 282.77379094 8.35145181 280.51119202 -3.75 284.625 C-14.6751079 289.21578472 -23.3016259 295.91862043 -31.3828125 304.54296875 C-32.14335937 305.35378906 -32.90390625 306.16460937 -33.6875 307 C-34.35136719 307.7425 -35.01523438 308.485 -35.69921875 309.25 C-38.91583884 311.69659728 -40.96390386 312.08633361 -45 312 C-47.56921315 310.33183791 -49.52929024 308.79710179 -51.75 306.75 C-69.44198821 291.58608015 -93.29527707 278.98685773 -117.12890625 279.71484375 C-131.907395 281.18263923 -143.32091528 288.35185296 -153.04296875 299.30078125 C-161.71649417 310.00860901 -164.32050675 319.65517084 -164.1953125 333.27734375 C-164.1924826 334.4438295 -164.18965271 335.61031525 -164.18673706 336.81214905 C-164.17558388 340.52070576 -164.15048786 344.22901685 -164.125 347.9375 C-164.11496393 350.45898088 -164.10583918 352.98046555 -164.09765625 355.50195312 C-164.07566044 361.6680519 -164.04223118 367.83400839 -164 374 C-162.25656377 374.80407607 -160.51184715 375.60537631 -158.76660156 376.40551758 C-157.30942719 377.07530388 -157.30942719 377.07530388 -155.82281494 377.75862122 C-129.44660727 389.35798755 -95.81398275 389.75851713 -68.91064453 379.86376953 C-64.94198875 378.27993957 -61.00953161 376.64764486 -57.12817383 374.85961914 C-49.0716467 371.21465397 -49.0716467 371.21465397 -44 373 C-42 375 -42 375 -41.375 378.3125 C-42 382 -42 382 -45 384.5625 C-64.6771038 395.13112112 -86.89283402 399.43097651 -109 399.375 C-110.15669693 399.37468277 -110.15669693 399.37468277 -111.33676147 399.37435913 C-127.92669956 399.329005 -142.86758657 397.06416321 -158.34765625 390.953125 C-161.00080759 389.83091023 -161.00080759 389.83091023 -164 390 C-164.05883728 393.47909371 -164.09387399 396.95805674 -164.125 400.4375 C-164.14175781 401.41138672 -164.15851563 402.38527344 -164.17578125 403.38867188 C-164.26850596 417.25101647 -160.42177292 429.99558802 -151.30078125 440.6796875 C-147.26839854 444.74630096 -142.84579251 447.96874228 -138 451 C-136.99259766 451.63228516 -136.99259766 451.63228516 -135.96484375 452.27734375 C-115.18819915 463.22328971 -83.49258272 459.56024257 -61.93188477 452.99829102 C-51.92166166 449.75124542 -42.45247868 445.51913577 -34.0625 439.0625 C-30.40321936 436.5980865 -29.33505996 436.5530866 -25 437 C-21.72166597 438.00998215 -18.56099459 439.29496928 -15.375 440.5625 C-6.42620293 443.97525486 2.57958383 446.63653957 11.875 448.9375 C13.05658691 449.23148682 14.23817383 449.52547363 15.45556641 449.82836914 C37.95771478 455.26308724 61.11494121 455.10818444 81.51171875 442.95703125 C89.9665983 437.73298042 97.91587383 431.89872624 105.12890625 425.04296875 C112.0283768 418.61303304 118.05283738 414.5060703 127.22680664 411.96240234 C132.10700574 410.57897501 134.72947177 408.86516972 138 405 C138.5254541 404.42088867 139.0509082 403.84177734 139.59228516 403.24511719 C141.44403838 400.29181808 141.46534486 397.95181264 141.71484375 394.48828125 C142.72154007 386.50595381 145.85087362 381.55938325 150.5625 375.1875 C152.02636571 373.09630978 153.48470551 371.00124049 154.9375 368.90234375 C155.64003906 367.89413574 156.34257812 366.88592773 157.06640625 365.84716797 C175.40960572 338.83726996 180.42156814 308.51633604 174.52587891 276.74609375 C174.35233887 275.83988281 174.17879883 274.93367187 174 274 C173.82259277 273.06285156 173.64518555 272.12570312 173.46240234 271.16015625 C168.54390283 246.02950226 159.82027713 221.99829418 150.7734375 198.109375 C150.31939545 196.90512878 149.86535339 195.70088257 149.39755249 194.46014404 C147.12629027 188.4388682 144.83459493 182.42705244 142.50341797 176.42871094 C141.65258343 174.1923375 140.80245463 171.9556954 139.953125 169.71875 C139.55370697 168.71374451 139.15428894 167.70873901 138.74276733 166.67327881 C135.04141334 156.80567804 134.76242606 147.45831428 138.4375 137.5625 C138.68687317 136.848022 138.93624634 136.13354401 139.19317627 135.39741516 C140.66566573 131.29404185 142.24943525 127.38906993 144.2902832 123.53369141 C151.57507984 109.38358203 152.2229037 96.47530305 151.84375 80.74536133 C151.76439335 77.41630859 151.72592457 74.09257232 151.7127037 70.76299 C151.69731169 67.55656344 151.65377776 64.35066963 151.609375 61.14453125 C151.59662537 59.95205276 151.58387573 58.75957428 151.57073975 57.53096008 C151.54191711 56.43768906 151.51309448 55.34441803 151.48339844 54.21801758 C151.46291443 53.25543533 151.44243042 52.29285309 151.42132568 51.30110168 C151.28228821 50.54173813 151.14325073 49.78237457 151 49 C147.32653229 46.55102153 145.33643601 46.68462284 141 47 C138.34834667 49.65165333 138.75540583 51.61547351 138.72354126 55.22262573 C138.72503677 56.50074631 138.72503677 56.50074631 138.7265625 57.8046875 C138.70627174 59.60287079 138.68542092 61.40104783 138.6640625 63.19921875 C138.64145863 66.03895328 138.62499291 68.87844136 138.61914062 71.71826172 C138.60962351 74.45585895 138.57585286 77.19233999 138.5390625 79.9296875 C138.54410797 80.77771942 138.54915344 81.62575134 138.55435181 82.4994812 C138.45626394 88.37201732 138.45626394 88.37201732 136.15771484 91.53564453 C133.21862301 93.53028957 131.47588428 93.59163988 128 93 C125.99503345 91.22941853 125.11117814 89.76622575 124.72509766 87.10540771 C124.60541895 84.70924053 124.5852027 82.32882922 124.59375 79.9296875 C124.58291382 79.05224884 124.57207764 78.17481018 124.56091309 77.27078247 C124.51502877 73.52090768 124.50352615 69.77110166 124.48876953 66.02099609 C124.4731288 63.28197216 124.44014812 60.54353623 124.40625 57.8046875 C124.40927124 56.95260712 124.41229248 56.10052673 124.41540527 55.22262573 C124.41623723 52.58896041 124.41623723 52.58896041 124 49 C120.32653229 46.55102153 118.33643601 46.68462284 114 47 C111.54921174 49.45078826 111.74633823 50.11269443 111.72875977 53.47802734 C111.71857315 54.40594086 111.70838654 55.33385437 111.69789124 56.28988647 C111.69575119 57.29508331 111.69361115 58.30028015 111.69140625 59.3359375 C111.66624568 61.45312775 111.64084766 63.57031518 111.61523438 65.6875 C111.58647698 69.03417228 111.5624675 72.38079569 111.54370117 75.72753906 C111.52207228 78.95143176 111.48263167 82.17474464 111.44140625 85.3984375 C111.44129044 86.39958588 111.44117462 87.40073425 111.4410553 88.43222046 C111.42771652 89.36643829 111.41437775 90.30065613 111.40063477 91.26318359 C111.39556412 92.08321869 111.39049347 92.90325378 111.38526917 93.74813843 C110.90115419 96.57774435 109.99677518 97.95431238 108 100 C104.5 100.5 104.5 100.5 101 100 C98.25023221 97.18287468 97.62336591 95.14462006 97.59936523 91.26318359 C97.58602646 90.32896576 97.57268768 89.39474792 97.5589447 88.43222046 C97.55877098 86.93049789 97.55877098 86.93049789 97.55859375 85.3984375 C97.53878197 83.84922104 97.53878197 83.84922104 97.51856995 82.26870728 C97.47766874 78.97077718 97.45599372 75.67312648 97.4375 72.375 C97.41374759 69.06981667 97.38570197 65.76489783 97.34571838 62.45986938 C97.32127825 60.40330226 97.30648746 58.34659416 97.30210876 56.28988647 C97.28682884 54.8980162 97.28682884 54.8980162 97.27124023 53.47802734 C97.26696518 52.65958344 97.26269012 51.84113953 97.25828552 50.99789429 C97.17697385 48.7698996 97.17697385 48.7698996 95 47 C93.08993694 46.6823754 93.08993694 46.6823754 91 46.75 C90.29875 46.74484375 89.5975 46.7396875 88.875 46.734375 C86.7564331 46.84294485 86.7564331 46.84294485 85 49 C84.79046567 51.96290225 84.69885258 54.83985599 84.69140625 57.8046875 C84.66624451 59.6028678 84.64084651 61.40104481 84.61523438 63.19921875 C84.58648877 66.03889096 84.56247682 68.87850591 84.54370117 71.71826172 C84.52205093 74.45570834 84.48260879 77.19247561 84.44140625 79.9296875 C84.44129044 80.77771942 84.44117462 81.62575134 84.4410553 82.4994812 C84.3822544 85.99996612 84.3141076 88.39147145 82.69116211 91.53564453 C81 93 81 93 77.5 93.5 C74 93 74 93 72.30883789 91.53564453 C70.34365874 87.72845359 70.55917095 84.15614669 70.55859375 79.9296875 C70.53878197 78.61352951 70.53878197 78.61352951 70.51856995 77.27078247 C70.47770988 74.47215563 70.45600524 71.67385755 70.4375 68.875 C70.41373746 66.06910046 70.38568138 63.26351166 70.34571838 60.45779419 C70.32130155 58.71284832 70.3064917 56.96773693 70.30210876 55.22262573 C70.45184628 50.63347744 70.45184628 50.63347744 68 47 C63.66356399 46.68462284 61.67346771 46.55102153 58 49 Z " fill="#010101" transform="translate(209,21)"/>
<path d="M0 0 C4.35554083 0.68771697 5.97606417 2.19058392 8.5625 5.5625 C11.00352895 9.49195184 13.18500346 13.5515891 15.375 17.625 C16.69392171 20.04646012 18.0190675 22.46450024 19.34375 24.8828125 C19.68420853 25.50629074 20.02466705 26.12976898 20.3754425 26.7721405 C24.61616909 34.52236995 29.02588408 42.17565705 33.42959595 49.83401489 C34.41859605 51.55431231 35.40658484 53.275191 36.39453125 54.99609375 C36.95889893 55.97634521 37.5232666 56.95659668 38.10473633 57.96655273 C38.58579834 58.82321533 39.06686035 59.67987793 39.5625 60.5625 C39.96041748 61.26383057 40.35833496 61.96516113 40.76831055 62.68774414 C42.10715997 65.848219 41.38768822 68.32068912 40.5625 71.5625 C38.28588278 73.84960854 36.99723287 74.51696234 33.765625 74.85546875 C32.79109375 74.82066406 31.8165625 74.78585937 30.8125 74.75 C29.33523438 74.70939453 29.33523438 74.70939453 27.828125 74.66796875 C27.08046875 74.63316406 26.3328125 74.59835937 25.5625 74.5625 C25.56526538 75.21333683 25.56803076 75.86417366 25.57087994 76.53473282 C25.63711693 92.36696411 25.6867694 108.19914724 25.71793652 124.0314827 C25.7334091 131.68786849 25.75450602 139.34416183 25.78881836 147.00048828 C25.81870883 153.67331305 25.83807216 160.34607086 25.84476548 167.01896071 C25.84867837 170.55262397 25.8578821 174.08609567 25.87969017 177.61969757 C25.90383106 181.5632335 25.90447021 185.50658157 25.90307617 189.45019531 C25.913862 190.623358 25.92464783 191.79652069 25.9357605 193.00523376 C25.93163651 194.07932999 25.92751251 195.15342621 25.92326355 196.2600708 C25.92602893 197.1929253 25.92879431 198.1257798 25.93164349 199.08690262 C25.49205453 202.03493042 24.5795277 203.40002181 22.5625 205.5625 C18.64534173 207.04674603 14.43000544 206.74276572 10.2890625 206.765625 C9.48769867 206.77132507 8.68633484 206.77702515 7.86068726 206.78289795 C6.16788038 206.79232771 4.47505531 206.79887388 2.78222656 206.80273438 C0.20344793 206.81243998 -2.37453323 206.84348169 -4.953125 206.875 C-6.60155779 206.88153083 -8.24999625 206.88678099 -9.8984375 206.890625 C-11.04715836 206.9091452 -11.04715836 206.9091452 -12.21908569 206.92803955 C-16.99258635 206.9083452 -20.33372664 206.26770994 -24.4375 203.5625 C-25.4414777 200.5505669 -25.56088573 198.56515532 -25.55775452 195.41828918 C-25.55912918 194.35398178 -25.56050385 193.28967438 -25.56192017 192.19311523 C-25.55832489 191.02570801 -25.55472961 189.85830078 -25.55102539 188.65551758 C-25.55117142 187.42612961 -25.55131744 186.19674164 -25.5514679 184.93009949 C-25.55089016 181.55845988 -25.54587112 178.18688134 -25.53889394 174.81525254 C-25.53264726 171.29185048 -25.53205556 167.76844763 -25.53086853 164.24504089 C-25.5277591 157.5727647 -25.51955092 150.90050488 -25.50951904 144.2282359 C-25.49834588 136.63218253 -25.49284442 129.03612838 -25.48782361 121.44006884 C-25.477368 105.81420308 -25.45977605 90.18835365 -25.4375 74.5625 C-26.2011084 74.58207764 -26.9647168 74.60165527 -27.75146484 74.62182617 C-28.74871582 74.63705322 -29.7459668 74.65228027 -30.7734375 74.66796875 C-31.7639209 74.68754639 -32.7544043 74.70712402 -33.77490234 74.72729492 C-36.4375 74.5625 -36.4375 74.5625 -39.0625 72.875 C-40.5999519 70.28928545 -41.12676225 68.55170967 -41.4375 65.5625 C-40.64453125 63.1875 -40.64453125 63.1875 -39.25 60.5625 C-38.68667969 59.5003125 -38.12335938 58.438125 -37.54296875 57.34375 C-34.07743088 51.07776044 -30.52695497 44.8603518 -26.9453125 38.66015625 C-24.71636357 34.79918305 -22.50943666 30.92689549 -20.3230896 27.04171753 C-18.8862606 24.48865751 -17.44451091 21.93838993 -16.00262451 19.38818359 C-15.29700692 18.13731054 -14.59356675 16.88520651 -13.89239502 15.63183594 C-12.90307228 13.86443332 -11.90481268 12.1020424 -10.90625 10.33984375 C-10.33326172 9.32140381 -9.76027344 8.30296387 -9.16992188 7.25366211 C-6.5352555 3.16094404 -4.90768253 0.80307532 0 0 Z " fill="#010000" transform="translate(452.4375,201.4375)"/>
<path d="M0 0 C3.97197013 2.67775458 6.09144594 5.36868642 8.34765625 9.55859375 C9.24689819 11.20613647 9.24689819 11.20613647 10.16430664 12.88696289 C10.79705438 14.07046638 11.42978513 15.25397894 12.0625 16.4375 C12.72323788 17.65361524 13.38528033 18.86902254 14.04858398 20.08374023 C15.05725096 21.93099676 16.06527956 23.77855737 17.06947327 25.62825012 C20.15863121 31.31620622 23.34252502 36.9475878 26.5625 42.5625 C27.2577478 43.78054321 27.2577478 43.78054321 27.96704102 45.02319336 C30.82196107 50.00729389 33.76279692 54.92992522 36.77490234 59.82080078 C38.34949063 62.62167265 39.07501418 64.77439046 39 68 C36.86956522 72.56521739 36.86956522 72.56521739 34 74 C32.12620395 74.07033769 30.24998898 74.0843022 28.375 74.0625 C26.87066406 74.04896484 26.87066406 74.04896484 25.3359375 74.03515625 C24.56507812 74.02355469 23.79421875 74.01195313 23 74 C23.00460896 74.64991504 23.00921793 75.29983007 23.01396656 75.96943951 C23.1244014 91.78529791 23.2071347 107.60102216 23.25906086 123.41717052 C23.28483964 131.06577083 23.31998351 138.71411374 23.37719727 146.36254883 C23.42704274 153.02915837 23.4592934 159.6955815 23.47044247 166.36237222 C23.47695948 169.89230541 23.49226815 173.4217053 23.52865028 176.95146751 C23.56894146 180.89246978 23.56994867 184.83295093 23.56762695 188.77416992 C23.58560333 189.94373734 23.60357971 191.11330475 23.62210083 192.3183136 C23.5718066 200.18786771 23.5718066 200.18786771 20.73027039 204.22367859 C18.07190851 205.95321613 16.85608436 206.62936502 13.74804688 206.64697266 C12.94371216 206.66273346 12.13937744 206.67849426 11.31066895 206.69473267 C10.45533569 206.68461151 9.60000244 206.67449036 8.71875 206.6640625 C7.82764526 206.66884613 6.93654053 206.67362976 6.01843262 206.67855835 C4.13906076 206.68195272 2.2596295 206.67278262 0.38037109 206.65185547 C-2.49125198 206.62508156 -5.35896679 206.65161711 -8.23046875 206.68359375 C-10.05990443 206.68028957 -11.88933769 206.67388316 -13.71875 206.6640625 C-14.57408325 206.67418365 -15.4294165 206.68430481 -16.31066895 206.69473267 C-17.51717102 206.67109146 -17.51717102 206.67109146 -18.74804688 206.64697266 C-19.45022339 206.64299469 -20.1523999 206.63901672 -20.87585449 206.63491821 C-24.52922201 205.54290753 -25.7951029 204.1315975 -28 201 C-28.72811215 196.92604295 -28.63107826 192.90239695 -28.56762695 188.77416992 C-28.56835709 187.53473633 -28.56908722 186.29530273 -28.56983948 185.01831055 C-28.56695638 181.62761886 -28.5419156 178.23845659 -28.50696969 174.84803557 C-28.4756744 171.30200076 -28.47277299 167.7559447 -28.46684265 164.20979309 C-28.45131338 157.49843791 -28.41029784 150.78749084 -28.3600952 144.07631522 C-28.30417279 136.43432262 -28.27670804 128.79231035 -28.25161803 121.15016401 C-28.19938076 105.43320646 -28.1114569 89.7166559 -28 74 C-28.83362061 74.02392822 -29.66724121 74.04785645 -30.52612305 74.07250977 C-32.15868042 74.10042603 -32.15868042 74.10042603 -33.82421875 74.12890625 C-34.90533936 74.15283447 -35.98645996 74.1767627 -37.1003418 74.20141602 C-40 74 -40 74 -42.8125 71.9375 C-44.30921615 68.2350969 -44.12282919 65.73675206 -43 62 C-41.12077288 57.99394875 -38.91334709 54.19688662 -36.6875 50.375 C-36.05956543 49.27631592 -35.43163086 48.17763184 -34.78466797 47.0456543 C-33.49161306 44.78566029 -32.19374295 42.52841461 -30.89111328 40.27392578 C-28.62053999 36.34307272 -26.3748008 32.39841947 -24.12988281 28.45288086 C-22.65865495 25.87154903 -21.17980663 23.29472197 -19.69921875 20.71875 C-17.97173819 17.70955092 -16.26502829 14.69054321 -14.58203125 11.65625 C-14.21577637 11.00035889 -13.84952148 10.34446777 -13.47216797 9.66870117 C-12.51694034 7.95501649 -11.56869676 6.2374438 -10.62109375 4.51953125 C-7.75116855 0.0590451 -5.07476862 -0.60897223 0 0 Z " fill="#010000" transform="translate(62,18)"/>
<path d="M0 0 C0.33 0 0.66 0 1 0 C6.58638469 28.65274727 -4.04715091 57.64063867 -19.80859375 81.26953125 C-21.67322973 84.01325839 -23.56756324 86.73392272 -25.484375 89.44140625 C-25.90912109 90.0461377 -26.33386719 90.65086914 -26.77148438 91.27392578 C-27.91178508 92.87605734 -29.08735251 94.45292793 -30.265625 96.02734375 C-32.2823723 99.48397594 -32.6520139 102.03295843 -33 106 C-33.67992317 111.56833631 -34.12851086 114.91342814 -38 119 C-42.28058699 122.20578068 -46.04481704 123.74856009 -51.1875 125.125 C-57.90206437 127.15981561 -61.99009046 130.12572156 -67.00390625 135.1171875 C-85.5510658 153.49148778 -108.06376962 165.42169724 -134.32836914 165.30029297 C-142.47030752 165.13266705 -150.0793069 163.92526379 -158 162 C-158.86496094 161.79600586 -159.72992188 161.59201172 -160.62109375 161.38183594 C-171.98719583 158.67430746 -183.04411419 155.57281151 -193.88598633 151.18457031 C-198.05151006 149.53347256 -201.45426332 148.28452448 -206 149 C-208.32847689 150.29680025 -210.35487257 151.58049598 -212.5 153.125 C-237.00520002 169.73034717 -268.56763792 173.2986069 -297.35571289 168.54882812 C-309.93111717 166.09561328 -321.18511067 159.71457429 -328.9609375 149.3984375 C-336.96972433 137.40215342 -339.18306434 126.81691436 -339.0625 112.5625 C-339.05798828 111.54478516 -339.05347656 110.52707031 -339.04882812 109.47851562 C-339.03712437 106.98561491 -339.02072848 104.49283926 -339 102 C-333.08076422 103.24506134 -327.62077886 104.75168846 -322 107 C-323.485 107.495 -323.485 107.495 -325 108 C-325.04586528 128.75760011 -325.04586528 128.75760011 -315.046875 146.28125 C-301.55798695 157.60779721 -282.0428828 156.10328854 -265.57617188 154.80957031 C-250.51660602 153.08707095 -235.20163689 147.19893566 -221.47265625 140.9453125 C-207.40835276 135.56843818 -190.49440976 139.50846397 -176.8125 144 C-164.01971161 148.00255714 -151.2419073 149.26131597 -137.875 149.3125 C-136.8324707 149.31797852 -135.78994141 149.32345703 -134.71582031 149.32910156 C-128.55387769 149.27162445 -122.9382282 148.64752793 -117 147 C-115.45699219 146.57460938 -115.45699219 146.57460938 -113.8828125 146.140625 C-100.83010228 141.92530215 -90.02957702 134.92633388 -79.5703125 126.13671875 C-70.00351001 118.14452457 -60.10218508 112.26664926 -48.828125 106.98193359 C-37.42784405 101.53449587 -34.24897071 90.54358963 -29.9453125 79.2265625 C-27.15598249 71.91897892 -23.33124711 65.59420379 -19.08203125 59.04296875 C-7.29413279 40.55170057 -1.47277192 21.85903581 0 0 Z " fill="#DF9A52" transform="translate(384,309)"/>
<path d="M0 0 C2.96241 2.59379962 4.58753063 5.58934406 6.46875 9.0234375 C6.79033081 9.6066275 7.11191162 10.1898175 7.4432373 10.79067993 C8.46701498 12.64949917 9.48372497 14.51207005 10.5 16.375 C11.51771979 18.22996201 12.53688664 20.08411947 13.5567627 21.93789673 C14.48368294 23.62439113 15.40697939 25.31287572 16.33007812 27.00146484 C17.41468699 28.94900375 18.54185422 30.87365517 19.71679688 32.76806641 C21 35 21 35 21 37 C19.88625 37.268125 18.7725 37.53625 17.625 37.8125 C13.78159049 38.65809019 13.78159049 38.65809019 12 42 C11.68848002 44.4267671 11.68848002 44.4267671 11.7215271 47.18217468 C11.71036362 48.25489624 11.69920013 49.3276178 11.68769836 50.43284607 C11.68553818 51.60960403 11.68337799 52.786362 11.68115234 53.9987793 C11.67110672 55.23792084 11.6610611 56.47706238 11.65071106 57.75375366 C11.62509299 61.15226454 11.60825381 64.55060797 11.59528303 67.94917655 C11.5796643 71.50065615 11.5528701 75.05205083 11.5272522 78.60346985 C11.48044207 85.32883022 11.44370882 92.05420653 11.41057932 98.77964669 C11.37237368 106.43621308 11.32295947 114.09269422 11.27259517 121.74918878 C11.1692421 137.49939859 11.08039031 153.24965532 11 169 C4.07 169 -2.86 169 -10 169 C-10.00142502 167.40306808 -10.00285004 165.80613617 -10.00431824 164.16081238 C-10.02096289 149.13639935 -10.06336044 134.11231112 -10.13209057 119.0880537 C-10.16676437 111.36327637 -10.19209919 103.63867793 -10.19555664 95.91381836 C-10.19859325 89.18189302 -10.21904233 82.45028606 -10.26052457 75.71848375 C-10.28188448 72.15294914 -10.29444026 68.5878675 -10.28615379 65.0222683 C-10.27723588 61.04472569 -10.30718815 57.06800016 -10.34057617 53.09057617 C-10.32763771 51.31141312 -10.32763771 51.31141312 -10.31443787 49.49630737 C-10.32972534 48.41517166 -10.34501282 47.33403595 -10.36076355 46.22013855 C-10.36352893 45.27898791 -10.36629431 44.33783728 -10.36914349 43.36816692 C-10.80048343 40.76296262 -10.80048343 40.76296262 -13.39542103 39.21671009 C-15.63042117 38.17264606 -17.58400869 37.4474058 -20 37 C-18.52413584 33.05218891 -16.68174197 29.45994928 -14.62890625 25.78125 C-14.30591049 25.20088989 -13.98291473 24.62052979 -13.65013123 24.02258301 C-12.96988477 22.80155257 -12.28822432 21.58130891 -11.60522461 20.36181641 C-10.56652074 18.50717915 -9.53189878 16.65031428 -8.49804688 14.79296875 C-5.72681369 9.82360174 -2.95187176 4.86521574 0 0 Z " fill="#DC4B3B" transform="translate(452,224)"/>
<path d="M0 0 C2.62751877 2.37627997 4.22934814 4.8925601 5.9609375 7.97265625 C6.51523438 8.95556641 7.06953125 9.93847656 7.640625 10.95117188 C8.21296875 11.97791016 8.7853125 13.00464844 9.375 14.0625 C9.93960938 15.06216797 10.50421875 16.06183594 11.0859375 17.09179688 C14.57583715 23.30818063 17.87892868 29.59056228 21 36 C19.88625 36.268125 18.7725 36.53625 17.625 36.8125 C13.78159049 37.65809019 13.78159049 37.65809019 12 41 C11.68848002 43.4267671 11.68848002 43.4267671 11.7215271 46.18217468 C11.71036362 47.25489624 11.69920013 48.3276178 11.68769836 49.43284607 C11.68553818 50.60960403 11.68337799 51.786362 11.68115234 52.9987793 C11.67110672 54.23792084 11.6610611 55.47706238 11.65071106 56.75375366 C11.62509299 60.15226454 11.60825381 63.55060797 11.59528303 66.94917655 C11.5796643 70.50065615 11.5528701 74.05205083 11.5272522 77.60346985 C11.48044207 84.32883022 11.44370882 91.05420653 11.41057932 97.77964669 C11.37237368 105.43621308 11.32295947 113.09269422 11.27259517 120.74918878 C11.1692421 136.49939859 11.08039031 152.24965532 11 168 C4.07 168 -2.86 168 -10 168 C-10.01030746 166.41559616 -10.02061493 164.83119232 -10.03123474 163.19877625 C-10.1288458 148.29221411 -10.23150949 133.38569655 -10.33933926 118.47920513 C-10.39464981 110.81500971 -10.44812826 103.15080964 -10.49731445 95.48657227 C-10.54018283 88.80750295 -10.58646754 82.1284676 -10.63687855 75.44945079 C-10.6634581 71.91200221 -10.68831064 68.37456027 -10.70907402 64.83707237 C-10.73229995 60.89092898 -10.76315215 56.94486556 -10.79467773 52.9987793 C-10.8004332 51.82202133 -10.80618866 50.64526337 -10.81211853 49.43284607 C-10.82190735 48.36012451 -10.83169617 47.28740295 -10.84178162 46.18217468 C-10.84823417 45.24839839 -10.85468672 44.3146221 -10.8613348 43.35254955 C-10.90680617 40.84648322 -10.90680617 40.84648322 -12 38 C-13.87387216 37.19787372 -13.87387216 37.19787372 -16.0625 36.8125 C-17.16271484 36.57466797 -17.16271484 36.57466797 -18.28515625 36.33203125 C-18.85105469 36.22246094 -19.41695312 36.11289063 -20 36 C-18.46633292 31.88069029 -16.49921179 28.07567781 -14.375 24.23828125 C-14.02743652 23.60641403 -13.67987305 22.97454681 -13.32177734 22.3235321 C-12.59031415 20.99573303 -11.85737754 19.66874468 -11.12304688 18.3425293 C-9.99917108 16.31100164 -8.88214038 14.2758146 -7.765625 12.24023438 C-7.05249212 10.94769104 -6.33896414 9.6553656 -5.625 8.36328125 C-5.12492432 7.45078362 -5.12492432 7.45078362 -4.61474609 6.51985168 C-3.239135 4.04547829 -2.01329984 2.01329984 0 0 Z " fill="#DD4B3B" transform="translate(59,41)"/>
<path d="M0 0 C3.12578143 1.6720747 5.39281175 3.7856235 7 7 C7.10849464 9.50604476 7.15731 11.98472581 7.16113281 14.49145508 C7.16609772 15.26400131 7.17106262 16.03654755 7.17617798 16.83250427 C7.19081346 19.39485558 7.19760432 21.95714496 7.203125 24.51953125 C7.20887585 26.29831443 7.21463359 28.0770976 7.22039795 29.85588074 C7.23091225 33.58922617 7.23675193 37.32255004 7.24023438 41.0559082 C7.24571631 45.83768137 7.26973604 50.61916938 7.29820633 55.40085316 C7.31683995 59.0768873 7.32203872 62.7528529 7.32357025 66.42893028 C7.32659629 68.1915715 7.33462319 69.95421152 7.34775543 71.71680641 C7.36482926 74.18487781 7.36293247 76.65225467 7.35644531 79.12036133 C7.3656601 79.84730194 7.37487488 80.57424255 7.3843689 81.32321167 C7.34807334 85.73614048 6.66032809 88.46586585 4 92 C1.08590728 94.768691 -0.9424008 95.43134422 -4.9375 95.4375 C-8.47033951 95.32823692 -9.87151132 95.07495173 -13 93.25 C-16.95169951 88.80433805 -17.30105098 85.12201771 -17.30639648 79.29736328 C-17.31472 78.52613129 -17.32304352 77.75489929 -17.33161926 76.96029663 C-17.35569261 74.41358373 -17.36448788 71.86712707 -17.37109375 69.3203125 C-17.38006187 67.54678267 -17.38918375 65.77325362 -17.39845276 63.99972534 C-17.41493787 60.28251304 -17.42264204 56.56539077 -17.42553711 52.84814453 C-17.43092154 48.09095145 -17.46860568 43.33460725 -17.51428127 38.57765388 C-17.54406078 34.91442799 -17.55126085 31.25140633 -17.55226326 27.58806992 C-17.55646353 25.83460475 -17.56889015 24.08113887 -17.58978081 22.32779312 C-17.61671595 19.87170671 -17.6118649 17.41758574 -17.59936523 14.96142578 C-17.61419952 14.24122253 -17.62903381 13.52101929 -17.64431763 12.7789917 C-17.5626 7.12450289 -15.86214569 4.82837011 -12 1 C-8.27533151 -0.86233425 -4.05504687 -0.57130829 0 0 Z " fill="#4297D0" transform="translate(448,51)"/>
<path d="M0 0 C3.12578143 1.6720747 5.39281175 3.7856235 7 7 C7.10849464 9.50604476 7.15731 11.98472581 7.16113281 14.49145508 C7.16609772 15.26400131 7.17106262 16.03654755 7.17617798 16.83250427 C7.19081346 19.39485558 7.19760432 21.95714496 7.203125 24.51953125 C7.20887585 26.29831443 7.21463359 28.0770976 7.22039795 29.85588074 C7.23091225 33.58922617 7.23675193 37.32255004 7.24023438 41.0559082 C7.24571631 45.83768137 7.26973604 50.61916938 7.29820633 55.40085316 C7.31683995 59.0768873 7.32203872 62.7528529 7.32357025 66.42893028 C7.32659629 68.1915715 7.33462319 69.95421152 7.34775543 71.71680641 C7.36482926 74.18487781 7.36293247 76.65225467 7.35644531 79.12036133 C7.3656601 79.84730194 7.37487488 80.57424255 7.3843689 81.32321167 C7.34807334 85.73614048 6.66032809 88.46586585 4 92 C1.08590728 94.768691 -0.9424008 95.43134422 -4.9375 95.4375 C-8.47033951 95.32823692 -9.87151132 95.07495173 -13 93.25 C-16.95169951 88.80433805 -17.30105098 85.12201771 -17.30639648 79.29736328 C-17.31472 78.52613129 -17.32304352 77.75489929 -17.33161926 76.96029663 C-17.35569261 74.41358373 -17.36448788 71.86712707 -17.37109375 69.3203125 C-17.38006187 67.54678267 -17.38918375 65.77325362 -17.39845276 63.99972534 C-17.41493787 60.28251304 -17.42264204 56.56539077 -17.42553711 52.84814453 C-17.43092154 48.09095145 -17.46860568 43.33460725 -17.51428127 38.57765388 C-17.54406078 34.91442799 -17.55126085 31.25140633 -17.55226326 27.58806992 C-17.55646353 25.83460475 -17.56889015 24.08113887 -17.58978081 22.32779312 C-17.61671595 19.87170671 -17.6118649 17.41758574 -17.59936523 14.96142578 C-17.61419952 14.24122253 -17.62903381 13.52101929 -17.64431763 12.7789917 C-17.5626 7.12450289 -15.86214569 4.82837011 -12 1 C-8.27533151 -0.86233425 -4.05504687 -0.57130829 0 0 Z " fill="#4297CF" transform="translate(166,51)"/>
<path d="M0 0 C4.2623938 0.76114175 5.65699005 1.33793908 8.5 4.625 C9.2719458 8.47178791 9.18237102 12.28687464 9.14697266 16.19897461 C9.16011505 17.97270699 9.16011505 17.97270699 9.17352295 19.78227234 C9.19175827 23.0222829 9.1874857 26.261272 9.17162752 29.50126719 C9.15895881 32.89422279 9.17071157 36.28711067 9.17855835 39.68006897 C9.18765343 45.37887808 9.17567242 51.07736315 9.15185547 56.77612305 C9.12465697 63.35992298 9.13344874 69.94294843 9.1609875 76.52672952 C9.18369758 82.18295978 9.18686915 87.83895721 9.17379415 93.49521834 C9.16600818 96.87184401 9.1649336 100.24810602 9.18147659 103.62470818 C9.19416207 107.39088295 9.17483586 111.15556722 9.14697266 114.92163086 C9.15709381 116.0381604 9.16721497 117.15468994 9.17764282 118.30505371 C9.07419347 125.84499697 9.07419347 125.84499697 6.14706421 129.82130432 C2.87745694 132.04919758 1.38012438 132.35252332 -2.5 131.625 C-5.19990662 129.82506226 -7.0418865 128.541227 -8.5 125.625 C-8.60303763 124.05492935 -8.64379825 122.48058109 -8.65390015 120.90716553 C-8.66250061 119.91180283 -8.67110107 118.91644012 -8.67996216 117.89091492 C-8.68422211 116.79479385 -8.68848206 115.69867279 -8.69287109 114.56933594 C-8.70104858 113.41800674 -8.70922607 112.26667755 -8.71765137 111.08045959 C-8.74253655 107.25677008 -8.75902926 103.43311776 -8.7734375 99.609375 C-8.77876118 98.30582314 -8.78408485 97.00227127 -8.78956985 95.65921783 C-8.81119996 90.18101831 -8.82993566 84.70282173 -8.84119225 79.2245903 C-8.85742457 71.37661237 -8.89058243 63.5291301 -8.94759309 55.68133903 C-8.98631987 50.16192996 -9.00582822 44.64265331 -9.01111281 39.12311196 C-9.01476317 35.82734019 -9.02925297 32.53221784 -9.05921555 29.23656464 C-9.09076238 25.55673905 -9.09091868 21.87816697 -9.08349609 18.19824219 C-9.09990143 17.11021805 -9.11630676 16.02219391 -9.13320923 14.90119934 C-9.06506806 6.65525221 -9.06506806 6.65525221 -6.18228149 2.94073486 C-3.5 0.625 -3.5 0.625 0 0 Z " fill="#2E82BA" transform="translate(195.5,32.375)"/>
<path d="M0 0 C2.69990662 1.79993774 4.5418865 3.083773 6 6 C6.10095048 7.57238112 6.13942456 9.14896423 6.14717102 10.7245636 C6.15432632 11.72137146 6.16148163 12.71817932 6.16885376 13.74519348 C6.17288712 15.39173164 6.17288712 15.39173164 6.17700195 17.0715332 C6.18357315 18.22446869 6.19014435 19.37740417 6.19691467 20.5652771 C6.21668141 24.39377908 6.22831719 28.22224179 6.23828125 32.05078125 C6.24235678 33.35558126 6.2464323 34.66038128 6.25063133 36.00472069 C6.26968369 42.19677575 6.28391449 48.38881889 6.2922433 54.58089763 C6.30201574 61.72824132 6.32833479 68.87527531 6.36874419 76.02250987 C6.39890675 81.54700143 6.4137123 87.07140423 6.41702431 92.59597653 C6.41937477 95.89553192 6.43030496 99.19468073 6.45348549 102.49416542 C6.4777493 106.17645753 6.47693484 109.85793616 6.4699707 113.5402832 C6.48278076 114.63190262 6.49559082 115.72352203 6.50878906 116.84822083 C6.45771703 124.24199888 6.45771703 124.24199888 4.09562683 128.1537323 C1.59833766 130.35386844 0.49581768 130.93389098 -2.8125 131.375 C-6 131 -6 131 -8.65878296 129.20802307 C-12.16169491 124.40820223 -11.69957744 120.09980178 -11.64697266 114.29663086 C-11.65573425 113.11239029 -11.66449585 111.92814972 -11.67352295 110.70802307 C-11.69173707 107.46813782 -11.68750062 104.22927684 -11.67162752 100.9894073 C-11.65894762 97.59598982 -11.67071413 94.20263959 -11.67855835 90.80921936 C-11.68764769 85.1121903 -11.6756849 79.41548564 -11.65185547 73.71850586 C-11.62463196 67.1340974 -11.63346921 60.55046276 -11.6609875 53.96607298 C-11.68368279 48.30898892 -11.68687717 42.6521377 -11.67379415 36.99502283 C-11.6660034 33.61788501 -11.66494729 30.24111089 -11.68147659 26.86399651 C-11.69414579 23.10012001 -11.67486011 19.33773939 -11.64697266 15.57397461 C-11.65709381 14.45542084 -11.66721497 13.33686707 -11.67764282 12.18441772 C-11.57407888 4.65683526 -11.57407888 4.65683526 -8.64706421 1.30787659 C-5.38963918 -0.30157056 -3.58978652 -0.59829775 0 0 Z " fill="#2F84BD" transform="translate(411,33)"/>
<path d="M0 0 C0.84954254 -0.00570007 1.69908508 -0.01140015 2.57437134 -0.01727295 C4.37150835 -0.02671605 6.16866263 -0.03325419 7.96582031 -0.03710938 C10.70929287 -0.04681391 13.45201577 -0.07784285 16.1953125 -0.109375 C17.94270389 -0.11590551 19.69010063 -0.12115579 21.4375 -0.125 C22.2553598 -0.1373468 23.0732196 -0.1496936 23.91586304 -0.16241455 C28.54975716 -0.14437135 31.58768005 0.19165246 35.3515625 3.203125 C37.59558487 7.69116974 36.66144699 13.76207122 36.70166016 18.7512207 C36.71820438 20.25561001 36.74547501 21.7599212 36.78369141 23.26391602 C36.83862458 25.43807541 36.8603562 27.61039522 36.875 29.78515625 C36.904729 31.73772339 36.904729 31.73772339 36.93505859 33.72973633 C36.3515625 37.203125 36.3515625 37.203125 34.39892578 40.12524414 C30.21873925 42.97555399 27.02506421 42.92581706 22.0703125 42.8671875 C21.17920776 42.87197113 20.28810303 42.87675476 19.36999512 42.88168335 C17.49062326 42.88507772 15.611192 42.87590762 13.73193359 42.85498047 C10.86031052 42.82820656 7.99259571 42.85474211 5.12109375 42.88671875 C3.29165807 42.88341457 1.46222481 42.87700816 -0.3671875 42.8671875 C-1.65018738 42.88236923 -1.65018738 42.88236923 -2.95910645 42.89785767 C-7.1444774 42.81584603 -9.15738517 42.53914757 -12.69140625 40.12084961 C-15.15533935 36.44738847 -15.26640964 34.25921889 -15.2421875 29.85546875 C-15.24222778 29.16175674 -15.24226807 28.46804474 -15.24230957 27.75331116 C-15.23696968 26.29337454 -15.21945194 24.83343718 -15.19042969 23.3737793 C-15.14849105 21.1434729 -15.14937063 18.91618206 -15.15625 16.68554688 C-15.07719647 5.96632532 -15.07719647 5.96632532 -13.30664062 2.81469727 C-9.64940566 -0.73969142 -4.76979833 0.02466341 0 0 Z " fill="#000000" transform="translate(441.6484375,422.796875)"/>
<path d="M0 0 C1.20204575 -0.00855011 1.20204575 -0.00855011 2.42837524 -0.01727295 C4.12118212 -0.02670271 5.81400719 -0.03324888 7.50683594 -0.03710938 C10.08561457 -0.04681498 12.66359573 -0.07785669 15.2421875 -0.109375 C16.89062029 -0.11590583 18.53905875 -0.12115599 20.1875 -0.125 C21.33622086 -0.1435202 21.33622086 -0.1435202 22.50814819 -0.16241455 C27.28164885 -0.1427202 30.62278914 0.49791506 34.7265625 3.203125 C36.45916218 8.40092404 36.031085 13.95749396 36.07666016 19.39941406 C36.09322266 20.84847064 36.12051756 22.2974454 36.15869141 23.74609375 C36.21362756 25.84417716 36.23535312 27.94035563 36.25 30.0390625 C36.279729 31.91924072 36.279729 31.91924072 36.31005859 33.83740234 C35.7265625 37.203125 35.7265625 37.203125 33.77392578 40.109375 C29.59473733 42.98076742 26.409433 42.92592792 21.4453125 42.8671875 C20.55420776 42.87197113 19.66310303 42.87675476 18.74499512 42.88168335 C16.86562326 42.88507772 14.986192 42.87590762 13.10693359 42.85498047 C10.23531052 42.82820656 7.36759571 42.85474211 4.49609375 42.88671875 C2.66665807 42.88341457 0.83722481 42.87700816 -0.9921875 42.8671875 C-2.27518738 42.88236923 -2.27518738 42.88236923 -3.58410645 42.89785767 C-7.7694774 42.81584603 -9.78238517 42.53914757 -13.31640625 40.12084961 C-15.78033935 36.44738847 -15.89140964 34.25921889 -15.8671875 29.85546875 C-15.86722778 29.16175674 -15.86726807 28.46804474 -15.86730957 27.75331116 C-15.86196968 26.29337454 -15.84445194 24.83343718 -15.81542969 23.3737793 C-15.77349105 21.1434729 -15.77437063 18.91618206 -15.78125 16.68554688 C-15.70247529 6.004132 -15.70247529 6.004132 -13.99414062 2.81469727 C-10.21947039 -0.7205749 -4.89268381 0.02700913 0 0 Z " fill="#000000" transform="translate(49.2734375,231.796875)"/>
<path d="M0 0 C4.55767505 3.32184393 5.30741821 7.52438808 6.5 12.75 C6.7064917 13.63268555 6.9129834 14.51537109 7.12573242 15.42480469 C7.77528206 18.27833483 8.39109959 21.13754035 9 24 C9.20189941 24.91394531 9.40379883 25.82789063 9.61181641 26.76953125 C15.43069244 53.7683523 16.91291945 83.44636832 3.17260742 108.25219727 C2 110 2 110 0 111 C-6.13545817 111.44621514 -6.13545817 111.44621514 -8.9375 110 C-10.7483582 106.59132574 -10.71364587 103.68623379 -10 100 C-8.63993009 96.53951631 -7.13119905 93.20027243 -5.5078125 89.85546875 C-1.99609722 81.73606706 -1.63518832 72.78869449 -1.6875 64.0625 C-1.69241455 63.06814941 -1.6973291 62.07379883 -1.70239258 61.04931641 C-1.93015455 46.36742959 -4.63237434 32.31622103 -8.3737793 18.15185547 C-9.71404197 12.94160355 -10.37709179 8.38702561 -10 3 C-7.21052771 -0.43319666 -4.246332 -0.61925675 0 0 Z " fill="#040301" transform="translate(336,239)"/>
<path d="M0 0 C1.52947266 -0.00386719 1.52947266 -0.00386719 3.08984375 -0.0078125 C5.85838725 0.11588064 8.36789535 0.49973262 11.0625 1.125 C8.27863301 2.98091133 6.7701262 3.54300278 3.625 4.3125 C-10.90183672 8.56890551 -21.12726682 17.96057212 -28.32543945 30.95336914 C-33.77467734 41.23829903 -35.06506641 50.69722639 -35.25390625 62.2109375 C-35.27468735 63.26785797 -35.29546844 64.32477844 -35.31687927 65.41372681 C-35.38203991 68.77575445 -35.44110361 72.13785737 -35.5 75.5 C-35.54321708 77.7851639 -35.58683238 80.07032031 -35.63085938 82.35546875 C-35.73768683 87.94523391 -35.83951425 93.53507324 -35.9375 99.125 C-39.48741306 98.52599158 -42.48561143 97.57288874 -45.75 96.0625 C-46.54019531 95.70027344 -47.33039062 95.33804688 -48.14453125 94.96484375 C-49.03205078 94.54912109 -49.03205078 94.54912109 -49.9375 94.125 C-50.03953038 86.77852337 -50.10922874 79.43223177 -50.15722656 72.08520508 C-50.17725138 69.58969291 -50.20447941 67.09422712 -50.23925781 64.59887695 C-50.2881777 60.99679059 -50.31056113 57.39532854 -50.328125 53.79296875 C-50.34877014 52.69043259 -50.36941528 51.58789642 -50.39068604 50.45195007 C-50.39464182 36.56958245 -44.69650115 24.84603726 -35.1875 14.875 C-27.66876475 7.7051881 -19.99381048 3.57732834 -9.9375 1.125 C-9.30457031 0.93808594 -8.67164063 0.75117188 -8.01953125 0.55859375 C-5.31643228 -0.00434056 -2.75959228 -0.00695988 0 0 Z " fill="#E09B53" transform="translate(94.9375,300.875)"/>
<path d="M0 0 C2.4375 1.375 2.4375 1.375 4 4 C5.78961057 14.77833636 1.82852992 27.00500912 -4 36 C-12.09155829 46.73916375 -22.5916979 54.52023218 -36 57 C-39.11765855 57.43696317 -41.90655038 57.66018742 -45 57 C-47.625 54.9375 -47.625 54.9375 -49 52 C-49 48.375 -49 48.375 -48 45 C-44.9472534 42.08957259 -41.83837612 41.24086544 -37.8125 40.1875 C-28.53503691 37.42090226 -22.2665879 33.67084068 -17.2109375 25.27734375 C-13.78869708 18.84132387 -12.53039524 12.88780091 -11.72265625 5.63671875 C-11 3 -11 3 -9.15234375 1.171875 C-5.93979945 -0.57724168 -3.5901199 -0.44876499 0 0 Z " fill="#03080A" transform="translate(389,420)"/>
<path d="M0 0 C0.09351302 14.6296799 0.16401323 29.25932014 0.20724869 43.88923836 C0.22785884 50.68244554 0.25594947 57.47546683 0.30175781 64.26855469 C0.34594084 70.82375262 0.36913543 77.37882994 0.37950897 83.93416977 C0.38690204 86.43563757 0.40133882 88.93709475 0.42292023 91.43848038 C0.45193973 94.94115322 0.45595645 98.44302714 0.45410156 101.94580078 C0.46848267 102.98086258 0.48286377 104.01592438 0.49768066 105.08235168 C0.45613156 112.32913103 -0.90482589 115.42864526 -5.625 120.875 C-7 122 -7 122 -9 122 C-9.09342862 106.68386264 -9.16397195 91.36773843 -9.20724869 76.05138016 C-9.22787671 68.93975551 -9.25600159 61.8283079 -9.30175781 54.71679688 C-9.34587447 47.85684273 -9.36912208 40.99707283 -9.37950897 34.13698578 C-9.38691336 31.51664073 -9.4013719 28.89630603 -9.42292023 26.27603912 C-9.45185625 22.61251359 -9.45595995 18.94975378 -9.45410156 15.28613281 C-9.46848267 14.19712677 -9.48286377 13.10812073 -9.49768066 11.9861145 C-9.4576703 4.72159628 -9.4576703 4.72159628 -7.28411865 1.2946167 C-4.61341397 -0.21911328 -3.01638741 -0.10353902 0 0 Z " fill="#4297D0" transform="translate(197,33)"/>
<path d="M0 0 C2.625 0.25 2.625 0.25 4.26651478 1.46309376 C6.04490006 3.80232256 5.99508116 5.16787561 5.98576355 8.09049988 C5.98988754 9.08749405 5.99401154 10.08448822 5.9982605 11.11169434 C5.98747467 12.20429565 5.97668884 13.29689697 5.96557617 14.42260742 C5.96601425 15.57396683 5.96645233 16.72532623 5.96690369 17.91157532 C5.96480965 21.72637753 5.94144888 25.54074308 5.91796875 29.35546875 C5.912375 31.99676778 5.90810386 34.63806992 5.90510559 37.27937317 C5.89577833 43.52672544 5.87115548 49.77392037 5.84105712 56.02120334 C5.80753418 63.13357002 5.79103243 70.24594418 5.77597082 77.35837018 C5.74460643 91.98899465 5.69183277 106.61949513 5.625 121.25 C1.87517417 119.54410439 0.02021492 117.63633833 -2.375 114.25 C-3.32249176 111.40752471 -3.50060795 109.66493911 -3.50198364 106.71994019 C-3.50480347 105.79170441 -3.50762329 104.86346863 -3.51052856 103.90710449 C-3.50749222 102.38276794 -3.50749222 102.38276794 -3.50439453 100.82763672 C-3.50702301 99.2200499 -3.50702301 99.2200499 -3.50970459 97.57998657 C-3.51411377 94.02987052 -3.51118878 90.47980408 -3.5078125 86.9296875 C-3.50848571 84.47014354 -3.50945587 82.01059964 -3.51071167 79.55105591 C-3.51218729 74.39454516 -3.51003804 69.23805171 -3.50537109 64.08154297 C-3.49966791 57.45546533 -3.50295741 50.82942814 -3.50894356 44.20335197 C-3.51254771 39.12492566 -3.51141136 34.04650902 -3.50881577 28.96808243 C-3.5081464 26.52391683 -3.50897525 24.07975037 -3.51129532 21.63558578 C-3.51382009 18.22822472 -3.50998399 14.82093029 -3.50439453 11.41357422 C-3.50641876 10.39330139 -3.50844299 9.37302856 -3.51052856 8.32183838 C-3.50770874 7.39924225 -3.50488892 6.47664612 -3.50198364 5.52609253 C-3.50160662 4.71973295 -3.50122959 3.91337337 -3.50084114 3.08257866 C-3.30748584 0.26681593 -2.80930685 0.29571651 0 0 Z " fill="#4297D0" transform="translate(410.375,33.75)"/>
<path d="M0 0 C0.00808685 0.87394913 0.01617371 1.74789825 0.02450562 2.64833069 C0.10258728 10.90203153 0.18991866 19.15557227 0.28752708 27.4090662 C0.33738009 31.65182821 0.38371073 35.89456664 0.421875 40.13745117 C0.45886719 44.23540536 0.50526417 48.33315688 0.55806351 52.43093681 C0.57653367 53.99091458 0.59166859 55.55093567 0.60334396 57.11097908 C0.62033357 59.30344326 0.64939728 61.49545071 0.68115234 63.68774414 C0.69447601 64.93350723 0.70779968 66.17927032 0.7215271 67.46278381 C1.12235054 72.55412003 1.9299503 76.64670185 5.125 80.6875 C8.52818005 83.42484048 12.02511577 85.2344807 16 87 C14.60756011 90.36506307 13.15737502 92.15302034 10 94 C5.22846462 94.86120395 1.20572876 94.70334178 -3 92.25 C-6.95169951 87.80433805 -7.30105098 84.12201771 -7.30639648 78.29736328 C-7.31472 77.52613129 -7.32304352 76.75489929 -7.33161926 75.96029663 C-7.35569261 73.41358373 -7.36448788 70.86712707 -7.37109375 68.3203125 C-7.38006187 66.54678267 -7.38918375 64.77325362 -7.39845276 62.99972534 C-7.41493787 59.28251304 -7.42264204 55.56539077 -7.42553711 51.84814453 C-7.43092154 47.09095145 -7.46860568 42.33460725 -7.51428127 37.57765388 C-7.54406078 33.91442799 -7.55126085 30.25140633 -7.55226326 26.58806992 C-7.55646353 24.83460475 -7.56889015 23.08113887 -7.58978081 21.32779312 C-7.61671595 18.87170671 -7.6118649 16.41758574 -7.59936523 13.96142578 C-7.61419952 13.24122253 -7.62903381 12.52101929 -7.64431763 11.7789917 C-7.58843353 7.91206608 -6.95696958 5.48210776 -4.58753967 2.50241089 C-2 0 -2 0 0 0 Z " fill="#2F87C3" transform="translate(438,52)"/>
<path d="M0 0 C3.38406145 1.40030129 5.24472634 2.75271221 7 6 C7.28997873 8.65237737 7.41036023 11.06790167 7.38818359 13.71850586 C7.39344055 14.49134415 7.39869751 15.26418243 7.40411377 16.06044006 C7.41730439 18.6121143 7.40857837 21.16316329 7.3984375 23.71484375 C7.40045872 25.49076965 7.40337055 27.26669474 7.40713501 29.0426178 C7.41155726 32.76408798 7.4051313 36.48534206 7.39111328 40.20678711 C7.37403386 44.97285923 7.38385523 49.73842406 7.40183067 54.5044775 C7.41268184 58.17195951 7.40921584 61.83932167 7.4014473 65.50680733 C7.39944833 67.26385114 7.40189391 69.0209059 7.40888596 70.77793694 C7.41652104 73.23628335 7.40486738 75.69381382 7.38818359 78.15209961 C7.39729263 79.23779739 7.39729263 79.23779739 7.40658569 80.34542847 C7.35139592 84.74408606 6.64755974 87.47515241 4 91 C1.08590728 93.768691 -0.9424008 94.43134422 -4.9375 94.4375 C-8.52842966 94.33157287 -9.88562664 94.06769036 -13.0625 92.1875 C-15 90 -15 90 -16 87 C-15.32453125 86.72027344 -14.6490625 86.44054687 -13.953125 86.15234375 C-7.69925878 83.3417189 -4.70346071 81.34725557 -2 75 C-0.83808371 71.51425112 -0.83961986 68.72888273 -0.79467773 65.05004883 C-0.77982834 63.99600609 -0.77982834 63.99600609 -0.76467896 62.92066956 C-0.73310766 60.59949099 -0.70832387 58.27829195 -0.68359375 55.95703125 C-0.66302044 54.34705577 -0.64202387 52.73708564 -0.62062073 51.12712097 C-0.56543894 46.89063862 -0.51601251 42.65410784 -0.46777344 38.4175415 C-0.41752999 34.09407239 -0.36185877 29.77067356 -0.30664062 25.44726562 C-0.19910666 16.96490319 -0.09765113 8.48248193 0 0 Z " fill="#2F88C3" transform="translate(166,52)"/>
<path d="M0 0 C11.22 0 22.44 0 34 0 C34 3.3 34 6.6 34 10 C22.78 10 11.56 10 0 10 C0 6.7 0 3.4 0 0 Z " fill="#CECECE" transform="translate(219,98)"/>
<path d="M0 0 C3.91643254 1.95821627 4.62130367 2.43735038 6.6875 5.9375 C7.31205078 6.97197266 7.31205078 6.97197266 7.94921875 8.02734375 C11.20433325 14.13824644 10.61375454 21.28916741 10 28 C8.36715517 33.01201405 6.07273327 37.54964152 2 41 C1.34 41 0.68 41 0 41 C0 27.47 0 13.94 0 0 Z " fill="#3C89BD" transform="translate(469,78)"/>
<path d="M0 0 C0 13.53 0 27.06 0 41 C-3.88723616 39.05638192 -4.61832807 38.58449881 -6.6875 35.125 C-7.10386719 34.44695312 -7.52023438 33.76890625 -7.94921875 33.0703125 C-11.26468241 26.53798633 -11.0328693 18.01909246 -9.24609375 11.06640625 C-5.05302749 0 -5.05302749 0 0 0 Z " fill="#3C8ABE" transform="translate(135,78)"/>
<path d="M0 0 C6.93 0 13.86 0 21 0 C21 3.96 21 7.92 21 12 C14.07 12 7.14 12 0 12 C0 8.04 0 4.08 0 0 Z " fill="#D84A3A" transform="translate(442,438)"/>
<path d="M0 0 C6.93 0 13.86 0 21 0 C21 3.96 21 7.92 21 12 C14.07 12 7.14 12 0 12 C0 8.04 0 4.08 0 0 Z " fill="#D94A3A" transform="translate(49,247)"/>
<path d="M0 0 C3.3 0 6.6 0 10 0 C10 2.64 10 5.28 10 8 C6.7 8 3.4 8 0 8 C0 5.36 0 2.72 0 0 Z " fill="#E5E5E5" transform="translate(375,99)"/>
<path d="M0 0 C0.94875 0.04125 1.8975 0.0825 2.875 0.125 C2.875 2.765 2.875 5.405 2.875 8.125 C0.235 8.125 -2.405 8.125 -5.125 8.125 C-5.25 5.25 -5.25 5.25 -5.125 2.125 C-3.125 0.125 -3.125 0.125 0 0 Z " fill="#D4934E" transform="translate(250.125,75.875)"/>
<path d="M0 0 C0 0.33 0 0.66 0 1 C-1.0725 1.2475 -2.145 1.495 -3.25 1.75 C-6.99649437 2.99883146 -8.52073882 4.02488658 -11 7 C-10.6875 4.625 -10.6875 4.625 -10 2 C-6.3558226 -0.4294516 -4.28758728 -0.16179575 0 0 Z " fill="#0D2C37" transform="translate(389,420)"/>
<path d="M0 0 C0.33 0 0.66 0 1 0 C1 2.97 1 5.94 1 9 C-0.32 8.34 -1.64 7.68 -3 7 C-2.01 4.69 -1.02 2.38 0 0 Z " fill="#2F87C1" transform="translate(133,109)"/>
<path d="M0 0 C1.32 1.32 2.64 2.64 4 4 C3.01 5.485 3.01 5.485 2 7 C1.34 7 0.68 7 0 7 C0 4.69 0 2.38 0 0 Z " fill="#2F85BF" transform="translate(470,111)"/>
</svg>
