<?xml version="1.0" encoding="UTF-8"?>
<svg version="1.1" xmlns="http://www.w3.org/2000/svg" width="512" height="512">
<path d="M0 0 C0.74422106 2.07189189 1.380194 4.18279428 1.97097778 6.30354309 C2.15896907 6.96971687 2.34696035 7.63589064 2.54064834 8.3222515 C3.17278229 10.56933163 3.79353963 12.81940278 4.41455078 15.06958008 C4.8641739 16.67605976 5.31455504 18.28232746 5.76564026 19.88839722 C6.73835734 23.35652772 7.70640608 26.82591646 8.67114639 30.29627419 C10.20003502 35.7929367 11.74377988 41.28535483 13.29049683 46.77702332 C17.6878118 62.39742932 22.07065071 78.02182983 26.42578125 93.65405273 C28.82936079 102.28092367 31.24834726 110.90332234 33.68408382 119.52117079 C35.22274285 124.96831387 36.74261978 130.42022854 38.24856877 135.87649977 C39.19562165 139.28985155 40.16076002 142.69789696 41.13085747 146.10476303 C41.57362905 147.67308976 42.00922166 149.24346606 42.43662834 150.81604958 C45.19125705 160.93101603 48.63498799 168.54092034 55 177 C56.12278721 178.6106943 57.2409536 180.22463446 58.3515625 181.84375 C59.44131709 183.39681047 60.53248949 184.94887696 61.625 186.5 C62.83468852 188.22261896 64.04432223 189.94527641 65.25390625 191.66796875 C65.86766113 192.54114746 66.48141602 193.41432617 67.11376953 194.31396484 C69.02564618 197.03652075 70.93345126 199.76188283 72.83984375 202.48828125 C73.46358887 203.3803125 74.08733398 204.27234375 74.72998047 205.19140625 C75.91792118 206.89054447 77.10575344 208.58975852 78.29345703 210.2890625 C78.83728027 211.06636719 79.38110352 211.84367188 79.94140625 212.64453125 C80.45590332 213.38268066 80.97040039 214.12083008 81.50048828 214.88134766 C82.4861984 216.27405237 83.48944267 217.65454062 84.51123047 219.02099609 C88 223.70003729 88 223.70003729 88 227 C85.5 229.1875 85.5 229.1875 83 231 C83.86625 232.69769531 83.86625 232.69769531 84.75 234.4296875 C85.50020991 235.91135207 86.25019847 237.39312873 87 238.875 C87.3815625 239.62136719 87.763125 240.36773437 88.15625 241.13671875 C88.5171875 241.85214844 88.878125 242.56757813 89.25 243.3046875 C89.58515625 243.96452637 89.9203125 244.62436523 90.265625 245.30419922 C91 247 91 247 91 249 C91.59554688 249.24234375 92.19109375 249.4846875 92.8046875 249.734375 C95.42167607 251.24310151 96.48615944 252.72738679 98.125 255.25 C98.62257813 255.99765625 99.12015625 256.7453125 99.6328125 257.515625 C102.31718956 262.39352161 103.25149 266.79827651 103.29052734 272.33740234 C103.30328705 273.572435 103.31604675 274.80746765 103.32919312 276.07992554 C103.33225109 277.41526125 103.33447868 278.75059908 103.3359375 280.0859375 C103.34237343 281.47067398 103.34910238 282.85540912 103.35610962 284.24014282 C103.3680523 287.13668976 103.37179353 290.0331177 103.37060547 292.9296875 C103.37040237 296.62386979 103.39770697 300.31728197 103.43214989 304.01128197 C103.45449116 306.86993855 103.45844083 309.72841184 103.45738602 312.58714676 C103.46086361 314.6055497 103.48247829 316.62389544 103.50448608 318.6421814 C103.46285212 327.04127156 102.72605392 332.74800209 97.03515625 339.2421875 C96.38417969 339.78101563 95.73320312 340.31984375 95.0625 340.875 C94.41410156 341.42929687 93.76570313 341.98359375 93.09765625 342.5546875 C88.79450477 345.51961496 85.04782983 346.25348937 79.86791992 346.29052734 C78.65283249 346.30328705 77.43774506 346.31604675 76.18583679 346.32919312 C74.88056534 346.33141876 73.57529388 346.33364441 72.23046875 346.3359375 C70.86672325 346.34237165 69.50297911 346.34910046 68.13923645 346.35610962 C65.28379113 346.36806362 62.42846661 346.37179248 59.57299805 346.37060547 C55.9314689 346.37040257 52.29072272 346.39768171 48.64937878 346.43214989 C45.83275363 346.45449725 43.01631444 346.45844061 40.19960976 346.45738602 C38.2100152 346.460864 36.22047869 346.48247958 34.23100281 346.50448608 C24.50463526 346.45561167 18.95692852 345.07271664 12 338.25 C10.98955506 337.17640225 9.98558535 336.0964637 9 335 C8.74738403 335.70408997 8.49476807 336.40817993 8.23449707 337.13360596 C-17.17222812 407.94153839 -17.17222812 407.94153839 -27.30432129 435.61911011 C-29.14970965 440.66231438 -30.98044675 445.71057232 -32.80148315 450.76261902 C-33.99496296 454.06743559 -35.1976108 457.36886321 -36.40252686 460.66952515 C-36.95921092 462.2003562 -37.51210802 463.73257071 -38.06085205 465.26626587 C-38.80633295 467.34808664 -39.56545761 469.42442552 -40.328125 471.5 C-40.7499707 472.6653125 -41.17181641 473.830625 -41.60644531 475.03125 C-43.19101711 478.40693203 -43.94188377 479.8396918 -47 482 C-50.73413732 482.615534 -54.445616 482.54582398 -58.22265625 482.51757812 C-59.94027664 482.52809204 -59.94027664 482.52809204 -61.69259644 482.53881836 C-65.48280998 482.55644298 -69.27227868 482.54475892 -73.0625 482.53125 C-75.69279117 482.53394361 -78.32308138 482.53782493 -80.95336914 482.54284668 C-86.4680185 482.55012172 -91.98245351 482.54053937 -97.49707031 482.52148438 C-103.87062667 482.4997156 -110.2436712 482.50676709 -116.61721516 482.52879 C-122.75113522 482.54913571 -128.88482854 482.546974 -135.01876831 482.53526306 C-137.62792024 482.5325911 -140.2370852 482.53588192 -142.84622192 482.54518127 C-146.49028326 482.55531833 -150.13335619 482.53988374 -153.77734375 482.51757812 C-154.86006561 482.52567505 -155.94278748 482.53377197 -157.05831909 482.54211426 C-164.21442852 482.46079566 -164.21442852 482.46079566 -167.67303467 480.43206787 C-169.47118479 477.13641045 -169.52967185 474.22814441 -169.45410156 470.56933594 C-169.45468567 469.82748047 -169.45526978 469.085625 -169.45587158 468.32128906 C-169.45309025 465.87517098 -169.42199786 463.43027953 -169.390625 460.984375 C-169.38316274 459.28615993 -169.37746973 457.58793624 -169.37347412 455.88970947 C-169.35821651 451.4244399 -169.31893389 446.95969247 -169.2746582 442.49462891 C-169.23370807 437.93659529 -169.21546367 433.37847713 -169.1953125 428.8203125 C-169.15243936 419.87994226 -169.08208875 410.94009628 -169 402 C-179.56 402 -190.12 402 -201 402 C-200.97905273 404.28131836 -200.95810547 406.56263672 -200.93652344 408.91308594 C-200.87025825 416.44873492 -200.82606658 423.98439674 -200.79275131 431.52025986 C-200.77187235 436.08950964 -200.74354929 440.65846102 -200.69824219 445.22753906 C-200.65479512 449.63660873 -200.63086522 454.0453913 -200.62049103 458.45465851 C-200.61309757 460.13721487 -200.59865983 461.81975543 -200.57707977 463.50218964 C-200.54805997 465.85825101 -200.54404325 468.21312473 -200.54589844 470.56933594 C-200.53151733 471.26561096 -200.51713623 471.96188599 -200.50231934 472.67926025 C-200.52916535 475.82820931 -200.7283543 477.64364273 -202.66042805 480.17822552 C-205.61682003 482.48030452 -207.19345036 482.50473356 -210.91416931 482.5146637 C-212.12408035 482.52738815 -213.33399139 482.54011261 -214.58056641 482.55322266 C-215.91821485 482.54704043 -217.25586138 482.54043442 -218.59350586 482.53344727 C-220.00469363 482.54050593 -221.41587382 482.54925073 -222.82704163 482.55955505 C-226.65772078 482.58206595 -230.4879871 482.57910544 -234.31870723 482.57023358 C-237.51708265 482.56512484 -240.71538042 482.57241536 -243.91374785 482.57970566 C-251.45941326 482.59671025 -259.00487647 482.59313351 -266.55053711 482.57641602 C-274.33397459 482.55949464 -282.11685126 482.57532777 -289.90022749 482.6076389 C-296.58402498 482.63433375 -303.26764788 482.64161111 -309.95149332 482.63312382 C-313.94292143 482.62819413 -317.9340121 482.63041198 -321.92539787 482.65091133 C-325.67915765 482.6692671 -329.43211083 482.66331226 -333.18582726 482.63871193 C-334.56246284 482.63370349 -335.93915987 482.6371949 -337.31574631 482.64986038 C-349.02090631 482.74902531 -349.02090631 482.74902531 -352.23812866 479.61608887 C-352.8195462 478.75277954 -353.40096375 477.88947021 -354 477 C-354.63123779 476.17878662 -355.26247559 475.35757324 -355.9128418 474.51147461 C-357.85987324 471.66769641 -359.78129933 468.80881876 -361.6875 465.9375 C-362.70166992 464.47666992 -362.70166992 464.47666992 -363.73632812 462.98632812 C-364.38408203 462.00986328 -365.03183594 461.03339844 -365.69921875 460.02734375 C-366.57839966 458.72398071 -366.57839966 458.72398071 -367.4753418 457.39428711 C-369.71060211 452.41801423 -370.28666478 447.38023059 -371 442 C-371.19740028 440.55525047 -371.19740028 440.55525047 -371.39878845 439.08131409 C-372.24279371 432.67525266 -372.97550762 426.25508906 -373.71435547 419.83618164 C-373.98384516 417.52372938 -374.26093927 415.21214804 -374.54638672 412.90161133 C-376.20701481 399.44122271 -377.22270207 386.13983825 -377.15966797 372.5715332 C-377.15811958 371.86579391 -377.1565712 371.16005461 -377.15497589 370.43292928 C-377.1154997 355.38145676 -376.5229226 340.36854041 -375.78842545 325.3355689 C-375.61333458 321.7038587 -375.44907224 318.07165775 -375.28393555 314.43948364 C-374.7598 302.9530861 -374.21863318 291.4675008 -373.67229128 279.98213995 C-371.35744639 231.28190453 -370.03372011 182.88844952 -372.39068604 134.15405273 C-372.68793638 127.95677299 -372.96463572 121.7585288 -373.24345398 115.5603981 C-373.33973278 113.45503357 -373.4406386 111.34993835 -373.54260254 109.24484253 C-373.91956789 101.15595246 -374.08110256 93.09748987 -374 85 C-371.36 85 -368.72 85 -366 85 C-366.165 84.175 -366.33 83.35 -366.5 82.5 C-367.05896045 78.58727683 -367.06807187 74.94816827 -367 71 C-369.64 71.33 -372.28 71.66 -375 72 C-376.21784683 48.65847551 -377.41314642 25.38090947 -377 2 C-374.35448944 1.80613508 -371.70882217 1.61961733 -369.0625 1.4375 C-368.30775391 1.38142578 -367.55300781 1.32535156 -366.77539062 1.26757812 C-364.85254042 1.13823843 -362.92610452 1.06483088 -361 1 C-360 2 -360 2 -360 10 C-345.81 10 -331.62 10 -317 10 C-316.34 8.68 -315.68 7.36 -315 6 C-312.875 4.75 -312.875 4.75 -311 4 C-310.443125 4.81202881 -309.88625 5.62405762 -309.3125 6.46069336 C-305.69755517 10.03832436 -301.56104599 9.61606465 -296.71875 9.66908264 C-294.87796875 9.64919533 -294.87796875 9.64919533 -293 9.62890625 C-291.7315625 9.63131821 -290.463125 9.63373016 -289.15625 9.63621521 C-286.47569706 9.63523614 -283.79737937 9.62443033 -281.1171875 9.59692383 C-277.69044258 9.56283952 -274.26519557 9.56886294 -270.83837891 9.5875864 C-267.55883271 9.60072597 -264.27951392 9.58243252 -261 9.56640625 C-259.15921875 9.57384605 -259.15921875 9.57384605 -257.28125 9.58143616 C-256.1365625 9.56559982 -254.991875 9.54976349 -253.8125 9.53344727 C-252.80832031 9.52724869 -251.80414063 9.52105011 -250.76953125 9.5146637 C-247.29556008 8.8690935 -245.66235457 7.25277635 -243 5 C-242.01 5 -241.02 5 -240 5 C-239.64607178 5.64932495 -239.29214355 6.2986499 -238.92749023 6.96765137 C-236.61432808 9.40665305 -235.96811599 9.33271855 -232.71118164 9.50793457 C-230.86099082 9.53178849 -229.01043461 9.5332332 -227.16015625 9.51757812 C-226.15016571 9.5245874 -225.14017517 9.53159668 -224.09957886 9.53881836 C-220.75360806 9.55645561 -217.40847973 9.54475486 -214.0625 9.53125 C-211.74226722 9.53394325 -209.42203554 9.53782428 -207.10180664 9.54284668 C-202.23605619 9.54874952 -197.37059919 9.5401532 -192.50488281 9.52148438 C-186.25991967 9.49869477 -180.01564408 9.51181359 -173.77070618 9.53577423 C-168.97866613 9.55021078 -164.18678978 9.545636 -159.39474487 9.53526306 C-157.09178588 9.53258986 -154.78881215 9.53588627 -152.48587036 9.54518127 C-149.27012623 9.55531128 -146.05550406 9.53989463 -142.83984375 9.51757812 C-141.88286591 9.52567505 -140.92588806 9.53377197 -139.93991089 9.54211426 C-134.89805052 9.64010109 -134.89805052 9.64010109 -130.88500977 6.96765137 C-130.59295654 6.31832642 -130.30090332 5.66900146 -130 5 C-127.52525722 5.44191835 -126.15556496 5.86777411 -124.21556091 7.51672363 C-121.40481377 9.39846599 -119.66638406 9.39176847 -116.30102539 9.41992188 C-115.15626236 9.43583374 -114.01149933 9.45174561 -112.83204651 9.46813965 C-111.59969772 9.46834106 -110.36734894 9.46854248 -109.09765625 9.46875 C-107.8278038 9.47636353 -106.55795135 9.48397705 -105.24961853 9.49182129 C-102.56363657 9.50262895 -99.8785345 9.50684101 -97.19262695 9.50097656 C-93.75791921 9.49508112 -90.32462539 9.52566754 -86.89019108 9.56609344 C-83.6052061 9.59822347 -80.32027412 9.59385413 -77.03515625 9.59375 C-75.18966942 9.6183429 -75.18966942 9.6183429 -73.30690002 9.64343262 C-66.38269524 9.8256372 -66.38269524 9.8256372 -60.68530273 6.46289062 C-60.12915283 5.65013672 -59.57300293 4.83738281 -59 4 C-55.21503862 5.51398455 -54.9927802 6.0144396 -53 10 C-40.79 10 -28.58 10 -16 10 C-16.33 8.02 -16.66 6.04 -17 4 C-2.89108911 -1.44554455 -2.89108911 -1.44554455 0 0 Z M-73 103 C-74.48735235 106.61900239 -74.88807171 110.25302265 -75.3125 114.125 C-75.5739712 116.10749805 -75.84089001 118.08928531 -76.11328125 120.0703125 C-76.24299316 121.04258789 -76.37270508 122.01486328 -76.50634766 123.01660156 C-77.29475358 127.78134954 -78.61305922 132.3791331 -80 137 C-82.64 137.33 -85.28 137.66 -88 138 C-89.485 144.435 -89.485 144.435 -91 151 C-88.69 151.66 -86.38 152.32 -84 153 C-84.21934204 153.86165771 -84.21934204 153.86165771 -84.44311523 154.74072266 C-85.11043567 157.36818106 -85.7739964 159.99657526 -86.4375 162.625 C-86.66759766 163.52863281 -86.89769531 164.43226563 -87.13476562 165.36328125 C-87.46831055 166.68779297 -87.46831055 166.68779297 -87.80859375 168.0390625 C-88.11494751 169.24876709 -88.11494751 169.24876709 -88.42749023 170.48291016 C-91.84818561 185.52230006 -91.59117489 203.24811164 -88.375 218.3125 C-88.16484253 219.30092896 -88.16484253 219.30092896 -87.95043945 220.30932617 C-84.56006299 234.10249367 -78.34702033 246.82828382 -71.75 259.3125 C-70.99233529 260.76340215 -70.23550782 262.2147418 -69.47949219 263.66650391 C-67.33182052 267.78411607 -65.16908458 271.89363419 -63 276 C-62.44570313 277.04945801 -61.89140625 278.09891602 -61.3203125 279.18017578 C-58.69568161 284.14442569 -58.69568161 284.14442569 -56.06591797 289.10595703 C-53.1443962 294.64045275 -50.49608895 300.2589954 -48 306 C-42.06 306 -36.12 306 -30 306 C-29.27409668 304.52200928 -28.54819336 303.04401855 -27.80029297 301.52124023 C-25.09329701 296.01645231 -22.37287481 290.51839068 -19.6484375 285.0222168 C-18.47323766 282.64674058 -17.30164105 280.2694781 -16.13378906 277.89038086 C-14.45030606 274.46247105 -12.75378401 271.04128606 -11.0546875 267.62109375 C-10.53881073 266.56353378 -10.02293396 265.50597382 -9.49142456 264.41636658 C-5.82842114 257.0875934 -1.97680721 250.24542479 5.375 246.0625 C6.06335938 245.66160156 6.75171875 245.26070312 7.4609375 244.84765625 C7.96882813 244.56792969 8.47671875 244.28820312 9 244 C7.66558629 241.17250036 6.16230649 238.70389432 4.3046875 236.19140625 C3.76183105 235.45615723 3.21897461 234.7209082 2.65966797 233.96337891 C2.07072754 233.17108887 1.48178711 232.37879883 0.875 231.5625 C0.25898926 230.72122559 -0.35702148 229.87995117 -0.99169922 229.01318359 C-4.2376159 224.6057419 -7.54845647 220.29507988 -11.0625 216.09765625 C-18.57981585 207.00068135 -24.22520001 198.20972225 -28.5390625 187.19921875 C-29.04163895 185.94789575 -29.54548594 184.69708244 -30.05047607 183.44673157 C-31.42492311 180.03256031 -32.78068404 176.61124298 -34.13317108 173.18832397 C-35.63765821 169.39022127 -37.15932896 165.59899904 -38.67822266 161.80664062 C-42.22712466 152.9349234 -45.74969947 144.05287721 -49.26727295 135.16870117 C-50.93570035 130.95623545 -52.60664834 126.74476973 -54.27734375 122.53320312 C-57.52060707 114.35640995 -60.76122117 106.17857049 -64 98 C-67.37693426 98 -70.69769895 100.80399555 -73 103 Z M-289 158 C-289.00616333 159.72440308 -289.00616333 159.72440308 -289.01245117 161.48364258 C-289.14224495 185.96034636 -290.31361706 209.67766242 -294.55688477 233.80419922 C-294.98840145 236.91634983 -295.08040085 239.86288347 -295 243 C-281.6077561 227.2718996 -282.73543715 198.05413175 -284 179 C-284.85690188 171.89524197 -286.29951818 164.94616459 -288 158 C-288.33 158 -288.66 158 -289 158 Z " fill="#010100" transform="translate(393,14)"/>
<path d="M0 0 C62.04 0 124.08 0 188 0 C187.30260025 4.88179827 186.64344024 8.50793002 185 13 C182.03 12.67 179.06 12.34 176 12 C163.02258854 62.90169156 175.3813757 102.10198622 200.28515625 147.05859375 C210 164.63347513 210 164.63347513 210 168 C196.14 168 182.28 168 168 168 C169.464375 164.90625 170.92875 161.8125 172.4375 158.625 C173.12863892 157.16441162 173.12863892 157.16441162 173.83374023 155.67431641 C174.37816772 154.52455322 174.37816772 154.52455322 174.93359375 153.3515625 C175.30540771 152.56604004 175.67722168 151.78051758 176.06030273 150.97119141 C176.69424858 149.641371 177.34116624 148.31766752 178 147 C176.7934375 146.62875 176.7934375 146.62875 175.5625 146.25 C171.25675857 144.73921353 167.14635993 142.89811144 163 141 C162.77441406 141.77730469 162.54882812 142.55460938 162.31640625 143.35546875 C160.56346821 148.20855833 158.26780674 152.71451145 155.9375 157.3125 C155.47794922 158.23095703 155.01839844 159.14941406 154.54492188 160.09570312 C151.14055525 166.85944475 151.14055525 166.85944475 150 168 C148.46914161 168.09581822 146.93386244 168.12188108 145.40000916 168.12025452 C143.90864189 168.12231651 143.90864189 168.12231651 142.387146 168.12442017 C141.28735413 168.12082489 140.18756226 168.11722961 139.05444336 168.11352539 C137.90337601 168.11367142 136.75230865 168.11381744 135.56636047 168.1139679 C131.74083609 168.11326818 127.91535969 168.10547302 124.08984375 168.09765625 C121.44568407 168.09579228 118.80152404 168.09436828 116.15736389 168.09336853 C109.89584583 168.09025549 103.63434514 168.08204248 97.37283474 168.07201904 C90.24598463 168.06085705 83.1191337 168.05534724 75.99227703 168.05032361 C61.3281757 168.03985984 46.66408809 168.02226093 32 168 C30.39479066 164.95888251 28.79102164 161.91700767 27.1875 158.875 C26.73568359 158.0190625 26.28386719 157.163125 25.81835938 156.28125 C19 143.3412979 19 143.3412979 19 141 C18.08476562 141.433125 17.16953125 141.86625 16.2265625 142.3125 C15.03804687 142.869375 13.84953125 143.42625 12.625 144 C11.44164062 144.556875 10.25828125 145.11375 9.0390625 145.6875 C6 147 6 147 4 147 C4.30292969 147.60062256 4.60585937 148.20124512 4.91796875 148.82006836 C6.28070881 151.52484532 7.6403929 154.23114694 9 156.9375 C9.47695312 157.88302734 9.95390625 158.82855469 10.4453125 159.80273438 C10.89648438 160.70185547 11.34765625 161.60097656 11.8125 162.52734375 C12.23144531 163.35999756 12.65039062 164.19265137 13.08203125 165.05053711 C14 167 14 167 14 168 C-1.18 168 -16.36 168 -32 168 C-30.50345237 163.51035712 -29.03227995 159.87379945 -26.875 155.73828125 C-26.57177826 155.15426544 -26.26855652 154.57024963 -25.95614624 153.96853638 C-24.97483106 152.08104095 -23.98739161 150.19682259 -23 148.3125 C-22.31941838 147.00484982 -21.63924538 145.69698688 -20.95947266 144.38891602 C-17.55009736 137.83647047 -14.10443297 131.30439244 -10.62597656 124.78833008 C-4.86871227 113.96930238 -0.26858767 103.34196407 3.1875 91.5625 C3.43790039 90.7163916 3.68830078 89.8702832 3.94628906 88.99853516 C10.17997044 66.91072097 9.51148102 44.28997018 4.38671875 22.08203125 C2.71848297 14.7652901 1.38299566 7.37597687 0 0 Z " fill="#FDC8A2" transform="translate(117,152)"/>
<path d="M0 0 C0.35392822 0.64932495 0.70785645 1.2986499 1.07250977 1.96765137 C3.38567192 4.40665305 4.03188401 4.33271855 7.28881836 4.50793457 C9.13900918 4.53178849 10.98956539 4.5332332 12.83984375 4.51757812 C13.84983429 4.5245874 14.85982483 4.53159668 15.90042114 4.53881836 C19.24639194 4.55645561 22.59152027 4.54475486 25.9375 4.53125 C28.25773278 4.53394325 30.57796446 4.53782428 32.89819336 4.54284668 C37.76394381 4.54874952 42.62940081 4.5401532 47.49511719 4.52148438 C53.74008033 4.49869477 59.98435592 4.51181359 66.22929382 4.53577423 C71.02133387 4.55021078 75.81321022 4.545636 80.60525513 4.53526306 C82.90821412 4.53258986 85.21118785 4.53588627 87.51412964 4.54518127 C90.72987377 4.55531128 93.94449594 4.53989463 97.16015625 4.51757812 C98.11713409 4.52567505 99.07411194 4.53377197 100.06008911 4.54211426 C105.10194948 4.64010109 105.10194948 4.64010109 109.11499023 1.96765137 C109.40704346 1.31832642 109.69909668 0.66900146 110 0 C112.473439 0.44168554 113.84231583 0.86566829 115.77947998 2.51594543 C118.61012917 4.40777159 120.39024551 4.39554615 123.77832031 4.43237305 C125.51967255 4.46206429 125.51967255 4.46206429 127.29620361 4.49235535 C129.1682547 4.50194023 129.1682547 4.50194023 131.078125 4.51171875 C132.35983582 4.52966995 133.64154663 4.54762115 134.96209717 4.56611633 C138.36176456 4.61356568 141.76136582 4.64340728 145.16125488 4.66955566 C148.63367776 4.69938713 152.1058729 4.74590846 155.578125 4.79101562 C162.38528681 4.87699063 169.19252449 4.94436152 176 5 C174.68 6.98 173.36 8.96 172 11 C172.38671875 11.54527344 172.7734375 12.09054688 173.171875 12.65234375 C181.57869798 24.82558989 184.9681203 35.96727993 182.31640625 50.83203125 C179.09563083 64.02250985 172.52978655 76.62420027 160.61376953 83.91504478 C155.10590778 86.20131496 149.09901238 85.64579462 143.23046875 85.56762695 C141.74162341 85.56621478 140.2527746 85.56701176 138.76393127 85.56983948 C134.74149725 85.57126848 130.71981543 85.54196339 126.69755554 85.50696969 C122.48688618 85.47561945 118.27619775 85.47276865 114.06542969 85.46684265 C106.10047955 85.45132957 98.13587437 85.41033571 90.17107582 85.3600952 C81.09976953 85.30412254 72.02844638 85.27669537 62.95701027 85.25161803 C44.30447284 85.19941737 25.65227685 85.11051233 7 85 C7 90.28 7 95.56 7 101 C54.19 101 101.38 101 150 101 C149.34 106.28 148.68 111.56 148 117 C86.29 117 24.58 117 -39 117 C-39.99 108.09 -40.98 99.18 -42 90 C-45.20962042 86.79037958 -46.9609285 85.32167326 -50.75 83.3125 C-62.14718517 76.59151286 -68.32768442 65.56884981 -71.875 53.0625 C-75.00781253 38.79701436 -72.46324278 27.26966773 -65 15 C-64.401875 13.989375 -63.80375 12.97875 -63.1875 11.9375 C-62.795625 11.298125 -62.40375 10.65875 -62 10 C-63.32 8.35 -64.64 6.7 -66 5 C-65.28447464 4.99635437 -64.56894928 4.99270874 -63.83174133 4.98895264 C-57.0783225 4.95103711 -50.32535881 4.89414462 -43.57227802 4.81609726 C-40.10065676 4.77663972 -36.62928846 4.7444433 -33.1574707 4.72900391 C-29.16316222 4.71091939 -25.16979857 4.66096158 -21.17578125 4.609375 C-19.31147209 4.60753204 -19.31147209 4.60753204 -17.40950012 4.60565186 C-16.24867416 4.58593323 -15.08784821 4.5662146 -13.8918457 4.54589844 C-12.36295464 4.53257477 -12.36295464 4.53257477 -10.80317688 4.51898193 C-6.26564754 3.67890089 -4.62535267 0 0 0 Z " fill="#F49797" transform="translate(153,19)"/>
<path d="M0 0 C1 1 1 1 1 9 C15.19 9 29.38 9 44 9 C41.36 14.28 38.72 19.56 36 25 C30.64700336 40.72442764 31.91946032 55.76630751 38 71 C38.4228125 72.06992188 38.845625 73.13984375 39.28125 74.2421875 C43.19788331 83.0090702 49.30038838 89.30038838 56 96 C56.16491989 98.59848764 56.26387117 101.17148769 56.31982422 103.77319336 C56.34055182 104.59615811 56.36127941 105.41912287 56.38263512 106.26702595 C56.64813283 117.4889739 56.78400277 128.7129439 56.875 139.9375 C56.88444389 141.0360947 56.89388779 142.13468941 56.90361786 143.26657486 C57.16596454 177.88014288 54.94865579 211.48324383 49.625 245.6875 C49.4736837 246.66275005 49.3223674 247.63800011 49.16646576 248.64280319 C42.81275318 289.37014213 42.81275318 289.37014213 38.79296875 298.36328125 C38.37345947 299.32314941 37.9539502 300.28301758 37.52172852 301.27197266 C37.08143311 302.27534668 36.6411377 303.2787207 36.1875 304.3125 C31.73728652 314.72050152 28.47025527 324.97244694 26 336 C25.70609375 337.216875 25.4121875 338.43375 25.109375 339.6875 C18.27033988 369.18922012 20.45344452 398.92315397 24.70849609 428.57800293 C25.30212932 432.7466108 25.86798002 436.91907661 26.43634033 441.09119225 C26.87647886 444.32057162 27.32234668 447.54887425 27.78027344 450.77578735 C27.94043945 451.91663788 28.10060547 453.0574884 28.265625 454.23291016 C28.47880371 455.72813705 28.47880371 455.72813705 28.69628906 457.25357056 C28.98486155 459.86310444 29.0562625 462.3773221 29 465 C25.87868129 465.48746035 23.11090605 465.61384504 20 465 C17.16893682 462.8755629 15.49550936 460.22286288 13.625 457.25 C13.11839844 456.5590625 12.61179687 455.868125 12.08984375 455.15625 C6.54134522 446.7097168 6.1126785 436.79000487 5 427 C4.76900237 425.07497878 4.53755032 423.15001204 4.30566406 421.22509766 C3.71552128 416.23171292 3.16752597 411.23470968 2.63745117 406.23461914 C2.31081009 403.17165341 1.97107843 400.11031188 1.63085938 397.04882812 C1.41587213 395.04696017 1.20165256 393.04500959 0.98828125 391.04296875 C0.88832352 390.15506149 0.78836578 389.26715424 0.68537903 388.3523407 C-0.6658092 375.27259485 0.0312564 362.10035843 0.64257812 348.99389648 C0.71184919 347.45418653 0.78080411 345.91446232 0.84947205 344.37472534 C0.9966113 341.08788575 1.145722 337.80114397 1.29637146 334.51446342 C1.53588348 329.28384321 1.76945356 324.05296732 2.0020752 318.82203674 C2.6640349 303.95631274 3.33363653 289.09093837 4.00927734 274.22583008 C4.38341571 265.99307378 4.75258313 257.76010826 5.11676931 249.5269056 C5.3086494 245.19441252 5.50294223 240.86206117 5.70362854 236.52996635 C6.95427162 209.49629167 7.71657116 182.54632124 6.2020874 155.49975586 C5.95493137 151.07364195 5.7357619 146.64608318 5.51171875 142.21875 C5.4668634 141.34561157 5.42200806 140.47247314 5.37579346 139.57287598 C4.43230403 121.0630515 3.77395529 102.53566613 4 84 C1.03 84 -1.94 84 -5 84 C-5.95261487 79.23692563 -6.08333357 74.8333472 -6 70 C-8.64 70.33 -11.28 70.66 -14 71 C-15.21784683 47.65847551 -16.41314642 24.38090947 -16 1 C-10.58173302 0.28362892 -5.46853563 -0.19187844 0 0 Z " fill="#FCBE92" transform="translate(32,15)"/>
<path d="M0 0 C102.3 0 204.6 0 310 0 C309 5 309 5 305 16 C207.65 16 110.3 16 10 16 C10 21.28 10 26.56 10 32 C46.96 32 83.92 32 122 32 C122 42.56 122 53.12 122 64 C108.06028433 64.72728951 97.19602313 62.26088458 84 58 C80.92732117 57.03218039 77.85210584 56.07346956 74.77392578 55.12329102 C72.81344503 54.51659614 70.85585083 53.90046171 68.90185547 53.27319336 C63.227444 51.49556294 57.93185667 50.46607445 52 50 C50.68 54.62 49.36 59.24 48 64 C50.0625 64.495 52.125 64.99 54.25 65.5 C62.42968054 67.51221933 70.52666017 69.80999254 78.625 72.125 C80.45659668 72.64803711 80.45659668 72.64803711 82.32519531 73.18164062 C87.59291855 74.695874 92.79752239 76.2658408 98 78 C98 99.78 98 121.56 98 144 C65.33 144 32.66 144 -1 144 C-3.2275 127.850625 -3.2275 127.850625 -5.5 111.375 C-5.96986328 108.04583496 -6.43972656 104.71666992 -6.92382812 101.28662109 C-11.31948989 69.10962738 -15.07266109 30.14532218 0 0 Z " fill="#334F7A" transform="translate(78,336)"/>
<path d="M0 0 C0.74422106 2.07189189 1.380194 4.18279428 1.97097778 6.30354309 C2.25296471 7.30280375 2.25296471 7.30280375 2.54064834 8.3222515 C3.17278229 10.56933163 3.79353963 12.81940278 4.41455078 15.06958008 C4.8641739 16.67605976 5.31455504 18.28232746 5.76564026 19.88839722 C6.73835734 23.35652772 7.70640608 26.82591646 8.67114639 30.29627419 C10.20003502 35.7929367 11.74377988 41.28535483 13.29049683 46.77702332 C17.6878118 62.39742932 22.07065071 78.02182983 26.42578125 93.65405273 C28.82936079 102.28092367 31.24834726 110.90332234 33.68408382 119.52117079 C35.22274285 124.96831387 36.74261978 130.42022854 38.24856877 135.87649977 C39.19562165 139.28985155 40.16076002 142.69789696 41.13085747 146.10476303 C41.57362905 147.67308976 42.00922166 149.24346606 42.43662834 150.81604958 C45.19125705 160.93101603 48.63498799 168.54092034 55 177 C56.12278721 178.6106943 57.2409536 180.22463446 58.3515625 181.84375 C59.44131709 183.39681047 60.53248949 184.94887696 61.625 186.5 C62.83468852 188.22261896 64.04432223 189.94527641 65.25390625 191.66796875 C65.86766113 192.54114746 66.48141602 193.41432617 67.11376953 194.31396484 C69.02564618 197.03652075 70.93345126 199.76188283 72.83984375 202.48828125 C73.77546143 203.82632813 73.77546143 203.82632813 74.72998047 205.19140625 C75.91792118 206.89054447 77.10575344 208.58975852 78.29345703 210.2890625 C78.83728027 211.06636719 79.38110352 211.84367188 79.94140625 212.64453125 C80.45590332 213.38268066 80.97040039 214.12083008 81.50048828 214.88134766 C82.4861984 216.27405237 83.48944267 217.65454062 84.51123047 219.02099609 C88 223.70003729 88 223.70003729 88 227 C85.5 229.1875 85.5 229.1875 83 231 C83.58910156 232.13179687 84.17820312 233.26359375 84.78515625 234.4296875 C85.54468852 235.91124428 86.30378042 237.39302687 87.0625 238.875 C87.45244141 239.62136719 87.84238281 240.36773437 88.24414062 241.13671875 C88.79038086 242.20986328 88.79038086 242.20986328 89.34765625 243.3046875 C89.68804932 243.96452637 90.02844238 244.62436523 90.37915039 245.30419922 C90.58403076 245.86381348 90.78891113 246.42342773 91 247 C90.67 247.66 90.34 248.32 90 249 C88.96939453 248.47599609 88.96939453 248.47599609 87.91796875 247.94140625 C87.01691406 247.48636719 86.11585938 247.03132812 85.1875 246.5625 C83.84751953 245.88380859 83.84751953 245.88380859 82.48046875 245.19140625 C78.91769546 243.48015294 76.30072144 242.88515571 72.39599609 242.96923828 C71.46427582 242.98479767 70.53255554 243.00035706 69.57260132 243.01638794 C68.56637726 243.03418304 67.5601532 243.05197815 66.5234375 243.0703125 C64.3867323 243.08121839 62.25000884 243.08892822 60.11328125 243.09375 C56.74777669 243.10159157 53.38664817 243.12473199 50.02197266 243.20214844 C31.3904436 243.60282648 31.3904436 243.60282648 25.70043945 239.78759766 C23.3790924 236.97513518 21.69225745 234.22337285 20 231 C18.89970772 229.48338945 17.77471057 227.98426734 16.62109375 226.5078125 C14.99702922 224.28408948 13.38483567 222.05201571 11.77354336 219.81902409 C8.67047304 215.54853321 5.51596128 211.35936432 2.15284729 207.28965759 C-8.33024908 194.46385852 -14.84273011 181.57654314 -20.78515625 166.19140625 C-21.70387678 163.88068944 -22.62510757 161.57096929 -23.5486908 159.26219177 C-25.45495211 154.47738807 -27.33940025 149.68481683 -29.20629883 144.88452148 C-31.59869044 138.73477238 -34.03344804 132.60290018 -36.48276615 126.47563267 C-38.37615024 121.73210773 -40.25390119 116.98252828 -42.12624931 112.23066521 C-43.01965412 109.9651426 -43.91638977 107.70093051 -44.81654549 105.43808174 C-46.06337214 102.29320641 -47.29047932 99.14136235 -48.51196289 95.98657227 C-48.88315247 95.05930832 -49.25434204 94.13204437 -49.63677979 93.17668152 C-51.46141382 88.39794328 -52.58073587 85.08331974 -51 80 C-49.9140625 77.578125 -49.9140625 77.578125 -48.625 75.25 C-41.34816835 61.24315063 -39.61991716 44.34007956 -43.87109375 29.1015625 C-46.04253794 23.13572623 -48.99875665 17.58692994 -52 12 C-52.33 11.34 -52.66 10.68 -53 10 C-40.79 10 -28.58 10 -16 10 C-16.495 7.03 -16.495 7.03 -17 4 C-2.89108911 -1.44554455 -2.89108911 -1.44554455 0 0 Z " fill="#FCBE92" transform="translate(393,14)"/>
<path d="M0 0 C53.13 0 106.26 0 161 0 C152.93147003 23.05294276 152.93147003 23.05294276 149.3984375 32.9375 C148.79366074 34.63144897 148.79366074 34.63144897 148.17666626 36.35961914 C147.33179259 38.72553414 146.48660786 41.09133807 145.64111328 43.45703125 C144.39652367 46.93977026 143.15326474 50.42298209 141.91015625 53.90625 C134.9865693 73.28798641 127.99042969 92.64188702 121 112 C88.99 112 56.98 112 24 112 C24 90.22 24 68.44 24 46 C29.836875 44.659375 35.67375 43.31875 41.6875 41.9375 C53.97560937 39.10967952 66.25028653 36.23993488 78.5 33.25 C92.5798353 29.81850705 106.69964352 26.38339275 121 24 C120.01 19.05 119.02 14.1 118 9 C107.12661498 11.18009338 96.33400195 13.61150735 85.5625 16.25 C72.659891 19.40880159 59.71285986 22.32850571 46.73461914 25.15917969 C45.29568702 25.47438734 43.85680289 25.78981415 42.41796875 26.10546875 C41.36734001 26.3345845 41.36734001 26.3345845 40.29548645 26.56832886 C36.04008245 27.50841209 31.82771151 28.55906858 27.61604309 29.6778717 C21.00834319 31.42088207 14.86192846 32.56469071 8 32.25 C4.04 32.12625 4.04 32.12625 0 32 C0 21.44 0 10.88 0 0 Z " fill="#334F7A" transform="translate(216,368)"/>
<path d="M0 0 C1.1416864 -0.00960754 2.2833728 -0.01921509 3.45965576 -0.02911377 C4.69919006 -0.03336365 5.93872437 -0.03761353 7.21582031 -0.04199219 C8.48613098 -0.04769226 9.75644165 -0.05339233 11.06524658 -0.05926514 C13.75870345 -0.06872717 16.45204858 -0.07561749 19.14550781 -0.07910156 C22.58651232 -0.08457345 26.02711855 -0.10857237 29.4679985 -0.13707352 C32.75890875 -0.16025613 36.04983986 -0.16215396 39.34082031 -0.16699219 C40.57225769 -0.17933899 41.80369507 -0.19168579 43.07244873 -0.20440674 C49.79414243 -0.18693073 55.02812837 -0.12085307 60.18847656 4.69628906 C63.46392431 8.97956688 64.66695171 11.01088617 64.70507812 16.35766602 C64.71468567 17.44251785 64.72429321 18.52736969 64.73419189 19.64509583 C64.73844177 20.82214584 64.74269165 21.99919586 64.74707031 23.21191406 C64.75277039 24.41800827 64.75847046 25.62410248 64.76434326 26.866745 C64.77380377 29.42311727 64.7803314 31.97950179 64.78417969 34.53588867 C64.79387925 38.44699409 64.82489122 42.35757284 64.85644531 46.26855469 C64.86297575 48.74967135 64.86822606 51.23079178 64.87207031 53.71191406 C64.88441711 54.88289139 64.89676392 56.05386871 64.90948486 57.2603302 C64.90648376 58.35463852 64.90348267 59.44894684 64.90039062 60.57641602 C64.90585907 62.01631645 64.90585907 62.01631645 64.91143799 63.48530579 C64.46941511 66.70381013 63.4896538 68.57484814 61.54394531 71.16113281 C58.55027514 72.15902287 56.53006523 72.29911781 53.40161133 72.32226562 C52.35364883 72.33187317 51.30568634 72.34148071 50.22596741 72.35137939 C49.09468918 72.35562927 47.96341095 72.35987915 46.79785156 72.36425781 C45.63519272 72.36995789 44.47253387 72.37565796 43.27464294 72.38153076 C40.81420808 72.39098131 38.35376055 72.39751496 35.89331055 72.40136719 C32.12493935 72.41108512 28.35711063 72.44211382 24.58886719 72.47363281 C22.20019856 72.48016161 19.81152602 72.48541256 17.42285156 72.48925781 C16.29359756 72.50160461 15.16434357 72.51395142 14.00086975 72.52667236 C12.9497551 72.52367126 11.89864044 72.52067017 10.81567383 72.51757812 C9.43026146 72.52304657 9.43026146 72.52304657 8.01686096 72.52862549 C5.04501815 72.08698872 3.69752697 71.23046738 1.54394531 69.16113281 C0.42677789 65.80963053 0.36944896 63.16105679 0.29785156 59.62988281 C0.26498047 58.3446875 0.23210937 57.05949219 0.19824219 55.73535156 C0.1507759 53.69454704 0.10630411 51.65377438 0.06713867 49.61279297 C0.02741818 47.63913658 -0.02469707 45.6657419 -0.07714844 43.69238281 C-0.10220459 42.51224609 -0.12726074 41.33210938 -0.15307617 40.11621094 C-0.24271586 36.97528524 -0.24271586 36.97528524 -2.45605469 34.16113281 C-6.46536618 33.0966468 -6.46536618 33.0966468 -10.45605469 33.16113281 C-13.86601747 35.87743396 -15.70174695 39.08472714 -17.70605469 42.91113281 C-18.61355469 44.64363281 -19.52105469 46.37613281 -20.45605469 48.16113281 C-25.07605469 48.16113281 -29.69605469 48.16113281 -34.45605469 48.16113281 C-31.93776465 42.77634472 -29.39486674 37.40406918 -26.82958984 32.04150391 C-25.90206668 30.09644199 -24.97999365 28.14877309 -24.06298828 26.19873047 C-22.66876806 23.24054624 -21.25216697 20.29397663 -19.83105469 17.34863281 C-19.40074951 16.4248584 -18.97044434 15.50108398 -18.52709961 14.54931641 C-14.49771552 6.29647066 -9.63516153 0.06527809 0 0 Z " fill="#FDC8A2" transform="translate(415.4560546875,271.8388671875)"/>
<path d="M0 0 C0.74422106 2.07189189 1.380194 4.18279428 1.97097778 6.30354309 C2.25296471 7.30280375 2.25296471 7.30280375 2.54064834 8.3222515 C3.17278229 10.56933163 3.79353963 12.81940278 4.41455078 15.06958008 C4.8641739 16.67605976 5.31455504 18.28232746 5.76564026 19.88839722 C6.73835734 23.35652772 7.70640608 26.82591646 8.67114639 30.29627419 C10.20003502 35.7929367 11.74377988 41.28535483 13.29049683 46.77702332 C17.6878118 62.39742932 22.07065071 78.02182983 26.42578125 93.65405273 C28.82936079 102.28092367 31.24834726 110.90332234 33.68408382 119.52117079 C35.22274285 124.96831387 36.74261978 130.42022854 38.24856877 135.87649977 C39.19562165 139.28985155 40.16076002 142.69789696 41.13085747 146.10476303 C41.57362905 147.67308976 42.00922166 149.24346606 42.43662834 150.81604958 C45.19125705 160.93101603 48.63498799 168.54092034 55 177 C56.12278721 178.6106943 57.2409536 180.22463446 58.3515625 181.84375 C59.44131709 183.39681047 60.53248949 184.94887696 61.625 186.5 C62.83468852 188.22261896 64.04432223 189.94527641 65.25390625 191.66796875 C65.86766113 192.54114746 66.48141602 193.41432617 67.11376953 194.31396484 C69.02564618 197.03652075 70.93345126 199.76188283 72.83984375 202.48828125 C73.77546143 203.82632813 73.77546143 203.82632813 74.72998047 205.19140625 C75.91792118 206.89054447 77.10575344 208.58975852 78.29345703 210.2890625 C78.83728027 211.06636719 79.38110352 211.84367188 79.94140625 212.64453125 C80.45590332 213.38268066 80.97040039 214.12083008 81.50048828 214.88134766 C82.4861984 216.27405237 83.48944267 217.65454062 84.51123047 219.02099609 C88 223.70003729 88 223.70003729 88 227 C85.734375 228.859375 85.734375 228.859375 82.75 230.75 C81.77546875 231.38421875 80.8009375 232.0184375 79.796875 232.671875 C77 234 77 234 75.00317383 233.80004883 C72.49980919 232.80022848 71.69305003 231.7247176 70.15234375 229.52734375 C69.63551025 228.80111816 69.11867676 228.07489258 68.58618164 227.32666016 C67.77008423 226.14402588 67.77008423 226.14402588 66.9375 224.9375 C66.36314209 224.1232959 65.78878418 223.3090918 65.19702148 222.47021484 C63.45197426 219.98872346 61.7234466 217.49652974 60 215 C59.52079102 214.30825684 59.04158203 213.61651367 58.54785156 212.90380859 C56.32213049 209.68736041 54.10995273 206.46203282 51.90625 203.23046875 C49.74435385 200.06884745 47.55079318 196.93105074 45.34375 193.80078125 C44.71654053 192.91052246 44.08933105 192.02026367 43.44311523 191.10302734 C42.22118769 189.37110408 40.99687296 187.64086172 39.76977539 185.91259766 C39.20766357 185.11515137 38.64555176 184.31770508 38.06640625 183.49609375 C37.3230603 182.44699829 37.3230603 182.44699829 36.56469727 181.37670898 C33.05498521 176.04560477 30.53026929 171.23175273 28.78610229 165.07295227 C28.50132733 164.08203631 28.50132733 164.08203631 28.21079934 163.07110184 C27.58338993 160.87963687 26.9692082 158.68469459 26.35498047 156.48950195 C25.90524724 154.90854273 25.45468395 153.32781943 25.00335693 151.74731445 C24.03654424 148.35492427 23.07558328 144.96095151 22.11919785 141.56560707 C20.60698415 136.19710826 19.08171393 130.83237314 17.55471802 125.46806335 C15.1418573 116.98585506 12.73776693 108.50119011 10.33740819 100.01543635 C6.03587257 84.80927375 1.72190575 69.60663982 -2.59898841 54.40596741 C-4.11481021 49.07194317 -5.62597515 43.73662779 -7.13335824 38.40021288 C-8.07068589 35.08446736 -9.01120264 31.76963231 -9.95249176 28.45500946 C-10.38846392 26.91709284 -10.82305019 25.37878258 -11.25615311 23.84005547 C-11.84714187 21.74101433 -12.4430057 19.64341658 -13.04006958 17.5460968 C-13.53834102 15.78436111 -13.53834102 15.78436111 -14.04667854 13.9870348 C-14.89316469 11.06291234 -14.89316469 11.06291234 -16.14593315 8.73149395 C-17 7 -17 7 -16.625 4.75 C-16.41875 4.1725 -16.2125 3.595 -16 3 C-13.71068726 2.30364247 -11.4191243 1.61765623 -9.125 0.9375 C-8.47402344 0.73833984 -7.82304687 0.53917969 -7.15234375 0.33398438 C-2.2265625 -1.11328125 -2.2265625 -1.11328125 0 0 Z " fill="#010000" transform="translate(393,14)"/>
<path d="M0 0 C0.35392822 0.64932495 0.70785645 1.2986499 1.07250977 1.96765137 C3.38567192 4.40665305 4.03188401 4.33271855 7.28881836 4.50793457 C9.13900918 4.53178849 10.98956539 4.5332332 12.83984375 4.51757812 C13.84983429 4.5245874 14.85982483 4.53159668 15.90042114 4.53881836 C19.24639194 4.55645561 22.59152027 4.54475486 25.9375 4.53125 C28.25773278 4.53394325 30.57796446 4.53782428 32.89819336 4.54284668 C37.76394381 4.54874952 42.62940081 4.5401532 47.49511719 4.52148438 C53.74008033 4.49869477 59.98435592 4.51181359 66.22929382 4.53577423 C71.02133387 4.55021078 75.81321022 4.545636 80.60525513 4.53526306 C82.90821412 4.53258986 85.21118785 4.53588627 87.51412964 4.54518127 C90.72987377 4.55531128 93.94449594 4.53989463 97.16015625 4.51757812 C98.11713409 4.52567505 99.07411194 4.53377197 100.06008911 4.54211426 C105.10194948 4.64010109 105.10194948 4.64010109 109.11499023 1.96765137 C109.40704346 1.31832642 109.69909668 0.66900146 110 0 C113.9520518 0.58172725 116.22095053 2.55157741 119.25 5.0625 C120.14203125 5.79597656 121.0340625 6.52945312 121.953125 7.28515625 C122.96632813 8.13400391 122.96632813 8.13400391 124 9 C117.13757753 24.41405662 99.89266892 33.92759058 85 40 C84.17757812 40.33773437 83.35515625 40.67546875 82.5078125 41.0234375 C62.67187258 48.36200868 39.09080926 46.2957862 20 38 C6.38066216 31.37862528 -4.16456531 22.38399249 -14 11 C-13.67 10.01 -13.34 9.02 -13 8 C-11.33333333 7.33333333 -9.66666667 6.66666667 -8 6 C-7.67 5.01 -7.34 4.02 -7 3 C-4.41927097 0.67734388 -3.54823932 0 0 0 Z " fill="#040202" transform="translate(153,19)"/>
<path d="M0 0 C34.32 0 68.64 0 104 0 C92.85688612 13.00029953 78.15743458 21.70285532 61 24 C41.80947889 25.35102011 23.42732905 21.73236766 8.390625 9.0703125 C5.4743239 6.48737456 2.6741056 3.8334564 0 1 C0 0.67 0 0.34 0 0 Z " fill="#FBC7A1" transform="translate(156,24)"/>
<path d="M0 0 C4.23303235 3.34704884 7.84329006 6.59973766 11 11 C9.74507047 14.76478859 8.16902481 15.69380667 5.0625 18.125 C1.2680907 21.15073542 -2.41936462 24.22397726 -6 27.5 C-10.29991791 31.41891252 -14.75919547 35.09170869 -19.28125 38.75 C-21.92147729 40.93501569 -24.4672972 43.19171391 -27 45.5 C-30.59012843 48.75696451 -34.22505965 51.94522091 -37.9375 55.0625 C-38.83339844 55.81660156 -39.72929687 56.57070313 -40.65234375 57.34765625 C-43 59 -43 59 -46 59 C-48.26171875 56.8125 -48.26171875 56.8125 -50.6875 54 C-51.89986328 52.6078125 -51.89986328 52.6078125 -53.13671875 51.1875 C-53.75160156 50.465625 -54.36648438 49.74375 -55 49 C-53.74507047 45.23521141 -52.16902481 44.30619333 -49.0625 41.875 C-45.2680907 38.84926458 -41.58063538 35.77602274 -38 32.5 C-33.70008209 28.58108748 -29.24080453 24.90829131 -24.71875 21.25 C-21.23440588 18.36640487 -17.90795976 15.3278028 -14.56640625 12.28125 C-10.85784077 8.98474735 -7.01151234 5.86764531 -3.15234375 2.75 C-1.14403815 1.17822462 -1.14403815 1.17822462 0 0 Z " fill="#000102" transform="translate(346,402)"/>
<path d="M0 0 C1.70372179 1.70372179 1.21897658 3.92901862 1.29711914 6.26318359 C1.3570681 7.9516188 1.3570681 7.9516188 1.41822815 9.67416382 C1.45681442 10.90317413 1.4954007 12.13218445 1.53515625 13.3984375 C1.57813339 14.65830475 1.62111053 15.918172 1.66539001 17.21621704 C1.75583004 19.89458622 1.8444565 22.57294005 1.92993164 25.25146484 C2.03860224 28.65499983 2.15295423 32.05831092 2.26950932 35.46158409 C2.38114937 38.73212718 2.48939203 42.00278117 2.59765625 45.2734375 C2.65857201 47.08658951 2.65857201 47.08658951 2.72071838 48.93637085 C2.94423124 55.9619078 3.03807706 62.97090036 3 70 C-5.415 70.495 -5.415 70.495 -14 71 C-16.41277905 24.36011919 -16.41277905 24.36011919 -16 1 C-10.58173302 0.28362892 -5.46853563 -0.19187844 0 0 Z " fill="#050302" transform="translate(32,15)"/>
<path d="M0 0 C5.28 0 10.56 0 16 0 C16 13.2 16 26.4 16 40 C10.72 40 5.44 40 0 40 C0 26.8 0 13.6 0 0 Z " fill="#000000" transform="translate(200,232)"/>
<path d="M0 0 C0.86962891 2.60449219 0.86962891 2.60449219 1.7265625 6.046875 C2.190625 7.903125 2.190625 7.903125 2.6640625 9.796875 C2.82165039 10.44591797 2.97923828 11.09496094 3.14160156 11.76367188 C3.62029189 13.73065393 4.11374508 15.69347653 4.609375 17.65625 C7.21022115 28.19076969 7.21022115 28.19076969 7 33 C4.91952703 33.5321441 2.83547707 34.05031786 0.75 34.5625 C-0.41015625 34.85253906 -1.5703125 35.14257812 -2.765625 35.44140625 C-5.83169678 35.97093314 -7.13030432 35.8538163 -10 35 C-11.0029846 31.08714061 -11.99970697 27.17274436 -12.99072266 23.25683594 C-13.32853375 21.92567238 -13.66803521 20.59493658 -14.00927734 19.26464844 C-14.50024399 17.3494491 -14.98457742 15.43255319 -15.46875 13.515625 C-15.76201172 12.36352539 -16.05527344 11.21142578 -16.35742188 10.02441406 C-17 7 -17 7 -17 3 C-14.54383175 2.30378686 -12.0855877 1.61775372 -9.625 0.9375 C-8.57699219 0.63875977 -8.57699219 0.63875977 -7.5078125 0.33398438 C-2.2265625 -1.11328125 -2.2265625 -1.11328125 0 0 Z " fill="#0D0D0D" transform="translate(409,398)"/>
<path d="M0 0 C5.00099548 2.65848126 9.7045025 5.25876024 14 9 C12.67222482 12.5995593 11.06824929 15.66099373 8.9609375 18.86328125 C8.38085938 19.74951172 7.80078125 20.63574219 7.203125 21.54882812 C6.59984375 22.46083984 5.9965625 23.37285156 5.375 24.3125 C4.76398438 25.24384766 4.15296875 26.17519531 3.5234375 27.13476562 C2.01957 29.42581376 0.51165714 31.71408719 -1 34 C-4.86374965 32.5224342 -7.94801477 30.79742937 -11.3125 28.375 C-12.19550781 27.74335938 -13.07851563 27.11171875 -13.98828125 26.4609375 C-14.65214844 25.97882813 -15.31601562 25.49671875 -16 25 C-14.69629642 21.44978827 -13.14476397 18.49866942 -10.99609375 15.390625 C-10.42052734 14.55402344 -9.84496094 13.71742188 -9.25195312 12.85546875 C-8.65318359 11.99566406 -8.05441406 11.13585937 -7.4375 10.25 C-6.83486328 9.37472656 -6.23222656 8.49945313 -5.61132812 7.59765625 C-1.17569314 1.17569314 -1.17569314 1.17569314 0 0 Z " fill="#0F0F0F" transform="translate(369,243)"/>
<path d="M0 0 C5.48996705 2.03439946 9.98764493 5.10805861 14.8125 8.375 C16.13797852 9.24125 16.13797852 9.24125 17.49023438 10.125 C18.32490234 10.68960937 19.15957031 11.25421875 20.01953125 11.8359375 C20.78370361 12.34688965 21.54787598 12.8578418 22.33520508 13.38427734 C23.15927856 14.18406006 23.15927856 14.18406006 24 15 C24 19.62589639 23.016761 20.97485851 20.5 24.75 C19.8503125 25.73484375 19.200625 26.7196875 18.53125 27.734375 C18.0259375 28.48203125 17.520625 29.2296875 17 30 C13.45469525 29.35646959 11.03359107 27.89954184 8.05078125 25.91015625 C7.12072266 25.29076172 6.19066406 24.67136719 5.23242188 24.03320312 C4.26884766 23.38287109 3.30527344 22.73253906 2.3125 22.0625 C1.33732422 21.41603516 0.36214844 20.76957031 -0.64257812 20.10351562 C-7.86993475 15.26013049 -7.86993475 15.26013049 -9 13 C-7.68889201 11.01989841 -6.37618664 9.04088963 -5.0625 7.0625 C-4.50272461 6.21655273 -4.50272461 6.21655273 -3.93164062 5.35351562 C-1.11328125 1.11328125 -1.11328125 1.11328125 0 0 Z " fill="#0E0E0E" transform="translate(428,377)"/>
<path d="M0 0 C0.99902344 1.9777832 0.99902344 1.9777832 1.859375 4.55078125 C2.17003906 5.47697266 2.48070312 6.40316406 2.80078125 7.35742188 C3.11402344 8.33259766 3.42726563 9.30777344 3.75 10.3125 C4.07871094 11.27607422 4.40742188 12.23964844 4.74609375 13.23242188 C7.46556011 21.51130363 7.46556011 21.51130363 6 25 C3.41796875 26.30078125 3.41796875 26.30078125 0.1875 27.3125 C-0.87082031 27.65925781 -1.92914063 28.00601562 -3.01953125 28.36328125 C-6.02278336 29.00486722 -7.22869806 29.18430212 -10 28 C-11.09667969 26.00634766 -11.09667969 26.00634766 -11.921875 23.4140625 C-12.37626953 22.01800781 -12.37626953 22.01800781 -12.83984375 20.59375 C-13.14019531 19.6140625 -13.44054687 18.634375 -13.75 17.625 C-14.06582031 16.65304688 -14.38164062 15.68109375 -14.70703125 14.6796875 C-17 7.49306683 -17 7.49306683 -17 4 C-14.73291675 3.1344953 -12.46224921 2.28240685 -10.1875 1.4375 C-9.54490234 1.19064453 -8.90230469 0.94378906 -8.24023438 0.68945312 C-3.33984375 -1.11328125 -3.33984375 -1.11328125 0 0 Z " fill="#10100F" transform="translate(337,238)"/>
<path d="M0 0 C5.28 0 10.56 0 16 0 C16 5.28 16 10.56 16 16 C10.72 16 5.44 16 0 16 C0 10.72 0 5.44 0 0 Z " fill="#000000" transform="translate(128,104)"/>
</svg>
