<?xml version="1.0" encoding="UTF-8"?>
<svg version="1.1" xmlns="http://www.w3.org/2000/svg" width="512" height="512">
<path d="M0 0 C18.94230641 7.79977323 34.53983871 44.17414091 42 62 C46.634787 59.3984255 51.11676788 56.66833183 55.5625 53.75 C94.87782176 28.38746609 94.87782176 28.38746609 112 30 C116.72556133 31.69406916 119.44118001 33.67647657 122 38 C129.58416002 58.35376897 130.45167427 90.01645861 125 111 C126.28519531 110.84015625 127.57039063 110.6803125 128.89453125 110.515625 C136.80739805 109.73170494 144.74376204 109.75768031 152.6875 109.75 C153.50348663 109.74866058 154.31947327 109.74732117 155.16018677 109.74594116 C165.31800321 109.74955086 175.34965449 109.98867554 185.4375 111.3125 C186.34008545 111.43012695 187.2426709 111.54775391 188.17260742 111.66894531 C194.07991285 112.5672463 198.95950559 113.90282519 203.25 118.3125 C206.44950818 123.22603042 207.31250748 126.87963487 206.49291992 132.71411133 C205.56615955 137.01191091 203.78068027 140.93384744 202 144.9375 C201.59628174 145.85700439 201.19256348 146.77650879 200.77661133 147.72387695 C194.1962157 162.50133174 186.37248521 175.96729408 177.18579102 189.27685547 C176.10923109 190.84126971 175.05340082 192.41989877 174 194 C174.95700806 194.45886597 174.95700806 194.45886597 175.93334961 194.92700195 C194.19742106 203.73514847 211.10166835 213.37696374 227 226 C228.20849609 226.9590625 228.20849609 226.9590625 229.44140625 227.9375 C233.88427054 231.62531579 236.54741235 234.14570515 237.2421875 240.0625 C237.56273929 245.64387227 236.4110272 249.47759812 233 254 C230.64839376 256.30613712 228.09358113 258.24538321 225.4375 260.1875 C224.69443604 260.74139404 223.95137207 261.29528809 223.18579102 261.8659668 C209.91975132 271.60840917 195.99534496 280.19672791 181 287 C180.3385498 287.30244629 179.67709961 287.60489258 178.99560547 287.91650391 C161.17425461 295.95089507 141.79701608 302.19424737 122.1171875 302.0390625 C121.42939209 302.03624268 120.74159668 302.03342285 120.03295898 302.03051758 C118.35529098 302.02322971 116.67764075 302.01202323 115 302 C118.70775712 309.21500682 122.43591797 316.41871858 126.19448853 323.60736084 C128.12116357 327.29690333 130.01409771 331.00154716 131.88671875 334.71875 C137.43633976 345.52488184 143.82997596 353.97572408 152.48486328 362.48876953 C154.47822705 364.47699411 156.34253109 366.56169015 158.1875 368.6875 C158.67605469 369.24824219 159.16460937 369.80898438 159.66796875 370.38671875 C160.10753906 370.91910156 160.54710937 371.45148438 161 372 C161.54914063 372.65613281 162.09828125 373.31226563 162.6640625 373.98828125 C164.6429338 376.96816054 164.18751701 379.49968249 164 383 C163.58099277 386.9175581 163.58099277 386.9175581 165.64453125 389.03515625 C166.35996094 389.70417969 167.07539063 390.37320312 167.8125 391.0625 C168.52019531 391.73410156 169.22789062 392.40570313 169.95703125 393.09765625 C170.63121094 393.72542969 171.30539062 394.35320312 172 395 C172.52207031 395.58652344 173.04414063 396.17304688 173.58203125 396.77734375 C174.04996094 397.18082031 174.51789063 397.58429688 175 398 C175.94875 397.835 176.8975 397.67 177.875 397.5 C181 397 181 397 183.4375 398 C188.91983285 402.27889393 193.46233408 407.43206247 197.97265625 412.69921875 C199.99810859 414.99785348 202.09853465 417.21415155 204.21044922 419.43310547 C211.26818889 426.92014237 215.49032174 432.75029283 216.1015625 443.2578125 C215.82896636 450.61790826 212.7134927 457.48890145 207.3515625 462.55859375 C197.79108856 470.38257344 188.06588475 471.63411949 176 471 C175.87044922 472.34191406 175.87044922 472.34191406 175.73828125 473.7109375 C174.27749743 486.28171935 170.46408351 495.37680196 161 504 C151.49140308 510.96005449 143.38297898 512.29861533 131.84980774 512.27415466 C130.0159379 512.28200968 130.0159379 512.28200968 128.14502019 512.29002339 C124.76346423 512.30240668 121.38211651 512.30586756 118.0005523 512.30542648 C114.34872242 512.30707877 110.69693004 512.32015297 107.04512024 512.33161926 C99.06564518 512.35443643 91.08619677 512.36238631 83.10669351 512.36744571 C78.1206315 512.37070651 73.13457717 512.3772313 68.14851952 512.3844471 C54.33281485 512.40400864 40.51711731 512.42041549 26.7013979 512.42332363 C25.81787911 512.4235112 24.93436033 512.42369877 24.02406825 512.42389202 C22.23310514 512.42425827 20.44214204 512.42462196 18.65117893 512.42498314 C17.31769668 512.42525735 17.31769668 512.42525735 15.95727539 512.42553711 C15.06719719 512.42571766 14.177119 512.42589821 13.26006874 512.42608423 C-1.15826706 512.42962492 -15.57645342 512.45664275 -29.99473741 512.494035 C-44.81174755 512.53215257 -59.62868361 512.55148136 -74.44574386 512.55178314 C-82.75937711 512.55236693 -91.07283206 512.56080816 -99.3864193 512.58978081 C-106.46618801 512.6143409 -113.54571338 512.62154649 -120.62551322 512.60653328 C-124.23422644 512.5993832 -127.84245962 512.60013853 -131.45111847 512.62294388 C-135.37258595 512.64748747 -139.29337552 512.63284473 -143.21488953 512.61473083 C-144.34244508 512.6279308 -145.47000063 512.64113077 -146.63172454 512.65473074 C-158.40922029 512.53095199 -167.49770085 508.42224397 -175.87890625 500.2421875 C-176.92884766 499.13230469 -176.92884766 499.13230469 -178 498 C-178.52464844 497.44570313 -179.04929687 496.89140625 -179.58984375 496.3203125 C-185.15588108 489.51925777 -187.20094651 479.58982505 -188 471 C-188.88300781 471.04640625 -189.76601562 471.0928125 -190.67578125 471.140625 C-201.82638128 471.47598139 -209.75118963 470.06588617 -218.4375 462.8125 C-224.58114589 456.81536394 -227.12989828 451.58853687 -227.5 443 C-226.95821044 431.06557994 -220.41307711 424.71617959 -212.49121094 416.55175781 C-210.41867071 414.39506729 -208.42676747 412.17093749 -206.4375 409.9375 C-203.11064656 406.22422438 -199.75070101 402.54374253 -196.375 398.875 C-193.39775181 395.63788971 -190.44046979 392.3886208 -187.5625 389.0625 C-183.98062691 384.930891 -180.26162042 380.93070073 -176.54541016 376.92041016 C-172.79174562 372.86692093 -169.07427197 368.78436215 -165.40991211 364.6496582 C-163.80048499 362.88011991 -162.1515052 361.14578318 -160.46582031 359.44873047 C-152.97086215 351.76267121 -148.10810379 343.73907449 -143.3125 334.1875 C-142.61308903 332.82656755 -141.9119191 331.46653762 -141.20898438 330.10742188 C-139.82326711 327.42389857 -138.44680955 324.73593503 -137.07666016 322.04443359 C-133.80868217 315.64842507 -130.40034393 309.32631396 -127 303 C-128.96453125 302.88785156 -128.96453125 302.88785156 -130.96875 302.7734375 C-171.13001049 300.05531028 -206.26443437 283.39207832 -237.875 259.125 C-238.44001221 258.69711182 -239.00502441 258.26922363 -239.5871582 257.82836914 C-244.05020111 254.30268156 -247.40665613 250.73010983 -248.63671875 245.0703125 C-248.66185547 243.61238281 -248.66185547 243.61238281 -248.6875 242.125 C-248.73261719 241.15820312 -248.77773437 240.19140625 -248.82421875 239.1953125 C-246.81673969 231.41276336 -239.18912636 226.17992157 -233 221.5625 C-232.25943359 221.0046582 -231.51886719 220.44681641 -230.75585938 219.87207031 C-223.79524462 214.70956483 -216.57759613 210.19206123 -209 206 C-208.27683594 205.5973291 -207.55367187 205.1946582 -206.80859375 204.77978516 C-204.54589955 203.52763813 -202.27544039 202.29131703 -200 201.0625 C-198.95875977 200.49547363 -198.95875977 200.49547363 -197.89648438 199.91699219 C-193.6637932 197.6779599 -189.64935684 196.15628536 -185 195 C-185.31114746 194.54898926 -185.62229492 194.09797852 -185.94287109 193.63330078 C-220.63021855 143.11070186 -220.63021855 143.11070186 -218 124 C-216.36960478 119.02094874 -213.67975243 116.38635112 -209.05541992 113.88989258 C-205.29726812 112.26280346 -201.48060086 111.74614885 -197.4375 111.25 C-196.48020996 111.12786133 -195.52291992 111.00572266 -194.53662109 110.87988281 C-184.41840932 109.76826515 -174.2916592 109.73784721 -164.125 109.75 C-162.87950882 109.75102722 -162.87950882 109.75102722 -161.6088562 109.7520752 C-159.20003089 109.75862164 -156.79154459 109.77505269 -154.3828125 109.796875 C-153.67098312 109.80126587 -152.95915375 109.80565674 -152.22575378 109.81018066 C-147.10380555 109.88079559 -142.08058098 110.35778419 -137 111 C-137.06983093 110.44756622 -137.13966187 109.89513245 -137.21160889 109.32595825 C-137.84081824 104.07212283 -138.1704993 98.90632964 -138.203125 93.6171875 C-138.21009399 92.84795456 -138.21706299 92.07872162 -138.22424316 91.28617859 C-138.24153175 88.81572942 -138.24796244 86.34550714 -138.25 83.875 C-138.25100708 83.03250702 -138.25201416 82.19001404 -138.25305176 81.32199097 C-138.24472284 71.01384846 -138.05662043 60.80343925 -136.75 50.5625 C-136.64075195 49.67224121 -136.53150391 48.78198242 -136.41894531 47.86474609 C-135.55648275 42.10254542 -134.0563079 36.69830765 -129.51391602 32.68798828 C-124.83962923 29.59594321 -120.46970858 29.42530604 -115 30 C-111.7859722 30.82161293 -108.79916306 32.01465585 -105.75 33.3125 C-104.89446533 33.66715332 -104.03893066 34.02180664 -103.1574707 34.38720703 C-87.49453175 41.0386506 -72.9205512 49.25040047 -59 59 C-57.00680348 60.34391038 -55.00440159 61.67280196 -53 63 C-52.83636963 62.45617676 -52.67273926 61.91235352 -52.50415039 61.35205078 C-50.67044756 55.53276839 -48.31237109 50.24912526 -45.4375 44.875 C-44.99986328 44.05241699 -44.56222656 43.22983398 -44.11132812 42.38232422 C-39.88766476 34.5770064 -35.17794977 27.20253214 -30 20 C-29.57686523 19.40928711 -29.15373047 18.81857422 -28.71777344 18.20996094 C-13.83805386 -2.35541342 -13.83805386 -2.35541342 0 0 Z M-82 351 C-82.34667725 351.68924561 -82.69335449 352.37849121 -83.05053711 353.08862305 C-92.42879353 371.65133823 -101.64691751 387.01906627 -116.1328125 401.95703125 C-119.89948896 405.85138367 -123.46027787 409.90000623 -127 414 C-128.47677835 415.66878324 -129.95542661 417.33591759 -131.4375 419 C-132.11683594 419.763125 -132.79617187 420.52625 -133.49609375 421.3125 C-133.99238281 421.869375 -134.48867187 422.42625 -135 423 C-133.00772836 424.28126992 -133.00772836 424.28126992 -130.75413513 423.32974243 C-129.82005325 422.95747528 -128.88597137 422.58520813 -127.92358398 422.20166016 C-126.86586288 421.78437653 -125.80814178 421.3670929 -124.71836853 420.93716431 C-123.57251785 420.47579071 -122.42666718 420.01441711 -121.24609375 419.5390625 C-120.07490494 419.07390228 -118.90371613 418.60874207 -117.69703674 418.12948608 C-115.21650853 417.14263848 -112.73733889 416.15299458 -110.26000977 415.15820312 C-107.07932095 413.88106366 -103.89513731 412.61294472 -100.70953274 411.34812355 C-97.67874006 410.14422549 -94.6499002 408.93544727 -91.62109375 407.7265625 C-90.47321884 407.26923737 -89.32534393 406.81191223 -88.14268494 406.34072876 C-87.088116 405.91714081 -86.03354706 405.49355286 -84.94702148 405.05712891 C-84.0137352 404.68327057 -83.08044891 404.30941223 -82.11888123 403.92422485 C-80.05638919 403.17819827 -80.05638919 403.17819827 -79 402 C-78.89460778 399.61317608 -78.85962458 397.26223652 -78.875 394.875 C-78.87765869 394.13233887 -78.88031738 393.38967773 -78.88305664 392.62451172 C-78.93554763 386.11961537 -79.16286793 379.62391885 -79.4375 373.125 C-79.47665527 372.18769043 -79.51581055 371.25038086 -79.55615234 370.28466797 C-79.8521034 363.83610983 -80.36571402 357.42379939 -81 351 C-81.33 351 -81.66 351 -82 351 Z M69 352 C68.34 368.5 67.68 385 67 402 C75.99341257 405.68347217 84.99070304 409.35576826 94 413 C94.65921448 413.26689636 95.31842896 413.53379272 95.99761963 413.80877686 C99.89446234 415.38530753 103.79490136 416.95236448 107.70056152 418.50692749 C109.54754827 419.24403298 111.39146789 419.98880868 113.23535156 420.73364258 C114.35522461 421.17732178 115.47509766 421.62100098 116.62890625 422.078125 C117.61963135 422.47418945 118.61035645 422.87025391 119.63110352 423.27832031 C121.98734351 424.29318646 121.98734351 424.29318646 124 423 C123.43152344 422.443125 122.86304688 421.88625 122.27734375 421.3125 C118.01525035 417.10021404 113.9054797 412.83936235 110.0078125 408.2890625 C107.92984091 405.92001317 105.79321222 403.61690182 103.64086914 401.31567383 C89.65657715 386.33636648 80.43664769 370.04321989 71 352 C70.34 352 69.68 352 69 352 Z " fill="#020101" transform="translate(262,0)"/>
<path d="M0 0 C3.63 0 7.26 0 11 0 C11.37125 1.27875 11.7425 2.5575 12.125 3.875 C15.98359728 15.34260686 22.45893806 23.88846007 33.25 29.375 C43.30875691 34.14908006 54.79223896 34.70992629 65.671875 32.12890625 C76.3783716 27.89900798 84.40185656 21.06505582 90 11 C91.54457659 7.38989496 92.8510469 3.75372255 94 0 C97.3 0 100.6 0 104 0 C104.00879936 1.06543282 104.00879936 1.06543282 104.01777649 2.15238953 C104.07609873 8.90324821 104.14839486 15.65383444 104.23571491 22.40437603 C104.2801139 25.87348213 104.31943318 29.34247899 104.34643555 32.81176758 C104.37784006 36.81620425 104.43261112 40.8200453 104.48828125 44.82421875 C104.49786613 46.65940315 104.49786613 46.65940315 104.50764465 48.53166199 C104.6732893 58.40835591 105.44667563 75.44667563 113 83 C113.10150308 86.00926782 113.13857524 88.99082202 113.125 92 C113.12886719 92.82628906 113.13273437 93.65257812 113.13671875 94.50390625 C113.12799822 100.0763272 112.70215713 105.47190577 112 111 C73.42375753 119.86758432 31.42719832 122.48161242 -7 111 C-9.66984476 108.33015524 -8.68771302 101.15411809 -8.875 97.5625 C-9.00261719 95.83483398 -9.00261719 95.83483398 -9.1328125 94.07226562 C-9.53989743 85.91668908 -8.12602343 80.95919352 -4 74 C-1.06907061 66.5076242 0.44075313 57.98653702 -1 50 C-3.4311984 47.54811055 -4.60331801 47.04857331 -8.0625 46.625 C-10.91380632 46.76690711 -10.91380632 46.76690711 -12.62890625 48.08984375 C-14.6573555 50.91580297 -14.58385362 53.49700192 -14.875 56.9375 C-16.15398349 68.45248603 -21.2198329 77.64138552 -26.85351562 87.59301758 C-30.37975271 93.82377555 -33.71143124 100.14104638 -37 106.5 C-38.51751203 109.4119434 -40.03736338 112.32265249 -41.55810547 115.23291016 C-42.48622844 117.0140388 -43.41008009 118.79740308 -44.32861328 120.58349609 C-49.80247679 131.19213422 -55.55298964 139.53987316 -64 148 C-65.15936147 149.30056575 -66.30679714 150.61194301 -67.4375 151.9375 C-71.01937309 156.069109 -74.73837958 160.06929927 -78.45458984 164.07958984 C-82.24887039 168.17693929 -85.99546447 172.31410773 -89.72265625 176.47265625 C-92.29809775 179.33082203 -94.89685764 182.16710261 -97.5 185 C-100.85293117 188.64927171 -104.18998357 192.31169598 -107.5 196 C-108.21929687 196.79664063 -108.93859375 197.59328125 -109.6796875 198.4140625 C-111.38560029 200.31526497 -113.07549891 202.22662384 -114.7578125 204.1484375 C-115.71330199 205.22417127 -116.66902779 206.29969519 -117.625 207.375 C-118.48351562 208.35210937 -119.34203125 209.32921875 -120.2265625 210.3359375 C-125.53867805 215.43856117 -131.29684005 218.3919204 -138.80859375 218.28125 C-143.86890086 217.63179882 -147.72567514 215.11503425 -151.5 211.8125 C-153.61896511 207.83944042 -153.80664768 204.42092595 -153 200 C-151.38020862 197.20964791 -149.27006202 195.14581085 -146.9375 192.9375 C-145.72849164 191.71941963 -144.52015157 190.50067556 -143.3125 189.28125 C-142.73242188 188.71019531 -142.15234375 188.13914062 -141.5546875 187.55078125 C-139.75398458 185.75460271 -138.08156318 183.87749456 -136.4375 181.9375 C-132.9031157 177.8418239 -129.22153902 173.88739625 -125.54492188 169.91992188 C-121.75084511 165.82269791 -118.00438191 161.68572087 -114.27734375 157.52734375 C-111.70190207 154.66917777 -109.10312271 151.83291561 -106.5 149 C-102.38350917 144.51911717 -98.28907327 140.02010736 -94.24609375 135.47265625 C-92.71022339 133.78186332 -91.13759885 132.12393164 -89.53515625 130.49609375 C-82.3325082 123.04928814 -77.72646045 115.10985632 -73 106 C-72.06395953 104.21085512 -71.12775344 102.42179688 -70.19140625 100.6328125 C-68.67280606 97.72549241 -67.15729029 94.81668912 -65.6484375 91.90429688 C-62.22557672 85.30429706 -58.71030239 78.76299159 -55.125 72.25 C-50.5768641 63.98243624 -46.196637 55.63802932 -41.875 47.25 C-22.33681897 9.44560632 -22.33681897 9.44560632 -15 7 C-14.96132813 8.44632813 -14.96132813 8.44632813 -14.921875 9.921875 C-14.86515625 11.18515625 -14.8084375 12.4484375 -14.75 13.75 C-14.70359375 15.00296875 -14.6571875 16.2559375 -14.609375 17.546875 C-13.92247053 21.43933365 -13.19821273 22.73603221 -10 25 C-6.37350049 25.08916154 -6.37350049 25.08916154 -3 24 C-0.87719437 20.81579155 -0.71980463 19.79462745 -0.5859375 16.11328125 C-0.52792969 14.7065918 -0.52792969 14.7065918 -0.46875 13.27148438 C-0.4378125 12.29501953 -0.406875 11.31855469 -0.375 10.3125 C-0.31699219 8.83040039 -0.31699219 8.83040039 -0.2578125 7.31835938 C-0.16354601 4.8792139 -0.0806841 2.43963253 0 0 Z " fill="#4BAAB8" transform="translate(204,238)"/>
<path d="M0 0 C-1.96668418 7.34646568 -4.6347996 14.09367524 -7.9375 20.9375 C-8.41767578 21.93313965 -8.89785156 22.9287793 -9.39257812 23.95458984 C-16.83168788 39.05656007 -25.74620698 52.50775129 -37 65 C-38.16703363 66.39552653 -39.33374719 67.79132086 -40.5 69.1875 C-46.07217774 75.52317325 -52.52902453 81.09069446 -59.1875 86.25 C-62.28289709 88.7282794 -62.28289709 88.7282794 -62.5 92.1875 C-62.0583053 95.06724209 -62.0583053 95.06724209 -61 98 C-55.92420961 98.86030346 -53.30178724 98.7829938 -48.82421875 96.08984375 C-42.58864796 91.51340488 -37.08777825 86.35258952 -32 80.51953125 C-30 79 -30 79 -27.70117188 79.265625 C-6.54536242 85.01731289 13.05468091 99.56471042 30 113 C22.37354399 129.72341547 -8.97564747 142.25654486 -25.41748047 148.5378418 C-28.6011864 149.72212069 -31.79996422 150.86049146 -35 152 C-35.60996826 152.24967529 -36.21993652 152.49935059 -36.84838867 152.7565918 C-42.53938162 155.06072866 -48.26728433 156.19033098 -54.3125 157.1875 C-55.87581055 157.44901855 -55.87581055 157.44901855 -57.47070312 157.71582031 C-67.0521861 159.20763561 -76.33739309 159.32805741 -86 159 C-86.47421387 158.07662842 -86.94842773 157.15325684 -87.43701172 156.2019043 C-89.19821667 152.77372256 -90.96178812 149.34676293 -92.72607422 145.92016602 C-93.48908985 144.43742527 -94.25146478 142.95435463 -95.01318359 141.47094727 C-96.10866393 139.33783139 -97.20644886 137.20591555 -98.3046875 135.07421875 C-98.6443454 134.41161545 -98.9840033 133.74901215 -99.33395386 133.06632996 C-100.77758543 130.26899579 -102.25144272 127.62283592 -104 125 C-104 124.01 -104 123.02 -104 122 C-103.37955811 121.80889648 -102.75911621 121.61779297 -102.11987305 121.42089844 C-99.30440919 120.54487093 -96.49611508 119.64773085 -93.6875 118.75 C-92.22280273 118.29947266 -92.22280273 118.29947266 -90.72851562 117.83984375 C-89.79072266 117.53691406 -88.85292969 117.23398438 -87.88671875 116.921875 C-87.02264404 116.64956055 -86.15856934 116.37724609 -85.26831055 116.09667969 C-82.58694576 114.8002971 -81.50929534 113.54421463 -80 111 C-79.69318599 107.85515635 -79.99275686 106.02172942 -81 103 C-87.53631676 102.2929465 -92.91534547 103.38820931 -99.0625 105.4375 C-110.69084077 109.25281711 -110.69084077 109.25281711 -116 109 C-117.92705346 107.743226 -119.42467804 106.32508982 -121.046875 104.6953125 C-126.00754213 100.38945343 -132.95576263 98.40023867 -139 96 C-135.96335929 92.64922404 -132.75806432 90.04837803 -129.0625 87.4375 C-100.32844767 66.83572663 -77.88013114 37.0946607 -70.47265625 2.01953125 C-70 0 -70 0 -69 -1 C-46.31227488 -5.28719771 -22.64110394 -3.54513676 0 0 Z " fill="#F092B8" transform="translate(453,128)"/>
<path d="M0 0 C8.79783808 4.19699459 13.0015488 13.05169163 17.3125 21.375 C18.22244213 23.09778414 19.13239328 24.82056354 20.04264832 26.54318237 C21.0192696 28.39593137 21.9906982 30.25132362 22.9609375 32.10742188 C25.06324203 36.12641383 27.186169 40.13430443 29.3125 44.140625 C32.33985326 49.84689387 35.36379274 55.55494229 38.3828125 61.265625 C38.76212921 61.98302856 39.14144592 62.70043213 39.53225708 63.4395752 C41.47122203 67.10706843 43.4093932 70.77497925 45.34667969 74.44335938 C47.26038817 78.06668737 49.17668587 81.68863618 51.09457397 85.30975342 C51.80940461 86.66053242 52.5233296 88.01179117 53.23623657 89.36358643 C61.54420826 106.03464694 61.54420826 106.03464694 72.875 120.625 C73.91468345 121.70904022 74.95373936 122.79368262 75.9921875 123.87890625 C76.4984668 124.4011377 77.00474609 124.92336914 77.52636719 125.46142578 C79.74323548 127.77598907 81.86963379 130.16847461 84 132.5625 C85.32426539 134.04979048 86.65693259 135.52966612 88 137 C88.680625 137.74636719 89.36125 138.49273437 90.0625 139.26171875 C91.94112679 141.29903128 91.94112679 141.29903128 95 141.25 C95.99 141.1675 96.98 141.085 98 141 C102 141 102 141 104.25390625 142.79296875 C105.01574219 143.58316406 105.77757812 144.37335938 106.5625 145.1875 C107.32691406 145.96480469 108.09132813 146.74210938 108.87890625 147.54296875 C110.92484495 149.91294194 112.48170226 152.26900438 114 155 C113.34 155.99 112.68 156.98 112 158 C111.93304864 161.48147077 112.15914748 163.95071079 114.38671875 166.73046875 C115.58670389 167.90888112 116.80984973 169.06400554 118.05078125 170.19921875 C119.95409555 171.95759128 121.62679426 173.78401064 123.3125 175.75 C127.06975691 180.11354155 130.9627814 184.34703218 134.86328125 188.58203125 C137.56352759 191.63770307 138.93093658 193.25411511 139.3125 197.375 C138.96398797 201.41773951 138.64912615 202.94949111 136 206 C131.16779683 209.6316558 126.43105342 211.90659314 120.30859375 211.4609375 C110.39419322 209.48141252 104.56279817 202.89018244 98.29638672 195.51806641 C96.40744832 193.3061231 94.45323348 191.15517206 92.5 189 C91.778125 188.195625 91.05625 187.39125 90.3125 186.5625 C87.72384997 183.69399591 85.11414854 180.8452335 82.5 178 C78.40833893 173.54664513 74.35177054 169.06340146 70.3125 164.5625 C67.72384797 161.69399369 65.11390462 158.84545928 62.5 156 C57.63367277 150.69525734 52.77095713 145.39091754 48 140 C47.21778076 139.1219873 46.43556152 138.24397461 45.62963867 137.33935547 C39.61259205 130.38003804 35.06675433 123.3571282 30.875 115.125 C30.24916188 113.92344111 29.62176141 112.72269488 28.99291992 111.52270508 C27.67268116 108.9999895 26.35956076 106.4737551 25.05126953 103.94482422 C21.87676745 97.82228353 18.61821524 91.74432608 15.36700439 85.66229248 C14.33522484 83.73005729 13.30653823 81.79620822 12.27880859 79.86181641 C11.95765076 79.25839417 11.63649292 78.65497192 11.30560303 78.03326416 C10.39445993 76.32033402 9.48552072 74.60623216 8.57666016 72.89208984 C7.36101256 70.6622104 6.09149303 68.534203 4.73046875 66.39453125 C0.25874784 57.62269046 -0.43537483 48.36215746 -0.29296875 38.671875 C-0.28872391 37.55685608 -0.28447906 36.44183716 -0.28010559 35.29302979 C-0.26349235 31.77842674 -0.22587342 28.26442579 -0.1875 24.75 C-0.17243072 22.34766461 -0.15874627 19.94532011 -0.14648438 17.54296875 C-0.113646 11.69511172 -0.06362358 5.84759889 0 0 Z " fill="#FDCBBC" transform="translate(323,245)"/>
<path d="M0 0 C0.03867187 1.44632813 0.03867187 1.44632813 0.078125 2.921875 C0.13484375 4.18515625 0.1915625 5.4484375 0.25 6.75 C0.29640625 8.00296875 0.3428125 9.2559375 0.390625 10.546875 C1.07986503 14.45256849 1.87375246 15.64960951 5 18 C5.99 18.33 6.98 18.66 8 19 C8 25.6 8 32.2 8 39 C6.35 39.66 4.7 40.32 3 41 C0.19988577 43.80011423 0.55149168 45.96308943 0.1875 49.875 C-1.16077753 61.39975846 -6.20910169 70.62242935 -11.85351562 80.59301758 C-15.37975271 86.82377555 -18.71143124 93.14104638 -22 99.5 C-23.51751203 102.4119434 -25.03736338 105.32265249 -26.55810547 108.23291016 C-27.48622844 110.0140388 -28.41008009 111.79740308 -29.32861328 113.58349609 C-34.80247679 124.19213422 -40.55298964 132.53987316 -49 141 C-50.15936147 142.30056575 -51.30679714 143.61194301 -52.4375 144.9375 C-56.01937309 149.069109 -59.73837958 153.06929927 -63.45458984 157.07958984 C-67.24887039 161.17693929 -70.99546447 165.31410773 -74.72265625 169.47265625 C-77.29809775 172.33082203 -79.89685764 175.16710261 -82.5 178 C-85.85293117 181.64927171 -89.18998357 185.31169598 -92.5 189 C-93.21929687 189.79664063 -93.93859375 190.59328125 -94.6796875 191.4140625 C-96.38560029 193.31526497 -98.07549891 195.22662384 -99.7578125 197.1484375 C-100.71330199 198.22417127 -101.66902779 199.29969519 -102.625 200.375 C-103.48351562 201.35210937 -104.34203125 202.32921875 -105.2265625 203.3359375 C-110.53867805 208.43856117 -116.29684005 211.3919204 -123.80859375 211.28125 C-128.86890086 210.63179882 -132.72567514 208.11503425 -136.5 204.8125 C-138.61896511 200.83944042 -138.80664768 197.42092595 -138 193 C-136.38020862 190.20964791 -134.27006202 188.14581085 -131.9375 185.9375 C-130.72849164 184.71941963 -129.52015157 183.50067556 -128.3125 182.28125 C-127.73242188 181.71019531 -127.15234375 181.13914062 -126.5546875 180.55078125 C-124.75398458 178.75460271 -123.08156318 176.87749456 -121.4375 174.9375 C-117.9031157 170.8418239 -114.22153902 166.88739625 -110.54492188 162.91992188 C-106.75084511 158.82269791 -103.00438191 154.68572087 -99.27734375 150.52734375 C-96.70190207 147.66917777 -94.10312271 144.83291561 -91.5 142 C-87.38350917 137.51911717 -83.28907327 133.02010736 -79.24609375 128.47265625 C-77.71022339 126.78186332 -76.13759885 125.12393164 -74.53515625 123.49609375 C-67.3325082 116.04928814 -62.72646045 108.10985632 -58 99 C-57.06395953 97.21085512 -56.12775344 95.42179688 -55.19140625 93.6328125 C-53.67280606 90.72549241 -52.15729029 87.81668912 -50.6484375 84.90429688 C-47.22557672 78.30429706 -43.71030239 71.76299159 -40.125 65.25 C-35.5768641 56.98243624 -31.196637 48.63802932 -26.875 40.25 C-6.07287332 0 -6.07287332 0 0 0 Z " fill="#F7A48D" transform="translate(189,245)"/>
<path d="M0 0 C1.10444458 0.11758667 1.10444458 0.11758667 2.23120117 0.23754883 C5.72388463 0.67303823 7.64150716 1.13600477 10.625 3.125 C11.36328125 5.1640625 11.36328125 5.1640625 11.9375 7.75 C18.40643996 33.32565436 31.33425999 54.39009438 49.625 73.125 C50.15939697 73.68566162 50.69379395 74.24632324 51.24438477 74.82397461 C55.57267204 79.28707637 60.21688289 83.08785091 65.1875 86.8125 C65.91646484 87.36744141 66.64542969 87.92238281 67.39648438 88.49414062 C71.38777226 91.51544855 75.42654205 94.39898702 79.625 97.125 C76.9887791 98.8824806 75.0616603 99.72979658 72.125 100.75 C66.74332756 102.80053505 62.73830495 105.91542359 58.36328125 109.61328125 C54.65449529 111.66078505 52.69931671 111.06726868 48.625 110.125 C47.51382813 109.88523437 46.40265625 109.64546875 45.2578125 109.3984375 C5.69865107 99.26635829 -22.91526503 73.32107202 -43.625 38.6875 C-47.1374979 32.63267006 -50.32621282 26.42471415 -53.375 20.125 C-53.74915039 19.36002197 -54.12330078 18.59504395 -54.50878906 17.80688477 C-56.914854 12.68201104 -58.37432898 7.69452426 -59.375 2.125 C-40.04473669 -1.86501427 -19.5973013 -2.12373534 0 0 Z " fill="#EF92B8" transform="translate(119.375,125.875)"/>
<path d="M0 0 C7.30165729 1.31804275 13.41293779 3.74701696 20.0625 7 C21.06966064 7.48839355 22.07682129 7.97678711 23.11450195 8.47998047 C31.79615301 12.76306662 40.02603713 17.5162448 48 23 C48.60005859 23.41056641 49.20011719 23.82113281 49.81835938 24.24414062 C59.41971373 30.89284293 59.41971373 30.89284293 60.93359375 33.78125 C61.03640734 37.21643337 60.05587399 40.35152921 59.125 43.625 C56.05834337 54.47461966 55.81833786 65.0746159 55.8125 76.3125 C55.80025391 77.54162109 55.78800781 78.77074219 55.77539062 80.03710938 C55.76437021 86.99833919 56.29139296 93.53632514 57.4675293 100.38989258 C58.10856654 104.73607217 58.46496113 109.06913439 58.78125 113.44921875 C58.87154732 114.69648491 58.87154732 114.69648491 58.96366882 115.96894836 C59.20794966 119.41124101 59.44339549 122.85410389 59.67724609 126.29711914 C60.47755928 143.49255338 60.47755928 143.49255338 66.1875 159.5 C67.18019043 161.30404631 68.13391927 163.13186683 69 165 C68.67 165.66 68.34 166.32 68 167 C60.11137365 162.25461742 52.97602017 157.00120512 46 151 C44.74896484 149.93458984 44.74896484 149.93458984 43.47265625 148.84765625 C27.6308526 135.00797628 16.12454102 119.3986195 8 100 C7.67306152 99.24831543 7.34612305 98.49663086 7.00927734 97.72216797 C4.38944908 91.50760586 2.73535677 85.3459404 1.375 78.75 C1.17132813 77.81542969 0.96765625 76.88085938 0.7578125 75.91796875 C-1.86453701 63.56266817 -3.34697706 51.51377142 -3.25 38.875 C-3.24540771 37.62468994 -3.24081543 36.37437988 -3.23608398 35.08618164 C-3.12387789 23.49328532 -2.97983674 11.27847155 0 0 Z " fill="#E85691" transform="translate(142,46)"/>
<path d="M0 0 C4.830808 9.66161599 3.31754512 24.79582677 3.26074219 35.37646484 C3.24994139 37.76294971 3.2607617 40.14869268 3.2734375 42.53515625 C3.28146363 51.55233694 2.64852983 60.10880134 1 69 C0.80357545 70.34284067 0.61245774 71.68648285 0.4296875 73.03125 C-3.67295947 98.68723953 -16.26974842 121.28002145 -34 140 C-35.28970703 141.40378906 -35.28970703 141.40378906 -36.60546875 142.8359375 C-45.29351713 152.0735725 -56.7319538 163.04885987 -69 167 C-68.60167969 166.28457031 -68.20335937 165.56914062 -67.79296875 164.83203125 C-67.26316406 163.83558594 -66.73335938 162.83914062 -66.1875 161.8125 C-65.66542969 160.84957031 -65.14335937 159.88664063 -64.60546875 158.89453125 C-59.89781324 148.53481422 -59.4322975 137.11992348 -58.9375 125.9375 C-58.53969077 117.42318006 -58.04984934 109.04525433 -56.46557617 100.65063477 C-52.4459275 77.76582847 -55.78611336 55.32353407 -61 33 C-17.51401869 0 -17.51401869 0 0 0 Z " fill="#E95691" transform="translate(370,46)"/>
<path d="M0 0 C21.15580946 5.75168789 40.75585278 20.29908542 57.70117188 33.734375 C50.07471586 50.45779047 18.72552441 62.99091986 2.28369141 69.2722168 C-0.90001453 70.45649569 -4.09879235 71.59486646 -7.29882812 72.734375 C-7.90879639 72.98405029 -8.51876465 73.23372559 -9.1472168 73.4909668 C-14.83820974 75.79510366 -20.56611246 76.92470598 -26.61132812 77.921875 C-28.17463867 78.18339355 -28.17463867 78.18339355 -29.76953125 78.45019531 C-39.35101422 79.94201061 -48.63622122 80.06243241 -58.29882812 79.734375 C-58.77304199 78.81100342 -59.24725586 77.88763184 -59.73583984 76.9362793 C-61.49704479 73.50809756 -63.26061624 70.08113793 -65.02490234 66.65454102 C-65.78791798 65.17180027 -66.5502929 63.68872963 -67.31201172 62.20532227 C-68.40749205 60.07220639 -69.50527699 57.94029055 -70.60351562 55.80859375 C-71.11300247 54.8146888 -71.11300247 54.8146888 -71.63278198 53.80070496 C-73.07641356 51.00337079 -74.55027084 48.35721092 -76.29882812 45.734375 C-76.29882812 44.744375 -76.29882812 43.754375 -76.29882812 42.734375 C-75.67838623 42.54327148 -75.05794434 42.35216797 -74.41870117 42.15527344 C-71.60323731 41.27924593 -68.79494321 40.38210585 -65.98632812 39.484375 C-65.00986328 39.18402344 -64.03339844 38.88367188 -63.02734375 38.57421875 C-62.08955078 38.27128906 -61.15175781 37.96835938 -60.18554688 37.65625 C-58.88943481 37.24777832 -58.88943481 37.24777832 -57.56713867 36.83105469 C-54.87863128 35.5312188 -53.82342175 34.27807235 -52.29882812 31.734375 C-51.96238281 30.27644531 -51.96238281 30.27644531 -51.61914062 28.7890625 C-49.66932086 24.27794103 -46.42941535 23.02024313 -42.17382812 20.859375 C-41.41972656 20.4571875 -40.665625 20.055 -39.88867188 19.640625 C-38.03437113 18.65479422 -36.16772856 17.69223969 -34.29882812 16.734375 C-33.80382812 17.724375 -33.80382812 17.724375 -33.29882812 18.734375 C-28.22303773 19.59467846 -25.60061536 19.5173688 -21.12304688 16.82421875 C-14.88747608 12.24777988 -9.38660638 7.08696452 -4.29882812 1.25390625 C-2.29882812 -0.265625 -2.29882812 -0.265625 0 0 Z " fill="#E95692" transform="translate(425.298828125,207.265625)"/>
<path d="M0 0 C1.35683751 1.6475884 2.68456721 3.31916921 4 5 C22.66706308 23.6185772 47.57707176 35.85971648 73 42 C71.33217247 48.08808209 68.23486253 53.33314319 65.1875 58.8125 C64.40536133 60.23272461 64.40536133 60.23272461 63.60742188 61.68164062 C62.07714626 64.45753384 60.53987564 67.22942259 59 70 C58.2567749 71.33877197 58.2567749 71.33877197 57.49853516 72.70458984 C56.33305115 74.80344702 55.16689622 76.90192774 54 79 C14.16790075 79.77177372 -21.41361405 66.17116434 -53 42 C-53.94230469 41.28070313 -54.88460937 40.56140625 -55.85546875 39.8203125 C-57.91661493 38.22891591 -59.96560805 36.62536076 -62 35 C-58.74598221 30.42273712 -54.99224112 27.53056887 -50.4375 24.375 C-49.3239917 23.59829956 -49.3239917 23.59829956 -48.18798828 22.8059082 C-9.25147232 -3.92486705 -9.25147232 -3.92486705 0 0 Z " fill="#E95691" transform="translate(91,208)"/>
<path d="M0 0 C1.15242188 0.59941406 2.30484375 1.19882813 3.4921875 1.81640625 C7.41891718 4.23491096 10.301097 6.61402814 12 11 C12.90446898 19.52991922 11.63320125 28.12023654 10.45458984 36.5715332 C10.03433661 39.74103706 9.75718013 42.88624345 9.52734375 46.07421875 C8.8344339 54.07250436 4.93236414 61.52507116 -1 67 C-9.99370554 74.55231033 -20.13756386 81.08986372 -32.28515625 80.41015625 C-44.56220431 78.55535043 -54.78389927 71.44872966 -62.56640625 61.94921875 C-67.28513989 55.53328391 -69.01090089 50.23658435 -69.53515625 42.328125 C-69.62216797 41.02359375 -69.70917969 39.7190625 -69.79882812 38.375 C-69.86372437 37.35792969 -69.86372437 37.35792969 -69.92993164 36.3203125 C-70.06118789 34.27049108 -70.19908306 32.22119735 -70.33789062 30.171875 C-71.54688054 11.7006907 -71.54688054 11.7006907 -69 8.4375 C-68.01 7.633125 -67.02 6.82875 -66 6 C-65.44183594 5.45601562 -64.88367188 4.91203125 -64.30859375 4.3515625 C-46.08495821 -13.0731245 -20.7207329 -12.53312873 0 0 Z " fill="#FDCBBC" transform="translate(286,142)"/>
<path d="M0 0 C0.59723877 0.11069824 1.19447754 0.22139648 1.80981445 0.33544922 C41.18978652 7.57211681 78.66209963 7.75247778 118 0 C118.18043297 12.69045192 117.62102318 25.32683275 117 38 C97.63996991 42.7253154 79.08272358 45.23173894 59.125 45.25 C57.97164154 45.25151062 57.97164154 45.25151062 56.79498291 45.25305176 C37.97038234 45.23645029 20.21032984 42.75787132 2 38 C-0.28826483 25.50107447 -0.15157211 12.66469149 0 0 Z " fill="#F8A58D" transform="translate(197,364)"/>
<path d="M0 0 C17.56765849 -0.20054405 17.56765849 -0.20054405 25.10546875 -0.24414062 C30.23187412 -0.27393174 35.35782935 -0.30902181 40.48388672 -0.37719727 C44.62068206 -0.43186608 48.75699414 -0.46149316 52.89412308 -0.47438622 C54.46569034 -0.48356406 56.03723371 -0.50148539 57.60859299 -0.52865028 C68.32988584 -0.70647931 76.33284786 0.31843954 84.875 7.375 C90.98369779 14.92103845 93.01459154 21.32056351 92 31 C89.90880113 37.7330977 86.14444705 43.39420932 80 47 C72.12748636 50.96136406 64.05703645 50.38143905 55.46875 50.29296875 C53.86593017 50.28736562 52.26310515 50.28309891 50.66027832 50.28010559 C46.46477796 50.26871315 42.26959477 50.23929505 38.07421875 50.20599365 C33.0280818 50.16974129 27.98183813 50.1561049 22.93560791 50.13863373 C15.29018545 50.10965361 7.64545736 50.05212812 0 50 C0 33.5 0 17 0 0 Z " fill="#225158" transform="translate(330,447)"/>
<path d="M0 0 C1.0549189 -0.00065712 1.0549189 -0.00065712 2.13114929 -0.00132751 C4.43090632 0.00074462 6.72991306 0.02399939 9.02954102 0.04760742 C10.6337901 0.05320902 12.23804435 0.05747645 13.84230042 0.06047058 C18.0460347 0.07187506 22.24945353 0.10130381 26.45306396 0.13458252 C31.50668571 0.17080192 36.56041347 0.18446553 41.61412811 0.20194244 C49.27495328 0.23094431 56.93508753 0.28846148 64.59594727 0.34057617 C64.59594727 16.84057617 64.59594727 33.34057617 64.59594727 50.34057617 C47.02828878 50.54112022 47.02828878 50.54112022 39.49047852 50.5847168 C34.36407314 50.61450791 29.23811791 50.64959798 24.11206055 50.71777344 C19.97526521 50.77244225 15.83895313 50.80206933 11.70182419 50.81496239 C10.13025692 50.82414023 8.55871355 50.84206156 6.98735428 50.86922646 C-3.41271194 51.04172745 -11.53952402 50.21828515 -19.84155273 43.31323242 C-20.35717773 42.68288086 -20.87280273 42.0525293 -21.40405273 41.40307617 C-21.94030273 40.77530273 -22.47655273 40.1475293 -23.02905273 39.50073242 C-27.18331085 32.97429851 -27.11888994 25.81887312 -26.40405273 18.34057617 C-24.68178175 11.71310302 -19.97667034 7.09046366 -14.40405273 3.34057617 C-9.34675111 0.83598164 -5.73717273 -0.03024871 0 0 Z " fill="#2B6871" transform="translate(117.404052734375,446.659423828125)"/>
<path d="M0 0 C0.66 0 1.32 0 2 0 C2.11851641 4.04140957 2.1880099 8.08235963 2.25 12.125 C2.28351563 13.24777344 2.31703125 14.37054688 2.3515625 15.52734375 C2.50645002 29.0800015 -1.48549514 40.09720434 -8.125 51.75 C-9.37184339 53.99495545 -10.61651811 56.24111633 -11.859375 58.48828125 C-12.18735077 59.07754898 -12.51532654 59.66681671 -12.85324097 60.27394104 C-15.52789568 65.09415435 -18.09660942 69.96524796 -20.640625 74.85546875 C-21.03381927 75.60895599 -21.42701355 76.36244324 -21.8321228 77.13876343 C-24.17448203 81.62736188 -24.17448203 81.62736188 -26.50201416 86.12365723 C-33.22376606 99.1479574 -40.98346515 110.2391023 -51 121 C-52.36474163 122.48719312 -53.72944704 123.9744206 -55.0925293 125.46313477 C-56.0320585 126.48903873 -56.97232782 127.51426537 -57.91333008 128.53881836 C-60.79421647 131.67607398 -63.65516518 134.8300412 -66.5 138 C-70.27537217 142.20684327 -74.08980448 146.37674853 -77.9140625 150.5390625 C-81.53007657 154.47829571 -85.10897759 158.4494338 -88.6796875 162.4296875 C-91.7782706 165.86212467 -94.90701385 169.26650501 -98.04589844 172.66210938 C-100.70044624 175.54333345 -103.25019538 178.48454061 -105.75 181.5 C-109.41536369 185.70903007 -113.12295748 188.47690136 -118.75 189.5 C-121 189 -121 189 -122.8125 187.5625 C-124.60054171 183.7040942 -124.74023636 180.17936844 -124 176 C-122.38218003 173.20855816 -120.26996422 171.14571827 -117.9375 168.9375 C-116.72849164 167.71941963 -115.52015157 166.50067556 -114.3125 165.28125 C-113.73242188 164.71019531 -113.15234375 164.13914062 -112.5546875 163.55078125 C-110.75398458 161.75460271 -109.08156318 159.87749456 -107.4375 157.9375 C-103.9031157 153.8418239 -100.22153902 149.88739625 -96.54492188 145.91992188 C-92.75084511 141.82269791 -89.00438191 137.68572087 -85.27734375 133.52734375 C-82.70190207 130.66917777 -80.10312271 127.83291561 -77.5 125 C-73.38350917 120.51911717 -69.28907327 116.02010736 -65.24609375 111.47265625 C-63.71022339 109.78186332 -62.13759885 108.12393164 -60.53515625 106.49609375 C-53.3325082 99.04928814 -48.72646045 91.10985632 -44 82 C-43.06395953 80.21085512 -42.12775344 78.42179688 -41.19140625 76.6328125 C-39.67280606 73.72549241 -38.15729029 70.81668912 -36.6484375 67.90429688 C-33.22557935 61.30430212 -29.71048602 54.76288782 -26.125 48.25 C-20.87323999 38.70911372 -15.84546055 29.06003025 -10.89501953 19.36035156 C-3.19806469 4.36289025 -3.19806469 4.36289025 0 0 Z " fill="#FCCABB" transform="translate(175,262)"/>
<path d="M0 0 C1.07894531 0.00302124 1.07894531 0.00302124 2.1796875 0.00610352 C4.82819127 0.01644923 7.47660307 0.04437033 10.125 0.0703125 C19.035 0.1321875 19.035 0.1321875 28.125 0.1953125 C28.125 16.6953125 28.125 33.1953125 28.125 50.1953125 C9.19809853 50.23542131 9.19809853 50.23542131 1.15820312 50.24414062 C-4.33749349 50.25012887 -9.83317351 50.25722869 -15.32885742 50.27075195 C-19.75733688 50.2815815 -24.18579856 50.28758948 -28.61429024 50.29018974 C-30.30765628 50.29204387 -32.00102129 50.29566425 -33.69437981 50.30104256 C-36.05791232 50.3082539 -38.42137045 50.3093034 -40.78491211 50.30883789 C-41.49197296 50.31243317 -42.19903381 50.31602844 -42.92752075 50.31973267 C-47.76094784 50.30936466 -47.76094784 50.30936466 -48.875 49.1953125 C-50.36967571 37.5074385 -45.76441449 27.33703558 -38.875 18.1953125 C-38.00875 16.8959375 -38.00875 16.8959375 -37.125 15.5703125 C-27.19703754 5.09079657 -14.24180092 -0.1922522 0 0 Z " fill="#FECBBC" transform="translate(287.875,446.8046875)"/>
<path d="M0 0 C8.79394604 4.39697302 12.93881367 12.93056665 17.3125 21.375 C18.22244213 23.09778414 19.13239328 24.82056354 20.04264832 26.54318237 C21.0192696 28.39593137 21.9906982 30.25132362 22.9609375 32.10742188 C25.06324203 36.12641383 27.186169 40.13430443 29.3125 44.140625 C32.33985326 49.84689387 35.36379274 55.55494229 38.3828125 61.265625 C38.76212921 61.98302856 39.14144592 62.70043213 39.53225708 63.4395752 C41.47122203 67.10706843 43.4093932 70.77497925 45.34667969 74.44335938 C47.26038817 78.06668737 49.17668587 81.68863618 51.09457397 85.30975342 C51.80940461 86.66053242 52.5233296 88.01179117 53.23623657 89.36358643 C61.54420826 106.03464694 61.54420826 106.03464694 72.875 120.625 C73.91468345 121.70904022 74.95373936 122.79368262 75.9921875 123.87890625 C76.4984668 124.4011377 77.00474609 124.92336914 77.52636719 125.46142578 C79.74323548 127.77598907 81.86963379 130.16847461 84 132.5625 C85.32426539 134.04979048 86.65693259 135.52966612 88 137 C88.680625 137.74636719 89.36125 138.49273437 90.0625 139.26171875 C91.94112679 141.29903128 91.94112679 141.29903128 95 141.25 C95.99 141.1675 96.98 141.085 98 141 C102 141 102 141 104.25390625 142.79296875 C105.01574219 143.58316406 105.77757812 144.37335938 106.5625 145.1875 C107.32691406 145.96480469 108.09132813 146.74210938 108.87890625 147.54296875 C110.92484495 149.91294194 112.48170226 152.26900438 114 155 C113.34 155.99 112.68 156.98 112 158 C111.93304864 161.48147077 112.15914748 163.95071079 114.38671875 166.73046875 C115.58670389 167.90888112 116.80984973 169.06400554 118.05078125 170.19921875 C119.95409555 171.95759128 121.62679426 173.78401064 123.3125 175.75 C127.06975691 180.11354155 130.9627814 184.34703218 134.86328125 188.58203125 C137.56352759 191.63770307 138.93093658 193.25411511 139.3125 197.375 C138.96398797 201.41773951 138.64912615 202.94949111 136 206 C131.16473903 209.6339539 126.46113405 211.85150515 120.34375 211.49609375 C114.62574712 210.28578314 109.26622474 207.89933711 106 203 C106.721875 202.67 107.44375 202.34 108.1875 202 C112.01119001 199.28093155 114.11399531 196.28007595 116 192 C116.93499983 186.10950106 115.82082715 182.42407834 112.75 177.35546875 C110.00991985 173.66736979 106.77914394 170.5647086 103.46875 167.390625 C100.79732759 164.80374128 98.39210527 162.083668 95.9765625 159.26171875 C93.37614994 156.28614786 90.68858467 153.39581085 88 150.5 C84.78820288 147.03732726 81.58896307 143.57350629 78.5 140 C74.94182153 135.88639854 71.2415788 131.90904725 67.54516602 127.92016602 C63.74887595 123.82059923 59.99339057 119.68787689 56.28125 115.51171875 C54.64755824 113.71297936 52.97615822 111.94820852 51.28125 110.20703125 C44.4386563 103.14964761 39.51227043 95.72842925 35 87 C34.08766061 85.25629006 33.17486842 83.51281699 32.26171875 81.76953125 C30.73989699 78.85788247 29.22133551 75.94467499 27.70996094 73.02758789 C23.68228241 65.25947123 19.52497284 57.56924308 15.31640625 49.89794922 C10.79104286 41.64307258 6.38450534 33.33056015 2 25 C1.67 33.58 1.34 42.16 1 51 C0.67 51 0.34 51 0 51 C0 34.17 0 17.34 0 0 Z " fill="#F4A38B" transform="translate(323,245)"/>
<path d="M0 0 C3.3 0 6.6 0 10 0 C10.00586624 0.71028854 10.01173248 1.42057709 10.01777649 2.15238953 C10.07609873 8.90324821 10.14839486 15.65383444 10.23571491 22.40437603 C10.2801139 25.87348213 10.31943318 29.34247899 10.34643555 32.81176758 C10.37784006 36.81620425 10.43261112 40.8200453 10.48828125 44.82421875 C10.49467117 46.04767502 10.5010611 47.27113129 10.50764465 48.53166199 C10.6732893 58.40835591 11.44667563 75.44667563 19 83 C19.10150308 86.00926782 19.13857524 88.99082202 19.125 92 C19.13080078 93.23943359 19.13080078 93.23943359 19.13671875 94.50390625 C19.12799822 100.0763272 18.70215713 105.47190577 18 111 C-10.017019 117.27337599 -10.017019 117.27337599 -22 117 C-21.5875 115.865625 -21.175 114.73125 -20.75 113.5625 C-16.53159185 100.7115055 -14.39274284 88.24483313 -13.90197754 74.76028442 C-13.80995226 72.24280297 -13.69556021 69.72706308 -13.57714844 67.21069336 C-13.21172143 59.1668776 -12.9632116 51.12961561 -12.87109375 43.078125 C-12.84897907 41.70401323 -12.82644833 40.32990809 -12.8034668 38.95581055 C-12.76883568 36.43406407 -12.75956184 33.91178977 -12.78051758 31.38989258 C-12.67502678 23.57743356 -11.1699725 19.75494081 -6 14 C-4.61234998 11.54296716 -4.61234998 11.54296716 -3.75 9.3125 C-3.2859375 8.19488281 -3.2859375 8.19488281 -2.8125 7.0546875 C-2.544375 6.37664062 -2.27625 5.69859375 -2 5 C-1.5875 3.989375 -1.175 2.97875 -0.75 1.9375 C-0.5025 1.298125 -0.255 0.65875 0 0 Z " fill="#35808A" transform="translate(298,238)"/>
<path d="M0 0 C33.61502492 8.20021773 71.43607283 8.32230074 105.02172852 -0.13549805 C105.88725342 -0.35117432 106.75277832 -0.56685059 107.64453125 -0.7890625 C108.78112183 -1.08417725 108.78112183 -1.08417725 109.94067383 -1.38525391 C116.74502237 -2.54958459 121.69352826 -1.3294216 127.92578125 1.1796875 C128.71019089 1.48568878 129.49460052 1.79169006 130.30278015 2.10696411 C131.94957734 2.75208254 133.59415604 3.40289019 135.23657227 4.05908203 C137.75488474 5.0644501 140.27991884 6.05113944 142.80664062 7.03515625 C144.40927824 7.66558968 146.01150696 8.29706378 147.61328125 8.9296875 C148.7460424 9.37355301 148.7460424 9.37355301 149.90168762 9.8263855 C155.2047357 11.9547357 155.2047357 11.9547357 157.4375 14.1875 C156.43097885 14.19114563 155.4244577 14.19479126 154.38743591 14.19854736 C144.84114253 14.23569883 135.29516574 14.29368835 125.74911404 14.37140274 C120.84290281 14.41069281 115.93686612 14.44297098 111.03051758 14.45849609 C106.28403477 14.4737855 101.5380324 14.50844461 96.79176521 14.55580902 C94.99279043 14.57049741 93.193747 14.57853369 91.39471245 14.57938385 C79.15888924 14.59096721 67.3090426 15.09800231 56.2094574 20.86456299 C53.4375 22.1875 53.4375 22.1875 50.4375 21.50390625 C49.4475 21.06949219 48.4575 20.63507813 47.4375 20.1875 C45.43830162 19.49767243 43.43829955 18.81016964 41.4375 18.125 C40.4475 17.78339844 39.4575 17.44179688 38.4375 17.08984375 C32.72031783 15.37022255 27.16812407 15.0280485 21.22900391 14.98217773 C20.42833496 14.97227814 19.62766602 14.96237854 18.80273438 14.95217896 C16.1732065 14.92075391 13.5436606 14.89588216 10.9140625 14.87109375 C9.08417305 14.85050779 7.25428818 14.8295109 5.42440796 14.80812073 C0.62078574 14.75306958 -4.18287818 14.70358588 -8.98657227 14.65527344 C-13.89342944 14.60493421 -18.80022646 14.54931313 -23.70703125 14.49414062 C-33.32546937 14.38676661 -42.94395985 14.28527599 -52.5625 14.1875 C-49.76139053 11.38639053 -46.36601181 10.35119146 -42.73828125 8.9296875 C-41.95865524 8.62177277 -41.17902924 8.31385803 -40.3757782 7.99661255 C-38.72339989 7.3466125 -37.06986613 6.69954329 -35.4152832 6.05517578 C-32.89743602 5.0712674 -30.3872682 4.06934829 -27.87695312 3.06640625 C-26.26866937 2.43637513 -24.65995821 1.80743375 -23.05078125 1.1796875 C-22.3057283 0.8797287 -21.56067535 0.5797699 -20.79304504 0.27072144 C-13.46721629 -2.53983257 -7.5128235 -2.00896991 0 0 Z " fill="#225158" transform="translate(203.5625,417.8125)"/>
<path d="M0 0 C4.44990744 1.40385815 7.73989593 2.96233664 11.5 5.75 C12.3971875 6.40484375 13.294375 7.0596875 14.21875 7.734375 C15.1365625 8.48203125 16.054375 9.2296875 17 10 C17.56082275 10.36456299 18.12164551 10.72912598 18.69946289 11.10473633 C20.704254 12.62574299 21.80377397 13.77002436 23 16 C23.47972463 20.79337134 22.96274446 25.41233231 22.4375 30.1875 C22.32341797 31.45142578 22.20933594 32.71535156 22.09179688 34.01757812 C21.86354803 36.51026187 21.61922924 39.0015327 21.35791016 41.4909668 C21.03157294 44.69045168 20.78543246 47.88658039 20.55078125 51.09375 C19.70875428 60.36803891 14.7074494 68.04699992 7.66015625 73.96484375 C-0.95356496 80.60124015 -10.0738047 85.94609993 -21.2421875 85.44140625 C-26.08424529 84.66640267 -30.51655137 82.94253867 -35 81 C-32.71993307 78.49265952 -30.39889331 77.00067659 -27.4375 75.375 C-15.27712671 68.18529025 -6.64155087 58.72837628 -3 45 C-2.46716619 41.43377128 -2.24318003 37.8763429 -2.05078125 34.27734375 C-1.98843796 33.29125626 -1.92609467 32.30516876 -1.86186218 31.28919983 C-1.66740411 28.17253728 -1.48968242 25.05518745 -1.3125 21.9375 C-1.18275025 19.8104789 -1.05190152 17.68352453 -0.91992188 15.55664062 C-0.60057368 10.37177852 -0.29622009 5.18623275 0 0 Z " fill="#F8A48D" transform="translate(275,137)"/>
<path d="M0 0 C19.14 0 38.28 0 58 0 C58 13.24455658 57.12404563 18.62759891 48.2578125 27.8359375 C38.43153805 37.25420055 27.3895445 37.42845743 14.375 37.1875 C9.63125 37.125625 4.8875 37.06375 0 37 C0 24.79 0 12.58 0 0 Z " fill="#2B6972" transform="translate(331,448)"/>
<path d="M0 0 C20.28185475 19.40951691 41.07617917 55.36155413 42 84 C41.35998047 83.47212891 41.35998047 83.47212891 40.70703125 82.93359375 C34.58164157 78.09643036 27.91441144 74.56260833 21 71 C21.495 70.113125 21.99 69.22625 22.5 68.3125 C25.3080819 61.73356527 25.06292246 53.39730885 22.9375 46.625 C20.40680742 41.03145986 15.96854014 36.59319258 10.375 34.0625 C3.15552612 31.83357505 -5.10237019 31.5824351 -11.9375 35 C-17.50173169 38.60038521 -22.44495924 44.4688288 -24 51 C-24.71008036 58.1911775 -23.41594062 64.24111851 -21 71 C-22.16015625 71.63615234 -22.16015625 71.63615234 -23.34375 72.28515625 C-29.29559886 75.63675431 -34.59530635 79.02456396 -39.57421875 83.71484375 C-41 85 -41 85 -42 85 C-41.4612028 78.37479003 -40.19932267 72.53519567 -38.0625 66.25 C-37.75530029 65.34459473 -37.44810059 64.43918945 -37.1315918 63.50634766 C-29.25285467 41.03282747 -17.02559095 17.02559095 0 0 Z " fill="#EB90B5" transform="translate(256,15)"/>
<path d="M0 0 C5.754375 -0.061875 11.50875 -0.12375 17.4375 -0.1875 C19.23501709 -0.21481201 21.03253418 -0.24212402 22.88452148 -0.27026367 C30.82159821 -0.33913731 37.61210059 -0.29215167 45 3 C44.60095459 3.58797363 44.20190918 4.17594727 43.79077148 4.78173828 C38.08750712 13.2141902 32.79122963 21.13765532 30 31 C29.62875 32.093125 29.2575 33.18625 28.875 34.3125 C27.65911133 39.43660224 27.43734945 44.75180655 27 50 C18.09 50 9.18 50 0 50 C0 33.5 0 17 0 0 Z " fill="#FECCBD" transform="translate(197,447)"/>
<path d="M0 0 C8.00172822 6.5382853 15.31100454 14.76795129 16.65234375 25.3359375 C16.76707031 26.54507813 16.88179688 27.75421875 17 29 C16.11699219 28.46890625 15.23398437 27.9378125 14.32421875 27.390625 C7.10717927 23.11498396 0.10530346 19.35475177 -8 17 C-8.76054687 16.77570313 -9.52109375 16.55140625 -10.3046875 16.3203125 C-26.99246556 12.21860274 -43.16056144 15.20890601 -57.8125 23.75 C-58.74707031 24.34296875 -59.68164062 24.9359375 -60.64453125 25.546875 C-63 27 -63 27 -66 28 C-65.41249861 17.22914127 -59.7870604 9.24155705 -52 2 C-36.53375818 -9.61866611 -16.33376205 -10.5108499 0 0 Z " fill="#FADC44" transform="translate(281,104)"/>
<path d="M0 0 C0.59723877 0.11069824 1.19447754 0.22139648 1.80981445 0.33544922 C23.61411739 4.34232084 44.84151808 6.33239601 67 7 C55.98084296 20.24135371 40.3497802 29.82638194 23 32 C19.20725374 32.11656539 15.41905799 32.09432113 11.625 32.0625 C10.60277344 32.05798828 9.58054688 32.05347656 8.52734375 32.04882812 C6.01816806 32.037103 3.5091151 32.02069176 1 32 C0.20414744 21.312837 -0.12825004 10.71600323 0 0 Z " fill="#FCCABB" transform="translate(197,364)"/>
<path d="M0 0 C12.21 0 24.42 0 37 0 C37 16.5 37 33 37 50 C18.07309853 50.04010881 18.07309853 50.04010881 10.03320312 50.04882812 C4.53750651 50.05481637 -0.95817351 50.06191619 -6.45385742 50.07543945 C-10.88233688 50.086269 -15.31079856 50.09227698 -19.73929024 50.09487724 C-21.43265628 50.09673137 -23.12602129 50.10035175 -24.81937981 50.10573006 C-27.18291232 50.1129414 -29.54637045 50.1139909 -31.90991211 50.11352539 C-32.61697296 50.11712067 -33.32403381 50.12071594 -34.05252075 50.12442017 C-38.88594784 50.11405216 -38.88594784 50.11405216 -40 49 C-40.12535652 47.39951798 -40.17574787 45.79284072 -40.1875 44.1875 C-40.20167969 43.31480469 -40.21585938 42.44210937 -40.23046875 41.54296875 C-39.99010406 38.89080915 -39.34187309 37.27535001 -38 35 C-38 35.99 -38 36.98 -38 38 C-13.58 38 10.84 38 36 38 C36 25.79 36 13.58 36 1 C24.12 1 12.24 1 0 1 C0 0.67 0 0.34 0 0 Z " fill="#EFA08A" transform="translate(279,447)"/>
<path d="M0 0 C28.71 0 57.42 0 87 0 C87 3.96 87 7.92 87 12 C77.78517965 12.11628881 68.57061521 12.20491397 59.35521889 12.25906086 C55.07525174 12.28506007 50.79578977 12.32027849 46.51611328 12.37719727 C42.37931794 12.43186608 38.24300586 12.46149316 34.10587692 12.47438622 C32.53430966 12.48356406 30.96276629 12.50148539 29.39140701 12.52865028 C18.77762933 12.70469601 10.00830076 11.89103908 1.875 4.3125 C0 2 0 2 0 0 Z " fill="#225259" transform="translate(95,485)"/>
<path d="M0 0 C17.16 0 34.32 0 52 0 C50.72531351 6.37343244 48.1203673 10.56240021 42.96484375 14.58984375 C35.09250503 19.66639863 27.18403841 19.81847389 18 19 C11.1739082 16.91614316 5.86108432 11.91462502 2 6 C1.34 4.02 0.68 2.04 0 0 Z " fill="#FCCABC" transform="translate(230,238)"/>
<path d="M0 0 C11.88 0 23.76 0 36 0 C36 0.33 36 0.66 36 1 C24.45 1 12.9 1 1 1 C1 12.88 1 24.76 1 37 C9.91 37 18.82 37 28 37 C27.67 41.29 27.34 45.58 27 50 C18.09 50 9.18 50 0 50 C0 33.5 0 17 0 0 Z " fill="#F3A792" transform="translate(197,447)"/>
<path d="M0 0 C10.67077255 1.83197334 18.20808291 7.77020718 25 16 C29.32552891 22.31720247 31.28336462 27.44714617 32 35 C31.11699219 34.46890625 30.23398437 33.9378125 29.32421875 33.390625 C22.08845519 29.10786257 15.07684741 25.50547103 7 23 C7.66 22.67 8.32 22.34 9 22 C7.00396073 15.30936557 4.98018485 9.27291451 0.953125 3.5234375 C0 2 0 2 0 0 Z " fill="#E7C107" transform="translate(266,98)"/>
<path d="M0 0 C2.99559257 1.29011865 3.81502626 2.32340716 6 5 C6.79690921 8.17043735 6.78723288 10.82808357 6 14 C3.10799895 17.65305395 0.88959163 19.74232841 -3.75 20.375 C-7.25406902 19.97068434 -9.2017089 19.03458907 -11.79296875 16.62109375 C-14.01359596 13.63869798 -14.44888471 10.64807888 -14 7 C-10.58073268 0.51518266 -7.26829593 -1.14408362 0 0 Z " fill="#F7D944" transform="translate(260,62)"/>
<path d="M0 0 C4.75 0.75 4.75 0.75 7 3 C5.35 4.65 3.7 6.3 2 8 C1.34 5.36 0.68 2.72 0 0 Z " fill="#E79B85" transform="translate(235,448)"/>
</svg>
